sean_bold.ufo
<glyph name="numbersign" format="1">
  <advance width="595"/>
  <unicode hex="0023"/>
  <outline>
    <contour>
      <point x="313" y="387" type="line"/>
      <point x="254" y="387" type="line"/>
      <point x="252" y="380"/>
      <point x="248" y="369"/>
      <point x="246.0" y="363.0" type="qcurve" smooth="yes" name="inserted"/>
      <point x="244" y="357"/>
      <point x="238" y="340"/>
      <point x="234" y="326" type="qcurve"/>
      <point x="293" y="326" type="line"/>
    </contour>
    <contour>
      <point x="258" y="212" type="line"/>
      <point x="198" y="212" type="line"/>
      <point x="140" y="24" type="line"/>
      <point x="21" y="24" type="line"/>
      <point x="80" y="212" type="line"/>
      <point x="-9" y="212" type="line"/>
      <point x="11" y="326" type="line"/>
      <point x="116" y="326" type="line"/>
      <point x="118" y="333"/>
      <point x="122" y="343"/>
      <point x="124.0" y="349.0" type="qcurve" smooth="yes" name="inserted"/>
      <point x="126" y="355"/>
      <point x="131" y="373"/>
      <point x="135" y="387" type="qcurve"/>
      <point x="54" y="387" type="line"/>
      <point x="74" y="500" type="line"/>
      <point x="170" y="500" type="line"/>
      <point x="225" y="674" type="line"/>
      <point x="344" y="674" type="line"/>
      <point x="289" y="500" type="line"/>
      <point x="350" y="500" type="line"/>
      <point x="408" y="686" type="line"/>
      <point x="528" y="686" type="line"/>
      <point x="468" y="500" type="line"/>
      <point x="551" y="500" type="line"/>
      <point x="532" y="387" type="line"/>
      <point x="433" y="387" type="line"/>
      <point x="431" y="380"/>
      <point x="427" y="369"/>
      <point x="425.0" y="363.0" type="qcurve" smooth="yes" name="inserted"/>
      <point x="423" y="357"/>
      <point x="417" y="340"/>
      <point x="413" y="326" type="qcurve"/>
      <point x="489" y="326" type="line"/>
      <point x="469" y="212" type="line"/>
      <point x="378" y="212" type="line"/>
      <point x="320" y="31" type="line"/>
      <point x="200" y="31" type="line"/>
    </contour>
  </outline>
</glyph>
<glyph name="dollar" format="1">
  <advance width="520"/>
  <unicode hex="0024"/>
  <outline>
    <contour>
      <point x="164" y="-36" type="line"/>
      <point x="164" y="43" type="line"/>
      <point x="130" y="51"/>
      <point x="60" y="84"/>
      <point x="15" y="111" type="qcurve"/>
      <point x="73" y="215" type="line"/>
      <point x="124" y="183"/>
      <point x="192" y="153"/>
      <point x="224" y="153" type="qcurve" smooth="yes"/>
      <point x="261" y="153"/>
      <point x="310" y="179"/>
      <point x="310" y="208" type="qcurve" smooth="yes"/>
      <point x="310" y="243"/>
      <point x="250" y="286"/>
      <point x="206" y="306" type="qcurve" smooth="yes"/>
      <point x="174" y="322"/>
      <point x="118" y="354"/>
      <point x="97.0" y="375.0" type="qcurve" smooth="yes" name="inserted"/>
      <point x="76" y="396"/>
      <point x="51" y="452"/>
      <point x="51" y="491" type="qcurve" smooth="yes"/>
      <point x="51" y="556"/>
      <point x="117" y="635"/>
      <point x="174" y="648" type="qcurve"/>
      <point x="174" y="730" type="line"/>
      <point x="290" y="730" type="line"/>
      <point x="290" y="647" type="line"/>
      <point x="322" y="639"/>
      <point x="393" y="606"/>
      <point x="437" y="580" type="qcurve"/>
      <point x="378" y="482" type="line"/>
      <point x="329" y="511"/>
      <point x="263" y="539"/>
      <point x="232" y="539" type="qcurve" smooth="yes"/>
      <point x="203" y="539"/>
      <point x="167" y="514"/>
      <point x="167" y="491" type="qcurve" smooth="yes"/>
      <point x="167" y="476"/>
      <point x="183" y="452"/>
      <point x="197.0" y="442.0" type="qcurve" smooth="yes" name="inserted"/>
      <point x="211" y="432"/>
      <point x="248" y="414"/>
      <point x="268" y="404" type="qcurve" smooth="yes"/>
      <point x="301" y="387"/>
      <point x="359" y="352"/>
      <point x="380.5" y="329.0" type="qcurve" smooth="yes" name="inserted"/>
      <point x="402" y="306"/>
      <point x="426" y="247"/>
      <point x="426" y="207" type="qcurve" smooth="yes"/>
      <point x="426" y="133"/>
      <point x="349" y="53"/>
      <point x="280" y="42" type="qcurve"/>
      <point x="280" y="-36" type="line"/>
    </contour>
  </outline>
</glyph>
<glyph name="percent" format="1">
  <advance width="810"/>
  <unicode hex="0025"/>
  <outline>
    <contour>
      <point x="193" y="397" type="qcurve" smooth="yes"/>
      <point x="151" y="397"/>
      <point x="84" y="427"/>
      <point x="61.0" y="453.5" type="qcurve" smooth="yes" name="inserted"/>
      <point x="38" y="480"/>
      <point x="14" y="553"/>
      <point x="14" y="596" type="qcurve" smooth="yes"/>
      <point x="13" y="640"/>
      <point x="37" y="715"/>
      <point x="60.5" y="743.0" type="qcurve" smooth="yes" name="inserted"/>
      <point x="84" y="771"/>
      <point x="152" y="802"/>
      <point x="195" y="802" type="qcurve" smooth="yes"/>
      <point x="237" y="802"/>
      <point x="302" y="771"/>
      <point x="324.0" y="744.0" type="qcurve" smooth="yes" name="inserted"/>
      <point x="346" y="717"/>
      <point x="369" y="644"/>
      <point x="369" y="602" type="qcurve" smooth="yes"/>
      <point x="369" y="558"/>
      <point x="346" y="484"/>
      <point x="323.5" y="456.0" type="qcurve" smooth="yes" name="inserted"/>
      <point x="301" y="428"/>
      <point x="236" y="397"/>
    </contour>
    <contour>
      <point x="104" y="0" type="line"/>
      <point x="501" y="793" type="line"/>
      <point x="629" y="793" type="line"/>
      <point x="232" y="0" type="line"/>
    </contour>
    <contour>
      <point x="129" y="598" type="qcurve" smooth="yes"/>
      <point x="129" y="561"/>
      <point x="164" y="512"/>
      <point x="195" y="512" type="qcurve" smooth="yes"/>
      <point x="224" y="512"/>
      <point x="254" y="563"/>
      <point x="254" y="601" type="qcurve" smooth="yes"/>
      <point x="255" y="638"/>
      <point x="222" y="687"/>
      <point x="192" y="686" type="qcurve" smooth="yes"/>
      <point x="161" y="686"/>
      <point x="129" y="636"/>
    </contour>
    <contour>
      <point x="545" y="-10" type="qcurve" smooth="yes"/>
      <point x="503" y="-10"/>
      <point x="436" y="20"/>
      <point x="412.5" y="46.5" type="qcurve" smooth="yes" name="inserted"/>
      <point x="389" y="73"/>
      <point x="365" y="146"/>
      <point x="366" y="189" type="qcurve" smooth="yes"/>
      <point x="365" y="233"/>
      <point x="389" y="308"/>
      <point x="412.0" y="336.0" type="qcurve" smooth="yes" name="inserted"/>
      <point x="435" y="364"/>
      <point x="503" y="395"/>
      <point x="547" y="395" type="qcurve" smooth="yes"/>
      <point x="589" y="395"/>
      <point x="654" y="364"/>
      <point x="676.0" y="337.0" type="qcurve" smooth="yes" name="inserted"/>
      <point x="698" y="310"/>
      <point x="721" y="237"/>
      <point x="721" y="195" type="qcurve" smooth="yes"/>
      <point x="721" y="151"/>
      <point x="698" y="77"/>
      <point x="675.5" y="49.0" type="qcurve" smooth="yes" name="inserted"/>
      <point x="653" y="21"/>
      <point x="588" y="-10"/>
    </contour>
    <contour>
      <point x="481" y="192" type="qcurve" smooth="yes"/>
      <point x="481" y="155"/>
      <point x="516" y="105"/>
      <point x="547" y="105" type="qcurve" smooth="yes"/>
      <point x="576" y="105"/>
      <point x="606" y="156"/>
      <point x="606" y="194" type="qcurve" smooth="yes"/>
      <point x="607" y="231"/>
      <point x="574" y="281"/>
      <point x="544" y="280" type="qcurve" smooth="yes"/>
      <point x="513" y="280"/>
      <point x="481" y="230"/>
    </contour>
  </outline>
</glyph>
<glyph name="ampersand" format="1">
  <advance width="644"/>
  <unicode hex="0026"/>
  <outline>
    <contour>
      <point x="201" y="533" type="qcurve" smooth="yes"/>
      <point x="201" y="507"/>
      <point x="226" y="462"/>
      <point x="245" y="440" type="qcurve"/>
      <point x="282" y="460"/>
      <point x="336" y="500"/>
      <point x="336" y="531" type="qcurve" smooth="yes"/>
      <point x="336" y="556"/>
      <point x="295" y="582"/>
      <point x="265" y="582" type="qcurve" smooth="yes"/>
      <point x="237" y="582"/>
      <point x="201" y="556"/>
    </contour>
    <contour>
      <point x="212" y="422" type="line"/>
      <point x="271" y="412" type="line"/>
      <point x="245" y="440" type="line"/>
      <point x="240" y="438" type="line"/>
    </contour>
    <contour>
      <point x="248" y="109" type="qcurve" smooth="yes"/>
      <point x="282" y="109"/>
      <point x="337" y="133"/>
      <point x="359" y="153" type="qcurve"/>
      <point x="326" y="188"/>
      <point x="256" y="262"/>
      <point x="224" y="298" type="qcurve"/>
      <point x="205" y="288"/>
      <point x="170" y="268"/>
      <point x="157.0" y="256.5" type="qcurve" smooth="yes" name="inserted"/>
      <point x="144" y="245"/>
      <point x="129" y="219"/>
      <point x="129" y="203" type="qcurve" smooth="yes"/>
      <point x="129" y="158"/>
      <point x="197" y="109"/>
    </contour>
    <contour>
      <point x="226" y="300" type="line"/>
      <point x="257" y="318" type="line"/>
      <point x="199" y="326" type="line"/>
      <point x="214" y="309" type="line"/>
      <point x="224" y="298" type="line"/>
    </contour>
    <contour>
      <point x="435" y="67" type="line"/>
      <point x="398" y="31"/>
      <point x="307" y="-6"/>
      <point x="245" y="-6" type="qcurve" smooth="yes"/>
      <point x="195" y="-6"/>
      <point x="111" y="23"/>
      <point x="80.0" y="50.0" type="qcurve" smooth="yes" name="inserted"/>
      <point x="49" y="77"/>
      <point x="15" y="155"/>
      <point x="15" y="204" type="qcurve" smooth="yes"/>
      <point x="15" y="240"/>
      <point x="35" y="294"/>
      <point x="52.5" y="315.0" type="qcurve" smooth="yes" name="inserted"/>
      <point x="70" y="336"/>
      <point x="117" y="369"/>
      <point x="144" y="384" type="qcurve"/>
      <point x="119" y="414"/>
      <point x="87" y="486"/>
      <point x="87" y="535" type="qcurve" smooth="yes"/>
      <point x="87" y="573"/>
      <point x="114" y="633"/>
      <point x="138.0" y="654.0" type="qcurve" smooth="yes" name="inserted"/>
      <point x="162" y="675"/>
      <point x="228" y="697"/>
      <point x="266" y="697" type="qcurve" smooth="yes"/>
      <point x="306" y="697"/>
      <point x="373" y="674"/>
      <point x="398.0" y="653.0" type="qcurve" smooth="yes" name="inserted"/>
      <point x="423" y="632"/>
      <point x="451" y="570"/>
      <point x="451" y="531" type="qcurve" smooth="yes"/>
      <point x="451" y="497"/>
      <point x="430" y="444"/>
      <point x="412.5" y="423.5" type="qcurve" smooth="yes" name="inserted"/>
      <point x="395" y="403"/>
      <point x="349" y="370"/>
      <point x="324" y="355" type="qcurve"/>
      <point x="422" y="250" type="line"/>
      <point x="433" y="276"/>
      <point x="455" y="341"/>
      <point x="466" y="377" type="qcurve"/>
      <point x="576" y="340" type="line"/>
      <point x="558" y="283"/>
      <point x="523" y="190"/>
      <point x="506" y="159" type="qcurve"/>
      <point x="654" y="0" type="line"/>
      <point x="497" y="0" type="line"/>
    </contour>
  </outline>
</glyph>
<glyph name="quotesingle" format="1">
  <advance width="291"/>
  <unicode hex="0027"/>
  <outline>
    <contour>
      <point x="75" y="537" type="line"/>
      <point x="75" y="788" type="line"/>
      <point x="191" y="788" type="line"/>
      <point x="191" y="537" type="line"/>
    </contour>
  </outline>
</glyph>
<glyph name="parenleft" format="1">
  <advance width="436"/>
  <unicode hex="0028"/>
  <outline>
    <contour>
      <point x="65" y="315" type="qcurve" smooth="yes"/>
      <point x="65" y="395"/>
      <point x="92" y="534"/>
      <point x="121.0" y="598.0" type="qcurve" smooth="yes" name="inserted"/>
      <point x="150" y="662"/>
      <point x="241" y="785"/>
      <point x="306" y="848" type="qcurve"/>
      <point x="404" y="782" type="line"/>
      <point x="344" y="724"/>
      <point x="259" y="614"/>
      <point x="232.0" y="558.0" type="qcurve" smooth="yes" name="inserted"/>
      <point x="205" y="502"/>
      <point x="180" y="382"/>
      <point x="180" y="315" type="qcurve" smooth="yes"/>
      <point x="180" y="248"/>
      <point x="204" y="131"/>
      <point x="229.5" y="75.5" type="qcurve" smooth="yes" name="inserted"/>
      <point x="255" y="20"/>
      <point x="336" y="-87"/>
      <point x="393" y="-143" type="qcurve"/>
      <point x="311" y="-225" type="line"/>
      <point x="245" y="-160"/>
      <point x="152" y="-34"/>
      <point x="122.0" y="31.0" type="qcurve" smooth="yes" name="inserted"/>
      <point x="92" y="96"/>
      <point x="65" y="235"/>
    </contour>
  </outline>
</glyph>
<glyph name="parenright" format="1">
  <advance width="509"/>
  <unicode hex="0029"/>
  <outline>
    <contour>
      <point x="61" y="-162" type="line"/>
      <point x="119" y="-102"/>
      <point x="206" y="10"/>
      <point x="234.5" y="67.5" type="qcurve" smooth="yes" name="inserted"/>
      <point x="263" y="125"/>
      <point x="291" y="246"/>
      <point x="291" y="315" type="qcurve" smooth="yes"/>
      <point x="291" y="382"/>
      <point x="265" y="501"/>
      <point x="238.0" y="555.5" type="qcurve" smooth="yes" name="inserted"/>
      <point x="211" y="610"/>
      <point x="127" y="716"/>
      <point x="69" y="771" type="qcurve"/>
      <point x="150" y="853" type="line"/>
      <point x="218" y="789"/>
      <point x="315" y="665"/>
      <point x="346.0" y="600.5" type="qcurve" smooth="yes" name="inserted"/>
      <point x="377" y="536"/>
      <point x="406" y="397"/>
      <point x="406" y="316" type="qcurve" smooth="yes"/>
      <point x="406" y="233"/>
      <point x="376" y="91"/>
      <point x="344.5" y="25.0" type="qcurve" smooth="yes" name="inserted"/>
      <point x="313" y="-41"/>
      <point x="218" y="-167"/>
      <point x="153" y="-233" type="qcurve"/>
    </contour>
  </outline>
</glyph>
<glyph name="asterisk" format="1">
  <advance width="338"/>
  <unicode hex="002A"/>
  <outline>
    <contour>
      <point x="163" y="383" type="line"/>
      <point x="101" y="309" type="line"/>
      <point x="12" y="380" type="line"/>
      <point x="66" y="446" type="line"/>
      <point x="-12" y="472" type="line"/>
      <point x="19" y="584" type="line"/>
      <point x="107" y="555" type="line"/>
      <point x="107" y="642" type="line"/>
      <point x="223" y="642" type="line"/>
      <point x="223" y="557" type="line"/>
      <point x="248" y="566"/>
      <point x="296" y="582"/>
      <point x="311" y="588" type="qcurve"/>
      <point x="348" y="478" type="line"/>
      <point x="259" y="446" type="line"/>
      <point x="312" y="373" type="line"/>
      <point x="223" y="301" type="line"/>
    </contour>
  </outline>
</glyph>
<glyph name="plus" format="1">
  <advance width="691"/>
  <unicode hex="002B"/>
  <outline>
    <contour>
      <point x="369" y="254" type="line"/>
      <point x="369" y="15" type="line"/>
      <point x="253" y="15" type="line"/>
      <point x="253" y="254" type="line"/>
      <point x="20" y="254" type="line"/>
      <point x="20" y="370" type="line"/>
      <point x="253" y="370" type="line"/>
      <point x="253" y="578" type="line"/>
      <point x="369" y="578" type="line"/>
      <point x="369" y="370" type="line"/>
      <point x="593" y="370" type="line"/>
      <point x="593" y="254" type="line"/>
    </contour>
  </outline>
</glyph>
<glyph name="comma" format="1">
  <advance width="311"/>
  <unicode hex="002C"/>
  <outline>
    <contour>
      <point x="20" y="-43" type="line"/>
      <point x="160" y="189" type="line"/>
      <point x="263" y="136" type="line"/>
      <point x="123" y="-98" type="line"/>
    </contour>
  </outline>
</glyph>
<glyph name="slash" format="1">
  <advance width="509"/>
  <unicode hex="002F"/>
  <outline>
    <contour>
      <point x="-16" y="-56" type="line"/>
      <point x="377" y="787" type="line"/>
      <point x="503" y="787" type="line"/>
      <point x="110" y="-56" type="line"/>
    </contour>
  </outline>
</glyph>
<glyph name="zero" format="1">
  <advance width="750"/>
  <unicode hex="0030"/>
  <outline>
    <contour>
      <point x="356" y="-8" type="qcurve" smooth="yes"/>
      <point x="287" y="-8"/>
      <point x="182" y="46"/>
      <point x="147.0" y="92.5" type="qcurve" smooth="yes" name="inserted"/>
      <point x="112" y="139"/>
      <point x="77" y="265"/>
      <point x="78" y="337" type="qcurve" smooth="yes"/>
      <point x="76" y="411"/>
      <point x="110" y="542"/>
      <point x="145.0" y="591.0" type="qcurve" smooth="yes" name="inserted"/>
      <point x="180" y="640"/>
      <point x="285" y="697"/>
      <point x="356" y="697" type="qcurve" smooth="yes"/>
      <point x="425" y="697"/>
      <point x="529" y="641"/>
      <point x="563.5" y="592.5" type="qcurve" smooth="yes" name="inserted"/>
      <point x="598" y="544"/>
      <point x="633" y="415"/>
      <point x="633" y="343" type="qcurve" smooth="yes"/>
      <point x="633" y="271"/>
      <point x="598" y="143"/>
      <point x="563.5" y="95.5" type="qcurve" smooth="yes" name="inserted"/>
      <point x="529" y="48"/>
      <point x="425" y="-8"/>
    </contour>
    <contour>
      <point x="193" y="340" type="qcurve" smooth="yes"/>
      <point x="193" y="292"/>
      <point x="214" y="207"/>
      <point x="235.0" y="175.5" type="qcurve" smooth="yes" name="inserted"/>
      <point x="256" y="144"/>
      <point x="317" y="107"/>
      <point x="358" y="107" type="qcurve" smooth="yes"/>
      <point x="398" y="107"/>
      <point x="459" y="145"/>
      <point x="478.5" y="177.0" type="qcurve" smooth="yes" name="inserted"/>
      <point x="498" y="209"/>
      <point x="518" y="294"/>
      <point x="518" y="342" type="qcurve" smooth="yes"/>
      <point x="519" y="391"/>
      <point x="499" y="479"/>
      <point x="478.0" y="511.5" type="qcurve" smooth="yes" name="inserted"/>
      <point x="457" y="544"/>
      <point x="395" y="582"/>
      <point x="353" y="582" type="qcurve" smooth="yes"/>
      <point x="312" y="582"/>
      <point x="252" y="543"/>
      <point x="232.5" y="510.0" type="qcurve" smooth="yes" name="inserted"/>
      <point x="213" y="477"/>
      <point x="193" y="389"/>
    </contour>
  </outline>
</glyph>
<glyph name="one" format="1">
  <advance width="428"/>
  <unicode hex="0031"/>
  <outline>
    <contour>
      <point x="27" y="513" type="line"/>
      <point x="249" y="687" type="line"/>
      <point x="332" y="687" type="line"/>
      <point x="332" y="0" type="line"/>
      <point x="217" y="0" type="line"/>
      <point x="217" y="515" type="line"/>
      <point x="100" y="423" type="line"/>
    </contour>
  </outline>
</glyph>
<glyph name="two" format="1">
  <advance width="545"/>
  <unicode hex="0032"/>
  <outline>
    <contour>
      <point x="12" y="0" type="line"/>
      <point x="12" y="89" type="line"/>
      <point x="70" y="137"/>
      <point x="175" y="227"/>
      <point x="231" y="276" type="qcurve" smooth="yes"/>
      <point x="257" y="299"/>
      <point x="301" y="344"/>
      <point x="317.5" y="368.5" type="qcurve" smooth="yes" name="inserted"/>
      <point x="334" y="393"/>
      <point x="353" y="446"/>
      <point x="353" y="478" type="qcurve" smooth="yes"/>
      <point x="353" y="525"/>
      <point x="307" y="581"/>
      <point x="265" y="581" type="qcurve" smooth="yes"/>
      <point x="226" y="581"/>
      <point x="160" y="508"/>
      <point x="125" y="446" type="qcurve"/>
      <point x="33" y="518" type="line"/>
      <point x="79" y="600"/>
      <point x="188" y="696"/>
      <point x="265" y="696" type="qcurve" smooth="yes"/>
      <point x="313" y="696"/>
      <point x="388" y="665"/>
      <point x="413.5" y="637.0" type="qcurve" smooth="yes" name="inserted"/>
      <point x="439" y="609"/>
      <point x="466" y="529"/>
      <point x="466" y="481" type="qcurve" smooth="yes"/>
      <point x="466" y="433"/>
      <point x="442" y="353"/>
      <point x="421.0" y="318.5" type="qcurve" smooth="yes" name="inserted"/>
      <point x="400" y="284"/>
      <point x="342" y="222"/>
      <point x="308" y="192" type="qcurve" smooth="yes"/>
      <point x="285" y="171"/>
      <point x="271" y="157"/>
      <point x="267.5" y="153.0" type="qcurve" smooth="yes" name="inserted"/>
      <point x="264" y="149"/>
      <point x="247" y="136"/>
      <point x="221" y="115" type="qcurve"/>
      <point x="491" y="115" type="line"/>
      <point x="491" y="0" type="line"/>
    </contour>
  </outline>
</glyph>
<glyph name="three" format="1">
  <advance width="526"/>
  <unicode hex="0033"/>
  <outline>
    <contour>
      <point x="456" y="210" type="qcurve" smooth="yes"/>
      <point x="457" y="157"/>
      <point x="425" y="74"/>
      <point x="394.0" y="45.5" type="qcurve" smooth="yes" name="inserted"/>
      <point x="363" y="17"/>
      <point x="276" y="-13"/>
      <point x="223" y="-11" type="qcurve" smooth="yes"/>
      <point x="172" y="-11"/>
      <point x="70" y="30"/>
      <point x="5" y="73" type="qcurve"/>
      <point x="76" y="161" type="line"/>
      <point x="123" y="132"/>
      <point x="193" y="104"/>
      <point x="226" y="104" type="qcurve" smooth="yes"/>
      <point x="278" y="102"/>
      <point x="342" y="158"/>
      <point x="341" y="207" type="qcurve" smooth="yes"/>
      <point x="341" y="231"/>
      <point x="314" y="266"/>
      <point x="290.5" y="278.0" type="qcurve" smooth="yes" name="inserted"/>
      <point x="267" y="290"/>
      <point x="202" y="303"/>
      <point x="163" y="305" type="qcurve"/>
      <point x="163" y="418" type="line"/>
      <point x="196" y="419"/>
      <point x="251" y="430"/>
      <point x="271.0" y="440.0" type="qcurve" smooth="yes" name="inserted"/>
      <point x="291" y="450"/>
      <point x="314" y="479"/>
      <point x="314" y="499" type="qcurve" smooth="yes"/>
      <point x="314" y="538"/>
      <point x="264" y="582"/>
      <point x="222" y="582" type="qcurve" smooth="yes"/>
      <point x="193" y="582"/>
      <point x="135" y="539"/>
      <point x="98" y="494" type="qcurve"/>
      <point x="18" y="575" type="line"/>
      <point x="69" y="640"/>
      <point x="166" y="696"/>
      <point x="225" y="696" type="qcurve" smooth="yes"/>
      <point x="271" y="696"/>
      <point x="346" y="669"/>
      <point x="373.0" y="643.5" type="qcurve" smooth="yes" name="inserted"/>
      <point x="400" y="618"/>
      <point x="430" y="546"/>
      <point x="430" y="500" type="qcurve" smooth="yes"/>
      <point x="430" y="458"/>
      <point x="401" y="391"/>
      <point x="377" y="367" type="qcurve"/>
      <point x="415" y="342"/>
      <point x="456" y="265"/>
    </contour>
  </outline>
</glyph>
<glyph name="four" format="1">
  <advance width="690"/>
  <unicode hex="0034"/>
  <outline>
    <contour>
      <point x="354" y="483" type="line"/>
      <point x="336" y="463"/>
      <point x="309" y="433"/>
      <point x="294.5" y="416.5" type="qcurve" smooth="yes" name="inserted"/>
      <point x="280" y="400"/>
      <point x="244" y="361"/>
      <point x="219" y="332" type="qcurve"/>
      <point x="354" y="332" type="line"/>
    </contour>
    <contour>
      <point x="470" y="216" type="line"/>
      <point x="470" y="0" type="line"/>
      <point x="354" y="0" type="line"/>
      <point x="354" y="216" type="line"/>
      <point x="38" y="216" type="line"/>
      <point x="38" y="302" type="line"/>
      <point x="381" y="687" type="line"/>
      <point x="470" y="687" type="line"/>
      <point x="470" y="332" type="line"/>
      <point x="622" y="332" type="line"/>
      <point x="622" y="216" type="line"/>
    </contour>
  </outline>
</glyph>
<glyph name="five" format="1">
  <advance width="545"/>
  <unicode hex="0035"/>
  <outline>
    <contour>
      <point x="224" y="-8" type="qcurve" smooth="yes"/>
      <point x="200" y="-8"/>
      <point x="153" y="-2"/>
      <point x="128.0" y="5.5" type="qcurve" smooth="yes" name="inserted"/>
      <point x="103" y="13"/>
      <point x="47" y="38"/>
      <point x="14" y="57" type="qcurve"/>
      <point x="67" y="162" type="line"/>
      <point x="121" y="129"/>
      <point x="190" y="109"/>
      <point x="223" y="109" type="qcurve" smooth="yes"/>
      <point x="275" y="109"/>
      <point x="335" y="171"/>
      <point x="335" y="225" type="qcurve" smooth="yes"/>
      <point x="335" y="278"/>
      <point x="273" y="339"/>
      <point x="219" y="339" type="qcurve" smooth="yes"/>
      <point x="199" y="339"/>
      <point x="164" y="336"/>
      <point x="144" y="332" type="qcurve"/>
      <point x="72" y="332" type="line"/>
      <point x="72" y="687" type="line"/>
      <point x="441" y="687" type="line"/>
      <point x="441" y="571" type="line"/>
      <point x="188" y="571" type="line"/>
      <point x="188" y="453" type="line"/>
      <point x="197" y="454"/>
      <point x="210" y="454"/>
      <point x="221" y="454" type="qcurve" smooth="yes"/>
      <point x="273" y="454"/>
      <point x="358" y="422"/>
      <point x="388.0" y="392.5" type="qcurve" smooth="yes" name="inserted"/>
      <point x="418" y="363"/>
      <point x="451" y="278"/>
      <point x="451" y="225" type="qcurve" smooth="yes"/>
      <point x="451" y="172"/>
      <point x="420" y="86"/>
      <point x="390.5" y="55.5" type="qcurve" smooth="yes" name="inserted"/>
      <point x="361" y="25"/>
      <point x="277" y="-8"/>
    </contour>
  </outline>
</glyph>
<glyph name="six" format="1">
  <advance width="618"/>
  <unicode hex="0036"/>
  <outline>
    <contour>
      <point x="498" y="215" type="qcurve" smooth="yes"/>
      <point x="498" y="165"/>
      <point x="468" y="83"/>
      <point x="440.5" y="53.5" type="qcurve" smooth="yes" name="inserted"/>
      <point x="413" y="24"/>
      <point x="333" y="-8"/>
      <point x="284" y="-8" type="qcurve" smooth="yes"/>
      <point x="228" y="-9"/>
      <point x="141" y="27"/>
      <point x="111.0" y="61.0" type="qcurve" smooth="yes" name="inserted"/>
      <point x="81" y="95"/>
      <point x="49" y="189"/>
      <point x="49" y="246" type="qcurve" smooth="yes"/>
      <point x="49" y="338"/>
      <point x="111" y="484"/>
      <point x="168.5" y="541.0" type="qcurve" smooth="yes" name="inserted"/>
      <point x="226" y="598"/>
      <point x="388" y="680"/>
      <point x="487" y="709" type="qcurve"/>
      <point x="520" y="597" type="line"/>
      <point x="413" y="567"/>
      <point x="254" y="479"/>
      <point x="214" y="422" type="qcurve"/>
      <point x="231" y="427"/>
      <point x="263" y="431"/>
      <point x="283" y="431" type="qcurve" smooth="yes"/>
      <point x="333" y="431"/>
      <point x="413" y="401"/>
      <point x="440.5" y="372.5" type="qcurve" smooth="yes" name="inserted"/>
      <point x="468" y="344"/>
      <point x="498" y="264"/>
    </contour>
    <contour>
      <point x="286" y="109" type="qcurve" smooth="yes"/>
      <point x="331" y="109"/>
      <point x="382" y="166"/>
      <point x="382" y="214" type="qcurve" smooth="yes"/>
      <point x="382" y="261"/>
      <point x="328" y="316"/>
      <point x="282" y="316" type="qcurve" smooth="yes"/>
      <point x="239" y="316"/>
      <point x="180" y="271"/>
      <point x="163" y="233" type="qcurve"/>
      <point x="167" y="176"/>
      <point x="231" y="109"/>
    </contour>
  </outline>
</glyph>
<glyph name="seven" format="1">
  <advance width="581"/>
  <unicode hex="0037"/>
  <outline>
    <contour>
      <point x="30" y="571" type="line"/>
      <point x="30" y="687" type="line"/>
      <point x="516" y="687" type="line"/>
      <point x="516" y="607" type="line"/>
      <point x="160" y="0" type="line"/>
      <point x="28" y="0" type="line"/>
      <point x="360" y="571" type="line"/>
    </contour>
  </outline>
</glyph>
<glyph name="eight" format="1">
  <advance width="519"/>
  <unicode hex="0038"/>
  <outline>
    <contour>
      <point x="240" y="-8" type="qcurve" smooth="yes"/>
      <point x="192" y="-8"/>
      <point x="114" y="18"/>
      <point x="86.5" y="43.5" type="qcurve" smooth="yes" name="inserted"/>
      <point x="59" y="69"/>
      <point x="28" y="142"/>
      <point x="28" y="189" type="qcurve" smooth="yes"/>
      <point x="28" y="252"/>
      <point x="83" y="328"/>
      <point x="127" y="357" type="qcurve"/>
      <point x="89" y="384"/>
      <point x="43" y="458"/>
      <point x="43" y="515" type="qcurve" smooth="yes"/>
      <point x="43" y="558"/>
      <point x="71" y="625"/>
      <point x="97.0" y="648.0" type="qcurve" smooth="yes" name="inserted"/>
      <point x="123" y="671"/>
      <point x="194" y="695"/>
      <point x="238" y="695" type="qcurve" smooth="yes"/>
      <point x="283" y="695"/>
      <point x="358" y="671"/>
      <point x="385.0" y="647.5" type="qcurve" smooth="yes" name="inserted"/>
      <point x="412" y="624"/>
      <point x="442" y="556"/>
      <point x="442" y="512" type="qcurve" smooth="yes"/>
      <point x="442" y="456"/>
      <point x="396" y="384"/>
      <point x="359" y="358" type="qcurve"/>
      <point x="401" y="331"/>
      <point x="455" y="255"/>
      <point x="456" y="193" type="qcurve" smooth="yes"/>
      <point x="456" y="145"/>
      <point x="425" y="70"/>
      <point x="396.5" y="44.5" type="qcurve" smooth="yes" name="inserted"/>
      <point x="368" y="19"/>
      <point x="288" y="-8"/>
    </contour>
    <contour>
      <point x="157" y="516" type="qcurve" smooth="yes"/>
      <point x="157" y="482"/>
      <point x="206" y="440"/>
      <point x="243" y="420" type="qcurve"/>
      <point x="279" y="438"/>
      <point x="326" y="479"/>
      <point x="326" y="511" type="qcurve" smooth="yes"/>
      <point x="326" y="545"/>
      <point x="276" y="580"/>
      <point x="237" y="580" type="qcurve" smooth="yes"/>
      <point x="202" y="580"/>
      <point x="157" y="547"/>
    </contour>
    <contour>
      <point x="243" y="107" type="qcurve" smooth="yes"/>
      <point x="288" y="107"/>
      <point x="343" y="150"/>
      <point x="343" y="191" type="qcurve" smooth="yes"/>
      <point x="343" y="226"/>
      <point x="285" y="273"/>
      <point x="243" y="294" type="qcurve"/>
      <point x="201" y="273"/>
      <point x="144" y="227"/>
      <point x="144" y="189" type="qcurve"/>
      <point x="143" y="150"/>
      <point x="198" y="107"/>
    </contour>
  </outline>
</glyph>
<glyph name="nine" format="1">
  <advance width="581"/>
  <unicode hex="0039"/>
  <outline>
    <contour>
      <point x="35" y="91" type="line"/>
      <point x="138" y="121"/>
      <point x="289" y="199"/>
      <point x="331" y="252" type="qcurve"/>
      <point x="317.5" y="249.0" name="inserted"/>
      <point x="287.5" y="246.0"/>
      <point x="271" y="246" type="qcurve" smooth="yes"/>
      <point x="220" y="246"/>
      <point x="140" y="278"/>
      <point x="111.5" y="308.0" type="qcurve" smooth="yes" name="inserted"/>
      <point x="83" y="338"/>
      <point x="53" y="422"/>
      <point x="53" y="473" type="qcurve" smooth="yes"/>
      <point x="53" y="523"/>
      <point x="83" y="606"/>
      <point x="111.5" y="635.0" type="qcurve" smooth="yes" name="inserted"/>
      <point x="140" y="664"/>
      <point x="220" y="697"/>
      <point x="271" y="697" type="qcurve" smooth="yes"/>
      <point x="327" y="698"/>
      <point x="414" y="662"/>
      <point x="444.0" y="628.0" type="qcurve" smooth="yes" name="inserted"/>
      <point x="474" y="594"/>
      <point x="506" y="500"/>
      <point x="506" y="443" type="qcurve" smooth="yes"/>
      <point x="506" y="351"/>
      <point x="444" y="205"/>
      <point x="386.5" y="148.0" type="qcurve" smooth="yes" name="inserted"/>
      <point x="329" y="91"/>
      <point x="168" y="8"/>
      <point x="69" y="-20" type="qcurve"/>
    </contour>
    <contour>
      <point x="273" y="361" type="qcurve" smooth="yes"/>
      <point x="318" y="361"/>
      <point x="373" y="414"/>
      <point x="392" y="456" type="qcurve"/>
      <point x="388" y="513"/>
      <point x="324" y="580"/>
      <point x="269" y="580" type="qcurve" smooth="yes"/>
      <point x="222" y="580"/>
      <point x="169" y="522"/>
      <point x="169" y="473" type="qcurve" smooth="yes"/>
      <point x="169" y="422"/>
      <point x="224" y="361"/>
    </contour>
  </outline>
</glyph>
<glyph name="colon" format="1">
  <advance width="290"/>
  <unicode hex="003A"/>
  <outline>
    <contour>
      <point x="69" y="278" type="line"/>
      <point x="69" y="495" type="line"/>
      <point x="185" y="495" type="line"/>
      <point x="185" y="278" type="line"/>
    </contour>
    <contour>
      <point x="69" y="0" type="line"/>
      <point x="69" y="217" type="line"/>
      <point x="185" y="217" type="line"/>
      <point x="185" y="0" type="line"/>
    </contour>
  </outline>
</glyph>
<glyph name="semicolon" format="1">
  <advance width="400"/>
  <unicode hex="003B"/>
  <outline>
    <contour>
      <point x="164" y="278" type="line"/>
      <point x="164" y="495" type="line"/>
      <point x="280" y="495" type="line"/>
      <point x="280" y="278" type="line"/>
    </contour>
    <contour>
      <point x="60" y="-43" type="line"/>
      <point x="200" y="189" type="line"/>
      <point x="303" y="136" type="line"/>
      <point x="163" y="-98" type="line"/>
    </contour>
  </outline>
</glyph>
<glyph name="less" format="1">
  <advance width="691"/>
  <unicode hex="003C"/>
  <outline>
    <contour>
      <point x="14" y="252" type="line"/>
      <point x="14" y="335" type="line"/>
      <point x="609" y="598" type="line"/>
      <point x="609" y="473" type="line"/>
      <point x="207" y="295" type="line"/>
      <point x="309" y="251"/>
      <point x="520" y="160"/>
      <point x="617" y="119" type="qcurve"/>
      <point x="617" y="-5" type="line"/>
    </contour>
  </outline>
</glyph>
<glyph name="equal" format="1">
  <advance width="727"/>
  <unicode hex="003D"/>
  <outline>
    <contour>
      <point x="14" y="350" type="line"/>
      <point x="14" y="465" type="line"/>
      <point x="626" y="465" type="line"/>
      <point x="626" y="350" type="line"/>
    </contour>
    <contour>
      <point x="14" y="169" type="line"/>
      <point x="14" y="284" type="line"/>
      <point x="626" y="284" type="line"/>
      <point x="626" y="169" type="line"/>
    </contour>
  </outline>
</glyph>
<glyph name="greater" format="1">
  <advance width="691"/>
  <unicode hex="003E"/>
  <outline>
    <contour>
      <point x="21" y="119" type="line"/>
      <point x="424" y="298" type="line"/>
      <point x="321" y="342"/>
      <point x="110" y="433"/>
      <point x="13" y="473" type="qcurve"/>
      <point x="13" y="597" type="line"/>
      <point x="616" y="340" type="line"/>
      <point x="616" y="258" type="line"/>
      <point x="21" y="-6" type="line"/>
    </contour>
  </outline>
</glyph>
<glyph name="question" format="1">
  <advance width="394"/>
  <unicode hex="003F"/>
  <outline>
    <contour>
      <point x="68" y="180" type="line"/>
      <point x="68" y="370" type="line"/>
      <point x="138" y="370"/>
      <point x="226" y="425"/>
      <point x="226" y="472" type="qcurve" smooth="yes"/>
      <point x="226" y="513"/>
      <point x="174" y="562"/>
      <point x="131" y="562" type="qcurve" smooth="yes"/>
      <point x="120" y="562"/>
      <point x="74" y="548"/>
      <point x="38" y="535" type="qcurve"/>
      <point x="1" y="646" type="line"/>
      <point x="45" y="660"/>
      <point x="108" y="677"/>
      <point x="133" y="677" type="qcurve" smooth="yes"/>
      <point x="179" y="677"/>
      <point x="255" y="648"/>
      <point x="282.0" y="621.0" type="qcurve" smooth="yes" name="inserted"/>
      <point x="309" y="594"/>
      <point x="339" y="519"/>
      <point x="339" y="473" type="qcurve" smooth="yes"/>
      <point x="339" y="392"/>
      <point x="256" y="281"/>
      <point x="184" y="263" type="qcurve"/>
      <point x="184" y="180" type="line"/>
    </contour>
    <contour>
      <point x="68" y="0" type="line"/>
      <point x="68" y="204" type="line"/>
      <point x="184" y="204" type="line"/>
      <point x="184" y="0" type="line"/>
    </contour>
  </outline>
</glyph>
<glyph name="at" format="1">
  <advance width="836"/>
  <unicode hex="0040"/>
  <outline>
    <contour>
      <point x="399" y="-114" type="qcurve" smooth="yes"/>
      <point x="322" y="-114"/>
      <point x="199" y="-67"/>
      <point x="155.5" y="-23.5" type="qcurve" smooth="yes" name="inserted"/>
      <point x="112" y="20"/>
      <point x="65" y="143"/>
      <point x="65" y="220" type="qcurve" smooth="yes"/>
      <point x="65" y="297"/>
      <point x="112" y="420"/>
      <point x="156.0" y="463.0" type="qcurve" smooth="yes" name="inserted"/>
      <point x="200" y="506"/>
      <point x="324" y="552"/>
      <point x="402" y="552" type="qcurve" smooth="yes"/>
      <point x="475" y="552"/>
      <point x="591" y="506"/>
      <point x="631.0" y="463.5" type="qcurve" smooth="yes" name="inserted"/>
      <point x="671" y="421"/>
      <point x="713" y="301"/>
      <point x="713" y="228" type="qcurve" smooth="yes"/>
      <point x="713" y="171"/>
      <point x="681" y="80"/>
      <point x="645" y="57" type="qcurve"/>
      <point x="681" y="13" type="line"/>
      <point x="607" y="-52"/>
      <point x="476" y="-114"/>
    </contour>
    <contour>
      <point x="403" y="-1" type="qcurve" smooth="yes"/>
      <point x="435" y="-1"/>
      <point x="497" y="21"/>
      <point x="530" y="42" type="qcurve"/>
      <point x="517.0" y="46.0" name="inserted"/>
      <point x="497.0" y="56.5"/>
      <point x="490" y="63" type="qcurve"/>
      <point x="469" y="43"/>
      <point x="421" y="28"/>
      <point x="385" y="28" type="qcurve" smooth="yes"/>
      <point x="342" y="28"/>
      <point x="276" y="57"/>
      <point x="254.0" y="83.5" type="qcurve" smooth="yes" name="inserted"/>
      <point x="232" y="110"/>
      <point x="209" y="183"/>
      <point x="209" y="227" type="qcurve" smooth="yes"/>
      <point x="209" y="312"/>
      <point x="303" y="415"/>
      <point x="388" y="415" type="qcurve" smooth="yes"/>
      <point x="469" y="415"/>
      <point x="556" y="314"/>
      <point x="556" y="232" type="qcurve" smooth="yes"/>
      <point x="556" y="200"/>
      <point x="560" y="151"/>
      <point x="570" y="151" type="qcurve" smooth="yes"/>
      <point x="587" y="151"/>
      <point x="598" y="194"/>
      <point x="598" y="226" type="qcurve" smooth="yes"/>
      <point x="598" y="323"/>
      <point x="493" y="439"/>
      <point x="399" y="439" type="qcurve" smooth="yes"/>
      <point x="298" y="439"/>
      <point x="181" y="323"/>
      <point x="181" y="222" type="qcurve" smooth="yes"/>
      <point x="181" y="119"/>
      <point x="299" y="-1"/>
    </contour>
    <contour>
      <point x="387" y="142" type="qcurve" smooth="yes"/>
      <point x="410" y="142"/>
      <point x="436" y="173"/>
      <point x="442" y="200" type="qcurve"/>
      <point x="442" y="231" type="line" smooth="yes"/>
      <point x="442" y="263"/>
      <point x="412" y="301"/>
      <point x="385" y="301" type="qcurve" smooth="yes"/>
      <point x="356" y="301"/>
      <point x="325" y="260"/>
      <point x="325" y="228" type="qcurve" smooth="yes"/>
      <point x="325" y="190"/>
      <point x="356" y="142"/>
    </contour>
  </outline>
</glyph>
<glyph name="A" format="1">
  <advance width="654"/>
  <unicode hex="0041"/>
  <outline>
    <contour>
      <point x="315" y="507" type="line"/>
      <point x="301" y="473"/>
      <point x="273" y="405"/>
      <point x="253" y="357" type="qcurve"/>
      <point x="371" y="357" type="line"/>
    </contour>
    <contour>
      <point x="417" y="236" type="line"/>
      <point x="202" y="236" type="line"/>
      <point x="179" y="179"/>
      <point x="127" y="52"/>
      <point x="105" y="0" type="qcurve"/>
      <point x="-27" y="0" type="line"/>
      <point x="274" y="722" type="line"/>
      <point x="363" y="722" type="line"/>
      <point x="633" y="1" type="line"/>
      <point x="504" y="1" type="line"/>
    </contour>
  </outline>
</glyph>
<glyph name="B" format="1">
  <advance width="618"/>
  <unicode hex="0042"/>
  <outline>
    <contour>
      <point x="197" y="600" type="line"/>
      <point x="197" y="455" type="line"/>
      <point x="269" y="455" type="line" smooth="yes"/>
      <point x="315" y="455"/>
      <point x="376" y="489"/>
      <point x="376" y="524" type="qcurve" smooth="yes"/>
      <point x="376" y="562"/>
      <point x="322" y="600"/>
      <point x="280" y="600" type="qcurve" smooth="yes"/>
    </contour>
    <contour>
      <point x="197" y="336" type="line"/>
      <point x="197" y="121" type="line"/>
      <point x="281" y="121" type="line" smooth="yes"/>
      <point x="341" y="121"/>
      <point x="419" y="174"/>
      <point x="417" y="226" type="qcurve" smooth="yes"/>
      <point x="417" y="282"/>
      <point x="334" y="336"/>
      <point x="269" y="336" type="qcurve" smooth="yes"/>
    </contour>
    <contour>
      <point x="74" y="722" type="line"/>
      <point x="282" y="722" type="line" smooth="yes"/>
      <point x="330" y="722"/>
      <point x="410" y="696"/>
      <point x="438.5" y="671.5" type="qcurve" smooth="yes" name="inserted"/>
      <point x="467" y="647"/>
      <point x="498" y="574"/>
      <point x="498" y="526" type="qcurve" smooth="yes"/>
      <point x="498" y="487"/>
      <point x="474" y="426"/>
      <point x="453" y="403" type="qcurve"/>
      <point x="494" y="375"/>
      <point x="538" y="290"/>
      <point x="538" y="230" type="qcurve" smooth="yes"/>
      <point x="539" y="174"/>
      <point x="502" y="88"/>
      <point x="468.0" y="59.0" type="qcurve" smooth="yes" name="inserted"/>
      <point x="434" y="30"/>
      <point x="338" y="0"/>
      <point x="281" y="0" type="qcurve" smooth="yes"/>
      <point x="74" y="0" type="line"/>
    </contour>
  </outline>
</glyph>
<glyph name="C" format="1">
  <advance width="727"/>
  <unicode hex="0043"/>
  <outline>
    <contour>
      <point x="66" y="346" type="qcurve" smooth="yes"/>
      <point x="66" y="430"/>
      <point x="107" y="571"/>
      <point x="148.5" y="621.5" type="qcurve" smooth="yes" name="inserted"/>
      <point x="190" y="672"/>
      <point x="312" y="729"/>
      <point x="393" y="729" type="qcurve" smooth="yes"/>
      <point x="428" y="729"/>
      <point x="494" y="717"/>
      <point x="527.0" y="704.5" type="qcurve" smooth="yes" name="inserted"/>
      <point x="560" y="692"/>
      <point x="631" y="651"/>
      <point x="671" y="623" type="qcurve"/>
      <point x="604" y="522" type="line"/>
      <point x="572" y="546"/>
      <point x="517" y="578"/>
      <point x="491.5" y="588.5" type="qcurve" smooth="yes" name="inserted"/>
      <point x="466" y="599"/>
      <point x="417" y="608"/>
      <point x="391" y="608" type="qcurve" smooth="yes"/>
      <point x="340" y="608"/>
      <point x="264" y="569"/>
      <point x="238.5" y="534.5" type="qcurve" smooth="yes" name="inserted"/>
      <point x="213" y="500"/>
      <point x="188" y="404"/>
      <point x="188" y="347" type="qcurve" smooth="yes"/>
      <point x="188" y="296"/>
      <point x="212" y="210"/>
      <point x="235.5" y="179.0" type="qcurve" smooth="yes" name="inserted"/>
      <point x="259" y="148"/>
      <point x="329" y="113"/>
      <point x="376" y="113" type="qcurve" smooth="yes"/>
      <point x="431" y="113"/>
      <point x="533" y="164"/>
      <point x="595" y="224" type="qcurve"/>
      <point x="671" y="128" type="line"/>
      <point x="632" y="92"/>
      <point x="560" y="40"/>
      <point x="524.5" y="23.5" type="qcurve" smooth="yes" name="inserted"/>
      <point x="489" y="7"/>
      <point x="415" y="-8"/>
      <point x="375" y="-8" type="qcurve" smooth="yes"/>
      <point x="299" y="-8"/>
      <point x="183" y="44"/>
      <point x="144.0" y="91.0" type="qcurve" smooth="yes" name="inserted"/>
      <point x="105" y="138"/>
      <point x="66" y="268"/>
    </contour>
  </outline>
</glyph>
<glyph name="D" format="1">
  <advance width="724"/>
  <unicode hex="0044"/>
  <outline>
    <contour>
      <point x="200" y="600" type="line"/>
      <point x="200" y="122" type="line"/>
      <point x="305" y="122" type="line" smooth="yes"/>
      <point x="354" y="122"/>
      <point x="431" y="154"/>
      <point x="457.5" y="184.0" type="qcurve" smooth="yes" name="inserted"/>
      <point x="484" y="214"/>
      <point x="512" y="297"/>
      <point x="512" y="348" type="qcurve" smooth="yes"/>
      <point x="512" y="404"/>
      <point x="483" y="497"/>
      <point x="455.0" y="530.0" type="qcurve" smooth="yes" name="inserted"/>
      <point x="427" y="563"/>
      <point x="344" y="600"/>
      <point x="291" y="600" type="qcurve" smooth="yes"/>
    </contour>
    <contour>
      <point x="78" y="722" type="line"/>
      <point x="292" y="722" type="line" smooth="yes"/>
      <point x="374" y="722"/>
      <point x="501" y="668"/>
      <point x="544.5" y="619.0" type="qcurve" smooth="yes" name="inserted"/>
      <point x="588" y="570"/>
      <point x="634" y="433"/>
      <point x="634" y="349" type="qcurve" smooth="yes"/>
      <point x="634" y="270"/>
      <point x="589" y="141"/>
      <point x="546.5" y="95.5" type="qcurve" smooth="yes" name="inserted"/>
      <point x="504" y="50"/>
      <point x="381" y="0"/>
      <point x="303" y="0" type="qcurve" smooth="yes"/>
      <point x="78" y="0" type="line"/>
    </contour>
  </outline>
</glyph>
<glyph name="E" format="1">
  <advance width="582"/>
  <unicode hex="0045"/>
  <outline>
    <contour>
      <point x="41" y="722" type="line"/>
      <point x="492" y="722" type="line"/>
      <point x="492" y="601" type="line"/>
      <point x="163" y="601" type="line"/>
      <point x="163" y="432" type="line"/>
      <point x="438" y="432" type="line"/>
      <point x="438" y="310" type="line"/>
      <point x="163" y="310" type="line"/>
      <point x="163" y="122" type="line"/>
      <point x="522" y="122" type="line"/>
      <point x="522" y="0" type="line"/>
      <point x="41" y="0" type="line"/>
    </contour>
  </outline>
</glyph>
<glyph name="F" format="1">
  <advance width="581"/>
  <unicode hex="0046"/>
  <outline>
    <contour>
      <point x="196" y="310" type="line"/>
      <point x="196" y="0" type="line"/>
      <point x="75" y="0" type="line"/>
      <point x="75" y="722" type="line"/>
      <point x="529" y="722" type="line"/>
      <point x="529" y="601" type="line"/>
      <point x="196" y="601" type="line"/>
      <point x="196" y="432" type="line"/>
      <point x="466" y="432" type="line"/>
      <point x="466" y="310" type="line"/>
    </contour>
  </outline>
</glyph>
<glyph name="G" format="1">
  <advance width="836"/>
  <unicode hex="0047"/>
  <outline>
    <contour>
      <point x="677" y="73" type="line"/>
      <point x="643" y="53"/>
      <point x="581" y="24"/>
      <point x="549.5" y="13.5" type="qcurve" smooth="yes" name="inserted"/>
      <point x="518" y="3"/>
      <point x="450" y="-7"/>
      <point x="410" y="-7" type="qcurve" smooth="yes"/>
      <point x="328" y="-7"/>
      <point x="200" y="46"/>
      <point x="156.5" y="95.0" type="qcurve" smooth="yes" name="inserted"/>
      <point x="113" y="144"/>
      <point x="67" y="280"/>
      <point x="67" y="364" type="qcurve" smooth="yes"/>
      <point x="67" y="446"/>
      <point x="111" y="581"/>
      <point x="153.5" y="629.0" type="qcurve" smooth="yes" name="inserted"/>
      <point x="196" y="677"/>
      <point x="320" y="729"/>
      <point x="400" y="729" type="qcurve" smooth="yes"/>
      <point x="440" y="729"/>
      <point x="512" y="718"/>
      <point x="548.5" y="706.0" type="qcurve" smooth="yes" name="inserted"/>
      <point x="585" y="694"/>
      <point x="662" y="655"/>
      <point x="706" y="628" type="qcurve"/>
      <point x="650" y="519" type="line"/>
      <point x="611" y="543"/>
      <point x="546" y="576"/>
      <point x="516.5" y="586.5" type="qcurve" smooth="yes" name="inserted"/>
      <point x="487" y="597"/>
      <point x="431" y="607"/>
      <point x="401" y="607" type="qcurve" smooth="yes"/>
      <point x="350" y="607"/>
      <point x="271" y="572"/>
      <point x="244.5" y="540.5" type="qcurve" smooth="yes" name="inserted"/>
      <point x="218" y="509"/>
      <point x="190" y="421"/>
      <point x="190" y="367" type="qcurve" smooth="yes"/>
      <point x="190" y="310"/>
      <point x="219" y="217"/>
      <point x="247.5" y="183.5" type="qcurve" smooth="yes" name="inserted"/>
      <point x="276" y="150"/>
      <point x="359" y="114"/>
      <point x="412" y="114" type="qcurve" smooth="yes"/>
      <point x="463" y="114"/>
      <point x="541" y="135"/>
      <point x="582" y="155" type="qcurve"/>
      <point x="582" y="254" type="line"/>
      <point x="404" y="254" type="line"/>
      <point x="404" y="376" type="line"/>
      <point x="703" y="376" type="line"/>
      <point x="703" y="117" type="line"/>
    </contour>
  </outline>
</glyph>
<glyph name="H" format="1">
  <advance width="800"/>
  <unicode hex="0048"/>
  <outline>
    <contour>
      <point x="530" y="301" type="line"/>
      <point x="219" y="301" type="line"/>
      <point x="219" y="0" type="line"/>
      <point x="97" y="0" type="line"/>
      <point x="97" y="722" type="line"/>
      <point x="219" y="722" type="line"/>
      <point x="219" y="423" type="line"/>
      <point x="530" y="423" type="line"/>
      <point x="530" y="722" type="line"/>
      <point x="652" y="722" type="line"/>
      <point x="652" y="0" type="line"/>
      <point x="530" y="0" type="line"/>
    </contour>
  </outline>
</glyph>
<glyph name="J" format="1">
  <advance width="436"/>
  <unicode hex="004A"/>
  <outline>
    <contour>
      <point x="94" y="-7" type="line"/>
      <point x="123" y="-34"/>
      <point x="159" y="-61"/>
      <point x="170" y="-61" type="qcurve" smooth="yes"/>
      <point x="205" y="-61"/>
      <point x="236" y="3"/>
      <point x="236" y="51" type="qcurve" smooth="yes"/>
      <point x="236" y="722" type="line"/>
      <point x="358" y="722" type="line"/>
      <point x="358" y="51" type="line" smooth="yes"/>
      <point x="358" y="1"/>
      <point x="335" y="-84"/>
      <point x="312.0" y="-115.0" type="qcurve" smooth="yes" name="inserted"/>
      <point x="289" y="-146"/>
      <point x="217" y="-182"/>
      <point x="168" y="-182" type="qcurve" smooth="yes"/>
      <point x="129" y="-182"/>
      <point x="53" y="-138"/>
      <point x="5" y="-92" type="qcurve"/>
    </contour>
  </outline>
</glyph>
<glyph name="K" format="1">
  <advance width="654"/>
  <unicode hex="004B"/>
  <outline>
    <contour>
      <point x="208" y="254" type="line"/>
      <point x="208" y="0" type="line"/>
      <point x="86" y="0" type="line"/>
      <point x="86" y="722" type="line"/>
      <point x="208" y="722" type="line"/>
      <point x="208" y="496" type="line"/>
      <point x="479" y="722" type="line"/>
      <point x="664" y="722" type="line"/>
      <point x="253" y="376" type="line"/>
      <point x="301" y="334"/>
      <point x="414" y="234"/>
      <point x="471.5" y="183.0" type="qcurve" smooth="yes" name="inserted"/>
      <point x="529" y="132"/>
      <point x="636" y="37"/>
      <point x="678" y="0" type="qcurve"/>
      <point x="497" y="0" type="line"/>
    </contour>
  </outline>
</glyph>
<glyph name="L" format="1">
  <advance width="618"/>
  <unicode hex="004C"/>
  <outline>
    <contour>
      <point x="74" y="722" type="line"/>
      <point x="196" y="722" type="line"/>
      <point x="196" y="122" type="line"/>
      <point x="548" y="122" type="line"/>
      <point x="548" y="0" type="line"/>
      <point x="74" y="0" type="line"/>
    </contour>
  </outline>
</glyph>
<glyph name="M" format="1">
  <advance width="909"/>
  <unicode hex="004D"/>
  <outline>
    <contour>
      <point x="212" y="402" type="line"/>
      <point x="179" y="0" type="line"/>
      <point x="57" y="0" type="line"/>
      <point x="115" y="722" type="line"/>
      <point x="217" y="722" type="line"/>
      <point x="418" y="213" type="line"/>
      <point x="615" y="722" type="line"/>
      <point x="716" y="722" type="line"/>
      <point x="778" y="0" type="line"/>
      <point x="656" y="0" type="line"/>
      <point x="621" y="402" type="line"/>
      <point x="467" y="0" type="line"/>
      <point x="370" y="0" type="line"/>
    </contour>
  </outline>
</glyph>
<glyph name="N" format="1">
  <advance width="800"/>
  <unicode hex="004E"/>
  <outline>
    <contour>
      <point x="204" y="490" type="line"/>
      <point x="204" y="0" type="line"/>
      <point x="82" y="0" type="line"/>
      <point x="82" y="722" type="line"/>
      <point x="181" y="722" type="line"/>
      <point x="545" y="232" type="line"/>
      <point x="545" y="722" type="line"/>
      <point x="667" y="722" type="line"/>
      <point x="667" y="0" type="line"/>
      <point x="567" y="0" type="line"/>
    </contour>
  </outline>
</glyph>
<glyph name="O" format="1">
  <advance width="800"/>
  <unicode hex="004F"/>
  <outline>
    <contour>
      <point x="375" y="-5" type="qcurve" smooth="yes"/>
      <point x="300" y="-5"/>
      <point x="183" y="50"/>
      <point x="144.0" y="98.5" type="qcurve" smooth="yes" name="inserted"/>
      <point x="105" y="147"/>
      <point x="65" y="280"/>
      <point x="66" y="358" type="qcurve" smooth="yes"/>
      <point x="64" y="436"/>
      <point x="104" y="572"/>
      <point x="143.5" y="621.5" type="qcurve" smooth="yes" name="inserted"/>
      <point x="183" y="671"/>
      <point x="300" y="727"/>
      <point x="375" y="727" type="qcurve" smooth="yes"/>
      <point x="450" y="727"/>
      <point x="565" y="671"/>
      <point x="604.0" y="622.5" type="qcurve" smooth="yes" name="inserted"/>
      <point x="643" y="574"/>
      <point x="683" y="441"/>
      <point x="683" y="364" type="qcurve" smooth="yes"/>
      <point x="683" y="286"/>
      <point x="643" y="151"/>
      <point x="604.0" y="101.5" type="qcurve" smooth="yes" name="inserted"/>
      <point x="565" y="52"/>
      <point x="450" y="-5"/>
    </contour>
    <contour>
      <point x="187" y="360" type="qcurve" smooth="yes"/>
      <point x="187" y="308"/>
      <point x="212" y="219"/>
      <point x="236.0" y="186.0" type="qcurve" smooth="yes" name="inserted"/>
      <point x="260" y="153"/>
      <point x="331" y="116"/>
      <point x="378" y="116" type="qcurve" smooth="yes"/>
      <point x="423" y="116"/>
      <point x="492" y="154"/>
      <point x="515.5" y="187.5" type="qcurve" smooth="yes" name="inserted"/>
      <point x="539" y="221"/>
      <point x="562" y="311"/>
      <point x="562" y="363" type="qcurve" smooth="yes"/>
      <point x="563" y="415"/>
      <point x="538" y="504"/>
      <point x="514.0" y="537.0" type="qcurve" smooth="yes" name="inserted"/>
      <point x="490" y="570"/>
      <point x="419" y="606"/>
      <point x="373" y="606" type="qcurve" smooth="yes"/>
      <point x="327" y="606"/>
      <point x="258" y="568"/>
      <point x="234.5" y="535.0" type="qcurve" smooth="yes" name="inserted"/>
      <point x="211" y="502"/>
      <point x="187" y="412"/>
    </contour>
  </outline>
</glyph>
<glyph name="P" format="1">
  <advance width="477"/>
  <unicode hex="0050"/>
  <outline>
    <contour>
      <point x="202" y="361" type="qcurve" smooth="yes"/>
      <point x="254" y="361"/>
      <point x="317" y="422"/>
      <point x="317" y="473" type="qcurve" smooth="yes"/>
      <point x="317" y="533"/>
      <point x="240" y="601"/>
      <point x="177" y="601" type="qcurve" smooth="yes"/>
      <point x="128" y="601" type="line"/>
      <point x="128" y="378" type="line"/>
      <point x="147" y="370"/>
      <point x="181" y="361"/>
    </contour>
    <contour>
      <point x="201" y="240" type="qcurve" smooth="yes"/>
      <point x="180" y="240"/>
      <point x="146" y="245"/>
      <point x="128" y="250" type="qcurve"/>
      <point x="128" y="0" type="line"/>
      <point x="6" y="0" type="line"/>
      <point x="6" y="722" type="line"/>
      <point x="180" y="722" type="line" smooth="yes"/>
      <point x="237" y="722"/>
      <point x="333" y="688"/>
      <point x="367.0" y="655.5" type="qcurve" smooth="yes" name="inserted"/>
      <point x="401" y="623"/>
      <point x="439" y="532"/>
      <point x="439" y="475" type="qcurve" smooth="yes"/>
      <point x="439" y="422"/>
      <point x="405" y="336"/>
      <point x="373.5" y="305.5" type="qcurve" smooth="yes" name="inserted"/>
      <point x="342" y="275"/>
      <point x="255" y="241"/>
    </contour>
  </outline>
</glyph>
<glyph name="Q" format="1">
  <advance width="836"/>
  <unicode hex="0051"/>
  <outline>
    <contour>
      <point x="724" y="-206" type="line"/>
      <point x="660" y="-204"/>
      <point x="546" y="-173"/>
      <point x="492" y="-141" type="qcurve" smooth="yes"/>
      <point x="447" y="-112"/>
      <point x="379" y="-45"/>
      <point x="350" y="-4" type="qcurve"/>
      <point x="281" y="1"/>
      <point x="176" y="59"/>
      <point x="140.0" y="107.0" type="qcurve" smooth="yes" name="inserted"/>
      <point x="104" y="155"/>
      <point x="69" y="283"/>
      <point x="71" y="358" type="qcurve"/>
      <point x="69" y="437"/>
      <point x="108" y="572"/>
      <point x="147.0" y="621.5" type="qcurve" smooth="yes" name="inserted"/>
      <point x="186" y="671"/>
      <point x="303" y="727"/>
      <point x="379" y="727" type="qcurve" smooth="yes"/>
      <point x="454" y="727"/>
      <point x="569" y="672"/>
      <point x="608.0" y="623.0" type="qcurve" smooth="yes" name="inserted"/>
      <point x="647" y="574"/>
      <point x="687" y="442"/>
      <point x="687" y="364" type="qcurve" smooth="yes"/>
      <point x="687" y="302"/>
      <point x="662" y="191"/>
      <point x="637.5" y="145.5" type="qcurve" smooth="yes" name="inserted"/>
      <point x="613" y="100"/>
      <point x="540" y="33"/>
      <point x="492" y="15" type="qcurve"/>
      <point x="506" y="-2"/>
      <point x="538" y="-28"/>
      <point x="558" y="-41" type="qcurve"/>
      <point x="558" y="-40" type="line"/>
      <point x="600" y="-66"/>
      <point x="710" y="-84"/>
      <point x="787" y="-87" type="qcurve"/>
      <point x="776" y="-161" type="line"/>
    </contour>
    <contour>
      <point x="191" y="361" type="qcurve" smooth="yes"/>
      <point x="191" y="308"/>
      <point x="216" y="219"/>
      <point x="240.0" y="186.0" type="qcurve" smooth="yes" name="inserted"/>
      <point x="264" y="153"/>
      <point x="335" y="116"/>
      <point x="382" y="116" type="qcurve" smooth="yes"/>
      <point x="428" y="116"/>
      <point x="497" y="154"/>
      <point x="520.0" y="187.0" type="qcurve" smooth="yes" name="inserted"/>
      <point x="543" y="220"/>
      <point x="566" y="310"/>
      <point x="566" y="363" type="qcurve" smooth="yes"/>
      <point x="567" y="415"/>
      <point x="543" y="504"/>
      <point x="519.0" y="537.0" type="qcurve" smooth="yes" name="inserted"/>
      <point x="495" y="570"/>
      <point x="423" y="606"/>
      <point x="377" y="606" type="qcurve" smooth="yes"/>
      <point x="331" y="606"/>
      <point x="262" y="569"/>
      <point x="238.5" y="536.0" type="qcurve" smooth="yes" name="inserted"/>
      <point x="215" y="503"/>
      <point x="191" y="413"/>
    </contour>
  </outline>
</glyph>
<glyph name="R" format="1">
  <advance width="638"/>
  <unicode hex="0052"/>
  <outline>
    <contour>
      <point x="176" y="601" type="line"/>
      <point x="176" y="412" type="line"/>
      <point x="242" y="412" type="line" smooth="yes"/>
      <point x="301" y="412"/>
      <point x="379" y="462"/>
      <point x="379" y="510" type="qcurve" smooth="yes"/>
      <point x="379" y="555"/>
      <point x="304" y="601"/>
      <point x="249" y="601" type="qcurve" smooth="yes"/>
    </contour>
    <contour>
      <point x="176" y="0" type="line"/>
      <point x="54" y="0" type="line"/>
      <point x="54" y="722" type="line"/>
      <point x="253" y="722" type="line" smooth="yes"/>
      <point x="305" y="722"/>
      <point x="396" y="695"/>
      <point x="429.5" y="669.0" type="qcurve" smooth="yes" name="inserted"/>
      <point x="463" y="643"/>
      <point x="501" y="564"/>
      <point x="501" y="513" type="qcurve" smooth="yes"/>
      <point x="501.0" y="446.0" name="inserted"/>
      <point x="447.0" y="353.0"/>
      <point x="393" y="327" type="qcurve"/>
      <point x="657" y="0" type="line"/>
      <point x="501" y="0" type="line"/>
      <point x="266" y="291" type="line"/>
      <point x="176" y="291" type="line"/>
    </contour>
  </outline>
</glyph>
<glyph name="S" format="1">
  <advance width="539"/>
  <unicode hex="0053"/>
  <outline>
    <contour>
      <point x="52" y="184" type="line"/>
      <point x="109" y="147"/>
      <point x="191" y="112"/>
      <point x="229" y="112" type="qcurve" smooth="yes"/>
      <point x="281" y="112"/>
      <point x="351" y="154"/>
      <point x="351" y="196" type="qcurve" smooth="yes"/>
      <point x="351" y="219"/>
      <point x="328" y="254"/>
      <point x="308.5" y="268.5" type="qcurve" smooth="yes" name="inserted"/>
      <point x="289" y="283"/>
      <point x="239" y="308"/>
      <point x="211" y="322" type="qcurve" smooth="yes"/>
      <point x="174" y="340"/>
      <point x="108" y="377"/>
      <point x="83.5" y="401.0" type="qcurve" smooth="yes" name="inserted"/>
      <point x="59" y="425"/>
      <point x="30" y="489"/>
      <point x="30" y="534" type="qcurve" smooth="yes"/>
      <point x="30" y="581"/>
      <point x="61" y="654"/>
      <point x="89.0" y="679.5" type="qcurve" smooth="yes" name="inserted"/>
      <point x="117" y="705"/>
      <point x="195" y="731"/>
      <point x="242" y="731" type="qcurve" smooth="yes"/>
      <point x="298" y="731"/>
      <point x="408" y="687"/>
      <point x="478" y="647" type="qcurve"/>
      <point x="417" y="545" type="line"/>
      <point x="361" y="577"/>
      <point x="279" y="610"/>
      <point x="241" y="610" type="qcurve" smooth="yes"/>
      <point x="201" y="610"/>
      <point x="152" y="569"/>
      <point x="152" y="534" type="qcurve" smooth="yes"/>
      <point x="152" y="514"/>
      <point x="172" y="484"/>
      <point x="189.0" y="471.0" type="qcurve" smooth="yes" name="inserted"/>
      <point x="206" y="458"/>
      <point x="251" y="436"/>
      <point x="275" y="424" type="qcurve" smooth="yes"/>
      <point x="315" y="405"/>
      <point x="387" y="365"/>
      <point x="414.0" y="338.5" type="qcurve" smooth="yes" name="inserted"/>
      <point x="441" y="312"/>
      <point x="472" y="244"/>
      <point x="472" y="196" type="qcurve" smooth="yes"/>
      <point x="472" y="144"/>
      <point x="434" y="67"/>
      <point x="401.0" y="41.5" type="qcurve" smooth="yes" name="inserted"/>
      <point x="368" y="16"/>
      <point x="278" y="-9"/>
      <point x="226" y="-9" type="qcurve" smooth="yes"/>
      <point x="169" y="-9"/>
      <point x="61" y="33"/>
      <point x="-9" y="75" type="qcurve"/>
    </contour>
  </outline>
</glyph>
<glyph name="T" format="1">
  <advance width="692"/>
  <unicode hex="0054"/>
  <outline>
    <contour>
      <point x="374" y="600" type="line"/>
      <point x="374" y="0" type="line"/>
      <point x="252" y="0" type="line"/>
      <point x="252" y="600" type="line"/>
      <point x="10" y="600" type="line"/>
      <point x="10" y="722" type="line"/>
      <point x="630" y="722" type="line"/>
      <point x="630" y="600" type="line"/>
    </contour>
  </outline>
</glyph>
<glyph name="U" format="1">
  <advance width="763"/>
  <unicode hex="0055"/>
  <outline>
    <contour>
      <point x="75" y="722" type="line"/>
      <point x="197" y="722" type="line"/>
      <point x="197" y="296" type="line" smooth="yes"/>
      <point x="197" y="215"/>
      <point x="279" y="117"/>
      <point x="355" y="117" type="qcurve" smooth="yes"/>
      <point x="427" y="117"/>
      <point x="504" y="207"/>
      <point x="504" y="282" type="qcurve" smooth="yes"/>
      <point x="504" y="722" type="line"/>
      <point x="625" y="722" type="line"/>
      <point x="625" y="286" type="line" smooth="yes"/>
      <point x="625" y="220"/>
      <point x="588" y="113"/>
      <point x="553.0" y="75.0" type="qcurve" smooth="yes" name="inserted"/>
      <point x="518" y="37"/>
      <point x="417" y="-5"/>
      <point x="352" y="-5" type="qcurve" smooth="yes"/>
      <point x="286" y="-5"/>
      <point x="183" y="38"/>
      <point x="147.5" y="77.0" type="qcurve" smooth="yes" name="inserted"/>
      <point x="112" y="116"/>
      <point x="75" y="225"/>
      <point x="75" y="292" type="qcurve" smooth="yes"/>
    </contour>
  </outline>
</glyph>
<glyph name="V" format="1">
  <advance width="618"/>
  <unicode hex="0056"/>
  <outline>
    <contour>
      <point x="-46" y="722" type="line"/>
      <point x="85" y="722" type="line"/>
      <point x="283" y="214" type="line"/>
      <point x="307" y="275"/>
      <point x="358" y="406"/>
      <point x="383.0" y="471.0" type="qcurve" smooth="yes" name="inserted"/>
      <point x="408" y="536"/>
      <point x="457" y="664"/>
      <point x="479" y="722" type="qcurve"/>
      <point x="610" y="722" type="line"/>
      <point x="333" y="0" type="line"/>
      <point x="236" y="0" type="line"/>
    </contour>
  </outline>
</glyph>
<glyph name="W" format="1">
  <advance width="879"/>
  <unicode hex="0057"/>
  <outline>
    <contour>
      <point x="188" y="0" type="line"/>
      <point x="6" y="722" type="line"/>
      <point x="133" y="722" type="line"/>
      <point x="241" y="291" type="line"/>
      <point x="361" y="722" type="line"/>
      <point x="467" y="722" type="line"/>
      <point x="574" y="296" type="line"/>
      <point x="603" y="404"/>
      <point x="659" y="623"/>
      <point x="685" y="722" type="qcurve"/>
      <point x="812" y="722" type="line"/>
      <point x="621" y="0" type="line"/>
      <point x="523" y="0" type="line"/>
      <point x="411" y="442" type="line"/>
      <point x="287" y="0" type="line"/>
    </contour>
  </outline>
</glyph>
<glyph name="X" format="1">
  <advance width="637"/>
  <unicode hex="0058"/>
  <outline>
    <contour>
      <point x="291" y="273" type="line"/>
      <point x="104" y="0" type="line"/>
      <point x="-44" y="0" type="line"/>
      <point x="219" y="378" type="line"/>
      <point x="-15" y="722" type="line"/>
      <point x="130" y="722" type="line"/>
      <point x="292" y="486" type="line"/>
      <point x="456" y="722" type="line"/>
      <point x="600" y="722" type="line"/>
      <point x="365" y="379" type="line"/>
      <point x="623" y="0" type="line"/>
      <point x="478" y="0" type="line"/>
    </contour>
  </outline>
</glyph>
<glyph name="Y" format="1">
  <advance width="509"/>
  <unicode hex="0059"/>
  <outline>
    <contour>
      <point x="288" y="0" type="line"/>
      <point x="165" y="0" type="line"/>
      <point x="165" y="327" type="line"/>
      <point x="-76" y="722" type="line"/>
      <point x="63" y="722" type="line"/>
      <point x="227" y="454" type="line"/>
      <point x="400" y="722" type="line"/>
      <point x="544" y="722" type="line"/>
      <point x="288" y="326" type="line"/>
    </contour>
  </outline>
</glyph>
<glyph name="Z" format="1">
  <advance width="654"/>
  <unicode hex="005A"/>
  <outline>
    <contour>
      <point x="3" y="0" type="line"/>
      <point x="3" y="88" type="line"/>
      <point x="423" y="600" type="line"/>
      <point x="63" y="600" type="line"/>
      <point x="63" y="722" type="line"/>
      <point x="605" y="722" type="line"/>
      <point x="605" y="634" type="line"/>
      <point x="184" y="122" type="line"/>
      <point x="623" y="122" type="line"/>
      <point x="623" y="0" type="line"/>
    </contour>
  </outline>
</glyph>
<glyph name="bracketleft" format="1">
  <advance width="254"/>
  <unicode hex="005B"/>
  <outline>
    <contour>
      <point x="222" y="-119" type="line"/>
      <point x="-4" y="-119" type="line"/>
      <point x="-4" y="727" type="line"/>
      <point x="222" y="727" type="line"/>
      <point x="222" y="611" type="line"/>
      <point x="112" y="611" type="line"/>
      <point x="112" y="-3" type="line"/>
      <point x="222" y="-3" type="line"/>
    </contour>
  </outline>
</glyph>
<glyph name="bracketright" format="1">
  <advance width="267"/>
  <unicode hex="005D"/>
  <outline>
    <contour>
      <point x="-3" y="-118" type="line"/>
      <point x="-3" y="-2" type="line"/>
      <point x="107" y="-2" type="line"/>
      <point x="107" y="612" type="line"/>
      <point x="-3" y="612" type="line"/>
      <point x="-3" y="728" type="line"/>
      <point x="223" y="728" type="line"/>
      <point x="223" y="-118" type="line"/>
    </contour>
  </outline>
</glyph>
<glyph name="asciicircum" format="1">
  <advance width="476"/>
  <unicode hex="005E"/>
  <outline>
    <contour>
      <point x="219" y="584" type="line"/>
      <point x="115" y="380" type="line"/>
      <point x="-13" y="380" type="line"/>
      <point x="179" y="760" type="line"/>
      <point x="257" y="760" type="line"/>
      <point x="445" y="389" type="line"/>
      <point x="318" y="389" type="line"/>
    </contour>
  </outline>
</glyph>
<glyph name="grave" format="1">
  <advance width="400"/>
  <unicode hex="0060"/>
  <outline>
    <contour>
      <point x="63" y="744" type="line"/>
      <point x="160" y="803" type="line"/>
      <point x="340" y="577" type="line"/>
      <point x="252" y="506" type="line"/>
    </contour>
  </outline>
</glyph>
<glyph name="a" format="1">
  <advance width="526"/>
  <unicode hex="0061"/>
  <outline>
    <contour>
      <point x="340" y="328" type="qcurve"/>
      <point x="340" y="328"/>
      <point x="340" y="0"/>
      <point x="340" y="0" type="qcurve"/>
      <point x="456" y="0" type="line"/>
      <point x="456" y="332" type="line" smooth="yes"/>
      <point x="456" y="380"/>
      <point x="425" y="458"/>
      <point x="397" y="485" type="qcurve" smooth="yes" name="inserted"/>
      <point x="369" y="512"/>
      <point x="290" y="542"/>
      <point x="242" y="542" type="qcurve" smooth="yes"/>
      <point x="191" y="542"/>
      <point x="101" y="506"/>
      <point x="50" y="469" type="qcurve"/>
      <point x="111" y="384" type="line"/>
      <point x="151" y="406"/>
      <point x="212" y="427"/>
      <point x="240" y="427" type="qcurve" smooth="yes"/>
      <point x="285" y="427"/>
      <point x="340" y="368"/>
    </contour>
    <contour>
      <point x="400" y="179" type="line"/>
      <point x="327" y="124"/>
      <point x="258" y="86"/>
      <point x="221" y="86" type="qcurve" smooth="yes"/>
      <point x="189" y="86"/>
      <point x="147" y="130"/>
      <point x="147" y="168" type="qcurve" smooth="yes"/>
      <point x="147" y="205"/>
      <point x="207" y="239"/>
      <point x="251" y="245" type="qcurve" smooth="yes"/>
      <point x="277" y="247"/>
      <point x="371" y="252"/>
      <point x="393" y="253" type="qcurve"/>
      <point x="391" y="342" type="line"/>
      <point x="374" y="341"/>
      <point x="272" y="336"/>
      <point x="244" y="334" type="qcurve"/>
      <point x="150" y="330"/>
      <point x="31" y="253"/>
      <point x="31" y="167" type="qcurve" smooth="yes"/>
      <point x="31" y="85"/>
      <point x="136" y="-8"/>
      <point x="218" y="-8" type="qcurve" smooth="yes"/>
      <point x="246" y="-8"/>
      <point x="333" y="18"/>
      <point x="401" y="68" type="qcurve"/>
    </contour>
  </outline>
</glyph>
<glyph name="b" format="1">
  <advance width="578"/>
  <unicode hex="0062"/>
  <outline>
    <contour>
      <point x="186" y="468" type="line"/>
      <point x="186" y="751" type="line"/>
      <point x="70" y="751" type="line"/>
      <point x="70" y="0" type="line"/>
      <point x="186" y="0" type="line"/>
    </contour>
    <contour>
      <point x="170" y="388" type="line"/>
      <point x="195" y="408"/>
      <point x="248" y="432"/>
      <point x="277" y="432" type="qcurve"/>
      <point x="347" y="431"/>
      <point x="412" y="342"/>
      <point x="412" y="271" type="qcurve" smooth="yes"/>
      <point x="414" y="204"/>
      <point x="349" y="109"/>
      <point x="292" y="109" type="qcurve" smooth="yes"/>
      <point x="257" y="109"/>
      <point x="200" y="135" name="inserted"/>
      <point x="173" y="169" type="qcurve"/>
      <point x="107" y="100" type="line"/>
      <point x="156" y="41"/>
      <point x="253" y="-8" name="inserted"/>
      <point x="295" y="-8" type="qcurve" smooth="yes"/>
      <point x="406" y="-8"/>
      <point x="528" y="151"/>
      <point x="528" y="268" type="qcurve" smooth="yes"/>
      <point x="528" y="403"/>
      <point x="416" y="545"/>
      <point x="297" y="545" type="qcurve" smooth="yes"/>
      <point x="256" y="545"/>
      <point x="166" y="506"/>
      <point x="111" y="445" type="qcurve"/>
    </contour>
  </outline>
</glyph>
<glyph name="c" format="1">
  <advance width="500"/>
  <unicode hex="0063"/>
  <outline>
    <contour>
      <point x="50" y="267" type="qcurve" smooth="yes"/>
      <point x="50" y="378"/>
      <point x="175" y="539"/>
      <point x="302" y="539" type="qcurve" smooth="yes"/>
      <point x="341" y="539" name="inserted"/>
      <point x="425" y="507"/>
      <point x="468" y="475" type="qcurve"/>
      <point x="410" y="387" type="line"/>
      <point x="377" y="413" name="inserted"/>
      <point x="320" y="432"/>
      <point x="298" y="432" type="qcurve" smooth="yes"/>
      <point x="235" y="432"/>
      <point x="175" y="330"/>
      <point x="175" y="267" type="qcurve" smooth="yes"/>
      <point x="175" y="199"/>
      <point x="234" y="100"/>
      <point x="295" y="100" type="qcurve"/>
      <point x="324" y="100"/>
      <point x="386" y="123"/>
      <point x="419" y="145" type="qcurve"/>
      <point x="483" y="63" type="line"/>
      <point x="444" y="29"/>
      <point x="353" y="-7"/>
      <point x="300" y="-7" type="qcurve"/>
      <point x="175" y="-7"/>
      <point x="50" y="149"/>
    </contour>
  </outline>
</glyph>
<glyph name="e" format="1">
  <advance width="552"/>
  <unicode hex="0065"/>
  <outline>
    <contour>
      <point x="134" y="231" type="line"/>
      <point x="134" y="327" type="line"/>
      <point x="482" y="327" type="line"/>
      <point x="482" y="231" type="line"/>
    </contour>
    <contour>
      <point x="168" y="276" type="qcurve"/>
      <point x="168" y="179"/>
      <point x="243" y="102"/>
      <point x="300" y="102" type="qcurve"/>
      <point x="336" y="102"/>
      <point x="395" y="126"/>
      <point x="440" y="160" type="qcurve"/>
      <point x="509" y="77" type="line"/>
      <point x="451" y="28"/>
      <point x="357" y="-8"/>
      <point x="305" y="-8" type="qcurve" smooth="yes"/>
      <point x="165" y="-8"/>
      <point x="48" y="156"/>
      <point x="49" y="278" type="qcurve" smooth="yes"/>
      <point x="50" y="388"/>
      <point x="166" y="542"/>
      <point x="287" y="542" type="qcurve" smooth="yes"/>
      <point x="396" y="542"/>
      <point x="502" y="398"/>
      <point x="502" y="293" type="qcurve" smooth="yes"/>
      <point x="502" y="231" type="line"/>
      <point x="387" y="231" type="line"/>
      <point x="387" y="287" type="line" smooth="yes"/>
      <point x="387" y="362"/>
      <point x="326" y="432"/>
      <point x="282" y="432" type="qcurve" smooth="yes"/>
      <point x="239.0" y="432.0"/>
      <point x="168" y="351"/>
    </contour>
  </outline>
</glyph>
<glyph name="f" format="1">
  <advance width="581"/>
  <unicode hex="0066"/>
  <outline>
    <contour>
      <point x="292" y="397" type="line"/>
      <point x="292" y="0" type="line"/>
      <point x="176" y="0" type="line"/>
      <point x="176" y="397" type="line"/>
      <point x="34" y="397" type="line"/>
      <point x="34" y="513" type="line"/>
      <point x="176" y="513" type="line"/>
      <point x="176" y="533" type="line" smooth="yes"/>
      <point x="176" y="636"/>
      <point x="276" y="750"/>
      <point x="364" y="750" type="qcurve" smooth="yes"/>
      <point x="387" y="750"/>
      <point x="453" y="735"/>
      <point x="500" y="718" type="qcurve"/>
      <point x="463" y="611" type="line"/>
      <point x="426" y="623"/>
      <point x="380" y="634"/>
      <point x="368" y="634" type="qcurve" smooth="yes"/>
      <point x="333" y="634"/>
      <point x="292" y="581"/>
      <point x="292" y="533" type="qcurve" smooth="yes"/>
      <point x="292" y="513" type="line"/>
      <point x="476" y="513" type="line"/>
      <point x="476" y="397" type="line"/>
    </contour>
  </outline>
</glyph>
<glyph name="h" format="1">
  <advance width="580"/>
  <unicode hex="0068"/>
  <outline>
    <contour>
      <point x="186" y="482" type="line"/>
      <point x="186" y="0" type="line"/>
      <point x="70" y="0" type="line"/>
      <point x="70" y="751" type="line"/>
      <point x="186" y="751" type="line"/>
    </contour>
    <contour>
      <point x="165" y="348" type="qcurve"/>
      <point x="122" y="373" type="line"/>
      <point x="164" y="471"/>
      <point x="257" y="541"/>
      <point x="319" y="541" type="qcurve" smooth="yes"/>
      <point x="410" y="541"/>
      <point x="510" y="428"/>
      <point x="510" y="330" type="qcurve" smooth="yes"/>
      <point x="510" y="0" type="line"/>
      <point x="394" y="0" type="line"/>
      <point x="394" y="306" type="line" smooth="yes"/>
      <point x="394" y="365"/>
      <point x="340" y="432"/>
      <point x="291" y="432" type="qcurve"/>
      <point x="256" y="432"/>
      <point x="195" y="399"/>
    </contour>
  </outline>
</glyph>
<glyph name="j" format="1">
  <advance width="256"/>
  <unicode hex="006A"/>
  <outline>
    <contour>
      <point x="70" y="633" type="line"/>
      <point x="70" y="751" type="line"/>
      <point x="186" y="751" type="line"/>
      <point x="186" y="633" type="line"/>
    </contour>
    <contour>
      <point x="-54" y="-158" type="line"/>
      <point x="32" y="-172"/>
      <point x="70" y="-100"/>
      <point x="70" y="-42" type="qcurve" smooth="yes"/>
      <point x="70" y="535" type="line"/>
      <point x="186" y="535" type="line"/>
      <point x="186" y="-32" type="line" smooth="yes"/>
      <point x="186" y="-186"/>
      <point x="75" y="-301"/>
      <point x="-72" y="-270" type="qcurve"/>
    </contour>
  </outline>
</glyph>
<glyph name="k" format="1">
  <advance width="586"/>
  <unicode hex="006B"/>
  <outline>
    <contour>
      <point x="83" y="0" type="line"/>
      <point x="83" y="751" type="line"/>
      <point x="199" y="751" type="line"/>
      <point x="199" y="385" type="line"/>
      <point x="254" y="425"/>
      <point x="364" y="505"/>
      <point x="415" y="543" type="qcurve"/>
      <point x="605" y="543" type="line"/>
      <point x="250" y="283" type="line"/>
      <point x="292" y="251"/>
      <point x="394" y="174"/>
      <point x="445.0" y="135.0" type="qcurve" smooth="yes" name="inserted"/>
      <point x="496" y="96"/>
      <point x="590" y="25"/>
      <point x="623" y="0" type="qcurve"/>
      <point x="436" y="0" type="line"/>
      <point x="199" y="178" type="line"/>
      <point x="199" y="0" type="line"/>
    </contour>
  </outline>
</glyph>
<glyph name="l" format="1">
  <advance width="256"/>
  <unicode hex="006C"/>
  <outline>
    <contour>
      <point x="70" y="0" type="line"/>
      <point x="70" y="751" type="line"/>
      <point x="186" y="751" type="line"/>
      <point x="186" y="0" type="line"/>
    </contour>
  </outline>
</glyph>
<glyph name="m" format="1">
  <advance width="904"/>
  <unicode hex="006D"/>
  <outline>
    <contour>
      <point x="489" y="348" type="qcurve"/>
      <point x="435" y="380" type="line"/>
      <point x="480" y="476"/>
      <point x="581" y="541"/>
      <point x="643" y="541" type="qcurve" smooth="yes"/>
      <point x="734" y="541"/>
      <point x="834" y="428"/>
      <point x="834" y="330" type="qcurve" smooth="yes"/>
      <point x="834" y="0" type="line"/>
      <point x="718" y="0" type="line"/>
      <point x="718" y="306" type="line" smooth="yes"/>
      <point x="718" y="365"/>
      <point x="664" y="432"/>
      <point x="615" y="432" type="qcurve"/>
      <point x="580" y="432"/>
      <point x="519" y="399"/>
    </contour>
    <contour>
      <point x="186" y="482" type="line"/>
      <point x="186" y="0" type="line"/>
      <point x="70" y="0" type="line"/>
      <point x="70" y="533" type="line"/>
      <point x="186" y="533" type="line"/>
    </contour>
    <contour>
      <point x="165" y="348" type="qcurve"/>
      <point x="122" y="373" type="line"/>
      <point x="164" y="471"/>
      <point x="257" y="541"/>
      <point x="319" y="541" type="qcurve" smooth="yes"/>
      <point x="410" y="541"/>
      <point x="510" y="428"/>
      <point x="510" y="330" type="qcurve" smooth="yes"/>
      <point x="510" y="0" type="line"/>
      <point x="394" y="0" type="line"/>
      <point x="394" y="306" type="line" smooth="yes"/>
      <point x="394" y="365"/>
      <point x="340" y="432"/>
      <point x="291" y="432" type="qcurve"/>
      <point x="256" y="432"/>
      <point x="195" y="399"/>
    </contour>
  </outline>
</glyph>
<glyph name="n" format="1">
  <advance width="580"/>
  <unicode hex="006E"/>
  <outline>
    <contour>
      <point x="186" y="482" type="line"/>
      <point x="186" y="0" type="line"/>
      <point x="70" y="0" type="line"/>
      <point x="70" y="533" type="line"/>
      <point x="186" y="533" type="line"/>
    </contour>
    <contour>
      <point x="165" y="348" type="qcurve"/>
      <point x="122" y="373" type="line"/>
      <point x="164" y="471"/>
      <point x="257" y="541"/>
      <point x="319" y="541" type="qcurve" smooth="yes"/>
      <point x="410" y="541"/>
      <point x="510" y="428"/>
      <point x="510" y="330" type="qcurve" smooth="yes"/>
      <point x="510" y="0" type="line"/>
      <point x="394" y="0" type="line"/>
      <point x="394" y="306" type="line" smooth="yes"/>
      <point x="394" y="365"/>
      <point x="340" y="432"/>
      <point x="291" y="432" type="qcurve"/>
      <point x="256" y="432"/>
      <point x="195" y="399"/>
    </contour>
  </outline>
</glyph>
<glyph name="o" format="1">
  <advance width="608"/>
  <unicode hex="006F"/>
  <outline>
    <contour>
      <point x="50" y="269" type="qcurve" smooth="yes"/>
      <point x="50" y="382"/>
      <point x="181" y="538"/>
      <point x="303" y="538" type="qcurve" smooth="yes"/>
      <point x="424" y="538"/>
      <point x="559" y="383"/>
      <point x="559" y="269" type="qcurve" smooth="yes"/>
      <point x="559" y="153"/>
      <point x="427" y="-5"/>
      <point x="303" y="-5" type="qcurve" smooth="yes"/>
      <point x="178" y="-5"/>
      <point x="50" y="154"/>
    </contour>
    <contour>
      <point x="165" y="270" type="qcurve" smooth="yes"/>
      <point x="165" y="199"/>
      <point x="236" y="100"/>
      <point x="305" y="100" type="qcurve" smooth="yes"/>
      <point x="372" y="100"/>
      <point x="444" y="197"/>
      <point x="444" y="268" type="qcurve" smooth="yes"/>
      <point x="444" y="338"/>
      <point x="369" y="433"/>
      <point x="301" y="433" type="qcurve" smooth="yes"/>
      <point x="234" y="433"/>
      <point x="165" y="337"/>
    </contour>
  </outline>
</glyph>
<glyph name="p" format="1">
  <advance width="578"/>
  <unicode hex="0070"/>
  <outline>
    <contour>
      <point x="295" y="-8" type="qcurve" smooth="yes"/>
      <point x="253" y="-8" name="inserted"/>
      <point x="180" y="26"/>
      <point x="159" y="55" type="qcurve"/>
      <point x="186" y="68" type="line"/>
      <point x="186" y="-218" type="line"/>
      <point x="70" y="-218" type="line"/>
      <point x="70" y="533" type="line"/>
      <point x="186" y="533" type="line"/>
      <point x="186" y="468" type="line"/>
      <point x="159" y="485" type="line"/>
      <point x="194" y="519"/>
      <point x="270" y="545"/>
      <point x="297" y="545" type="qcurve" smooth="yes"/>
      <point x="416" y="545"/>
      <point x="528" y="403"/>
      <point x="528" y="268" type="qcurve" smooth="yes"/>
      <point x="528" y="151"/>
      <point x="406" y="-8"/>
    </contour>
    <contour>
      <point x="292" y="109" type="qcurve" smooth="yes"/>
      <point x="349" y="109"/>
      <point x="414" y="204"/>
      <point x="412" y="271" type="qcurve" smooth="yes"/>
      <point x="412" y="342"/>
      <point x="347" y="431"/>
      <point x="284" y="431" type="qcurve" smooth="yes"/>
      <point x="255" y="431"/>
      <point x="206" y="413"/>
      <point x="186" y="397" type="qcurve"/>
      <point x="186" y="158" type="line"/>
      <point x="204" y="134" name="inserted"/>
      <point x="257" y="109"/>
    </contour>
  </outline>
</glyph>
<glyph name="q" format="1">
  <advance width="578"/>
  <unicode hex="0071"/>
  <outline>
    <contour>
      <point x="286" y="428" type="qcurve" smooth="yes"/>
      <point x="321" y="428"/>
      <point x="374" y="403" name="inserted"/>
      <point x="392" y="379" type="qcurve"/>
      <point x="392" y="140" type="line"/>
      <point x="372" y="124"/>
      <point x="323" y="106"/>
      <point x="294" y="106" type="qcurve" smooth="yes"/>
      <point x="231" y="106"/>
      <point x="166" y="195"/>
      <point x="166" y="266" type="qcurve" smooth="yes"/>
      <point x="164" y="333"/>
      <point x="229" y="428"/>
    </contour>
    <contour>
      <point x="283" y="545" type="qcurve" smooth="yes"/>
      <point x="172" y="545"/>
      <point x="50" y="386"/>
      <point x="50" y="269" type="qcurve" smooth="yes"/>
      <point x="50" y="134"/>
      <point x="162" y="-8"/>
      <point x="281" y="-8" type="qcurve" smooth="yes"/>
      <point x="308" y="-8"/>
      <point x="384" y="18"/>
      <point x="419" y="52" type="qcurve"/>
      <point x="392" y="69" type="line"/>
      <point x="392" y="-218" type="line"/>
      <point x="508" y="-218" type="line"/>
      <point x="508" y="533" type="line"/>
      <point x="392" y="533" type="line"/>
      <point x="392" y="469" type="line"/>
      <point x="419" y="482" type="line"/>
      <point x="398" y="511"/>
      <point x="325" y="545" name="inserted"/>
    </contour>
  </outline>
</glyph>
<glyph name="r" format="1">
  <advance width="390"/>
  <unicode hex="0072"/>
  <outline>
    <contour>
      <point x="69" y="0" type="line"/>
      <point x="69" y="533" type="line"/>
      <point x="185" y="533" type="line"/>
      <point x="185" y="515" type="line"/>
      <point x="219" y="530"/>
      <point x="305" y="544"/>
      <point x="357" y="544" type="qcurve"/>
      <point x="340" y="428" type="line"/>
      <point x="283" y="428"/>
      <point x="205" y="406"/>
      <point x="185" y="380" type="qcurve"/>
      <point x="185" y="0" type="line"/>
    </contour>
  </outline>
</glyph>
<glyph name="s" format="1">
  <advance width="509"/>
  <unicode hex="0073"/>
  <outline>
    <contour>
      <point x="84" y="171" type="line"/>
      <point x="132" y="138"/>
      <point x="198" y="107"/>
      <point x="230" y="107" type="qcurve" smooth="yes"/>
      <point x="263" y="107"/>
      <point x="310" y="129"/>
      <point x="310" y="153" type="qcurve" smooth="yes"/>
      <point x="310" y="163"/>
      <point x="295" y="179"/>
      <point x="283.0" y="185.5" type="qcurve" smooth="yes" name="inserted"/>
      <point x="271" y="192"/>
      <point x="239" y="205"/>
      <point x="221" y="211" type="qcurve" smooth="yes"/>
      <point x="189" y="223"/>
      <point x="132" y="252"/>
      <point x="111.0" y="272.5" type="qcurve" smooth="yes" name="inserted"/>
      <point x="90" y="293"/>
      <point x="66" y="348"/>
      <point x="66" y="385" type="qcurve" smooth="yes"/>
      <point x="66" y="423"/>
      <point x="94" y="481"/>
      <point x="118.0" y="501.0" type="qcurve" smooth="yes" name="inserted"/>
      <point x="142" y="521"/>
      <point x="208" y="541"/>
      <point x="246" y="541" type="qcurve" smooth="yes"/>
      <point x="288" y="541"/>
      <point x="375" y="505"/>
      <point x="429" y="473" type="qcurve"/>
      <point x="376" y="371" type="line"/>
      <point x="332" y="397"/>
      <point x="269" y="427"/>
      <point x="243" y="427" type="qcurve" smooth="yes"/>
      <point x="217" y="427"/>
      <point x="181" y="405"/>
      <point x="181" y="384" type="qcurve" smooth="yes"/>
      <point x="181" y="359"/>
      <point x="232" y="329"/>
      <point x="266" y="317" type="qcurve"/>
      <point x="265" y="318" type="line"/>
      <point x="297" y="307"/>
      <point x="355" y="280"/>
      <point x="377.0" y="261.5" type="qcurve" smooth="yes" name="inserted"/>
      <point x="399" y="243"/>
      <point x="425" y="190"/>
      <point x="425" y="153" type="qcurve" smooth="yes"/>
      <point x="425" y="111"/>
      <point x="394" y="51"/>
      <point x="367.5" y="31.0" type="qcurve" smooth="yes" name="inserted"/>
      <point x="341" y="11"/>
      <point x="268" y="-8"/>
      <point x="226" y="-8" type="qcurve" smooth="yes"/>
      <point x="175" y="-8"/>
      <point x="76" y="33"/>
      <point x="12" y="82" type="qcurve"/>
    </contour>
  </outline>
</glyph>
<glyph name="t" format="1">
  <advance width="497"/>
  <unicode hex="0074"/>
  <outline>
    <contour>
      <point x="386" y="23" type="line"/>
      <point x="357" y="9"/>
      <point x="308" y="-5"/>
      <point x="275" y="-5" type="qcurve" smooth="yes"/>
      <point x="237" y="-5"/>
      <point x="181" y="21"/>
      <point x="162.5" y="44.5" type="qcurve" smooth="yes" name="inserted"/>
      <point x="144" y="68"/>
      <point x="125" y="133"/>
      <point x="125" y="171" type="qcurve" smooth="yes"/>
      <point x="125" y="389" type="line"/>
      <point x="8" y="389" type="line"/>
      <point x="8" y="504" type="line"/>
      <point x="125" y="504" type="line"/>
      <point x="125" y="598" type="line"/>
      <point x="240" y="664" type="line"/>
      <point x="240" y="504" type="line"/>
      <point x="425" y="504" type="line"/>
      <point x="425" y="389" type="line"/>
      <point x="240" y="389" type="line"/>
      <point x="240" y="171" type="line" smooth="yes"/>
      <point x="240" y="144"/>
      <point x="258" y="109"/>
      <point x="278" y="109" type="qcurve" smooth="yes"/>
      <point x="294" y="109"/>
      <point x="338" y="126"/>
      <point x="374" y="146" type="qcurve"/>
      <point x="405" y="92" type="line"/>
    </contour>
  </outline>
</glyph>
<glyph name="u" format="1">
  <advance width="580"/>
  <unicode hex="0075"/>
  <outline>
    <contour>
      <point x="394" y="51" type="line"/>
      <point x="394" y="533" type="line"/>
      <point x="510" y="533" type="line"/>
      <point x="510" y="0" type="line"/>
      <point x="394" y="0" type="line"/>
    </contour>
    <contour>
      <point x="415" y="185" type="qcurve"/>
      <point x="458" y="160" type="line"/>
      <point x="416" y="62"/>
      <point x="323" y="-8"/>
      <point x="261" y="-8" type="qcurve" smooth="yes"/>
      <point x="170" y="-8"/>
      <point x="70" y="105"/>
      <point x="70" y="203" type="qcurve" smooth="yes"/>
      <point x="70" y="533" type="line"/>
      <point x="186" y="533" type="line"/>
      <point x="186" y="227" type="line" smooth="yes"/>
      <point x="186" y="168"/>
      <point x="240" y="101"/>
      <point x="289" y="101" type="qcurve"/>
      <point x="324" y="101"/>
      <point x="385" y="134"/>
    </contour>
  </outline>
</glyph>
<glyph name="v" format="1">
  <advance width="581"/>
  <unicode hex="0076"/>
  <outline>
    <contour>
      <point x="2" y="533" type="line"/>
      <point x="125" y="533" type="line"/>
      <point x="254" y="198" type="line"/>
      <point x="392" y="533" type="line"/>
      <point x="516" y="533" type="line"/>
      <point x="296" y="0" type="line"/>
      <point x="208" y="0" type="line"/>
    </contour>
  </outline>
</glyph>
<glyph name="w" format="1">
  <advance width="836"/>
  <unicode hex="0077"/>
  <outline>
    <contour>
      <point x="166" y="0" type="line"/>
      <point x="-16" y="533" type="line"/>
      <point x="107" y="533" type="line"/>
      <point x="213" y="221" type="line"/>
      <point x="242" y="300"/>
      <point x="304" y="461"/>
      <point x="330" y="533" type="qcurve"/>
      <point x="425" y="533" type="line"/>
      <point x="529" y="226" type="line"/>
      <point x="638" y="533" type="line"/>
      <point x="762" y="533" type="line"/>
      <point x="572" y="0" type="line"/>
      <point x="484" y="0" type="line"/>
      <point x="375" y="320" type="line"/>
      <point x="344" y="239"/>
      <point x="280" y="73"/>
      <point x="252" y="0" type="qcurve"/>
    </contour>
  </outline>
</glyph>
<glyph name="x" format="1">
  <advance width="545"/>
  <unicode hex="0078"/>
  <outline>
    <contour>
      <point x="243" y="181" type="line"/>
      <point x="210" y="136"/>
      <point x="139" y="42"/>
      <point x="109" y="0" type="qcurve"/>
      <point x="-34" y="0" type="line"/>
      <point x="173" y="278" type="line"/>
      <point x="-15" y="534" type="line"/>
      <point x="126" y="534" type="line"/>
      <point x="244" y="373" type="line"/>
      <point x="365" y="534" type="line"/>
      <point x="505" y="534" type="line"/>
      <point x="314" y="277" type="line"/>
      <point x="336" y="246"/>
      <point x="392" y="171"/>
      <point x="420.0" y="133.0" type="qcurve" smooth="yes" name="inserted"/>
      <point x="448" y="95"/>
      <point x="500" y="25"/>
      <point x="518" y="0" type="qcurve"/>
      <point x="378" y="0" type="line"/>
    </contour>
  </outline>
</glyph>
<glyph name="z" format="1">
  <advance width="581"/>
  <unicode hex="007A"/>
  <outline>
    <contour>
      <point x="5" y="0" type="line"/>
      <point x="5" y="85" type="line"/>
      <point x="296" y="417" type="line"/>
      <point x="62" y="417" type="line"/>
      <point x="62" y="533" type="line"/>
      <point x="473" y="533" type="line"/>
      <point x="473" y="448" type="line"/>
      <point x="182" y="116" type="line"/>
      <point x="491" y="116" type="line"/>
      <point x="491" y="0" type="line"/>
    </contour>
  </outline>
</glyph>
<glyph name="braceleft" format="1">
  <advance width="326"/>
  <unicode hex="007B"/>
  <outline>
    <contour>
      <point x="237" y="-108" type="line"/>
      <point x="162" y="-108"/>
      <point x="85" y="-12"/>
      <point x="85" y="64" type="qcurve" smooth="yes"/>
      <point x="85" y="216" type="line" smooth="yes"/>
      <point x="85" y="239"/>
      <point x="42" y="266"/>
      <point x="0" y="266" type="qcurve"/>
      <point x="0" y="383" type="line"/>
      <point x="42" y="383"/>
      <point x="85" y="410"/>
      <point x="85" y="433" type="qcurve" smooth="yes"/>
      <point x="85" y="586" type="line" smooth="yes"/>
      <point x="85" y="661"/>
      <point x="187" y="757"/>
      <point x="286" y="757" type="qcurve"/>
      <point x="286" y="642" type="line"/>
      <point x="242" y="642"/>
      <point x="200" y="611"/>
      <point x="200" y="586" type="qcurve" smooth="yes"/>
      <point x="200" y="435" type="line" smooth="yes"/>
      <point x="200" y="401"/>
      <point x="183" y="346"/>
      <point x="167" y="324" type="qcurve"/>
      <point x="183.5" y="302.0" name="inserted"/>
      <point x="200.0" y="247.5"/>
      <point x="200" y="215" type="qcurve" smooth="yes"/>
      <point x="200" y="63" type="line" smooth="yes"/>
      <point x="200" y="38"/>
      <point x="242" y="7"/>
      <point x="286" y="7" type="qcurve"/>
      <point x="286" y="-59" type="line"/>
    </contour>
  </outline>
</glyph>
<glyph name="braceright" format="1">
  <advance width="326"/>
  <unicode hex="007D"/>
  <outline>
    <contour>
      <point x="1" y="7" type="line"/>
      <point x="45" y="7"/>
      <point x="87" y="39"/>
      <point x="87" y="64" type="qcurve" smooth="yes"/>
      <point x="87" y="215" type="line" smooth="yes"/>
      <point x="87" y="249"/>
      <point x="104" y="304"/>
      <point x="120" y="326" type="qcurve"/>
      <point x="103.5" y="347.0" name="inserted"/>
      <point x="87.0" y="401.5"/>
      <point x="87" y="435" type="qcurve" smooth="yes"/>
      <point x="87" y="587" type="line" smooth="yes"/>
      <point x="87" y="612"/>
      <point x="45" y="643"/>
      <point x="1" y="643" type="qcurve"/>
      <point x="1" y="757" type="line"/>
      <point x="100" y="757"/>
      <point x="201" y="661"/>
      <point x="201" y="586" type="qcurve" smooth="yes"/>
      <point x="201" y="433" type="line" smooth="yes"/>
      <point x="201" y="411"/>
      <point x="245" y="384"/>
      <point x="287" y="384" type="qcurve"/>
      <point x="287" y="267" type="line"/>
      <point x="245" y="267"/>
      <point x="201" y="240"/>
      <point x="201" y="217" type="qcurve" smooth="yes"/>
      <point x="201" y="64" type="line" smooth="yes"/>
      <point x="201" y="-12"/>
      <point x="100" y="-107"/>
      <point x="1" y="-107" type="qcurve"/>
    </contour>
  </outline>
</glyph>
<glyph name="asciitilde" format="1">
  <advance width="586"/>
  <unicode hex="007E"/>
  <outline>
    <contour>
      <point x="516" y="379" type="line"/>
      <point x="516" y="287"/>
      <point x="437" y="179"/>
      <point x="367" y="179" type="qcurve" smooth="yes"/>
      <point x="320" y="180"/>
      <point x="258" y="211"/>
      <point x="224" y="240" type="qcurve" smooth="yes"/>
      <point x="211" y="251"/>
      <point x="187" y="264"/>
      <point x="172" y="264" type="qcurve" smooth="yes"/>
      <point x="154" y="264"/>
      <point x="132" y="219"/>
      <point x="132" y="178" type="qcurve"/>
      <point x="18" y="178" type="line"/>
      <point x="18" y="272"/>
      <point x="102" y="379"/>
      <point x="173" y="379" type="qcurve" smooth="yes"/>
      <point x="215" y="379"/>
      <point x="276" y="347"/>
      <point x="305" y="322" type="qcurve" smooth="yes"/>
      <point x="320" y="308"/>
      <point x="350" y="294"/>
      <point x="370" y="294" type="qcurve" smooth="yes"/>
      <point x="384" y="294"/>
      <point x="401" y="340"/>
      <point x="401" y="379" type="qcurve"/>
    </contour>
  </outline>
</glyph>
<glyph name="exclamdown" format="1">
  <advance width="290"/>
  <unicode hex="00A1"/>
  <outline>
    <contour>
      <point x="185" y="443" type="line"/>
      <point x="185" y="242" type="line"/>
      <point x="68" y="242" type="line"/>
      <point x="68" y="443" type="line"/>
    </contour>
    <contour>
      <point x="185" y="-244" type="line"/>
      <point x="69" y="-244" type="line"/>
      <point x="69" y="256" type="line"/>
      <point x="185" y="256" type="line"/>
    </contour>
  </outline>
</glyph>
<glyph name="cent" format="1">
  <advance width="584"/>
  <unicode hex="00A2"/>
  <outline>
    <contour>
      <point x="519" y="130" type="line"/>
      <point x="477" y="97"/>
      <point x="400" y="57"/>
      <point x="353" y="49" type="qcurve"/>
      <point x="353" y="-33" type="line"/>
      <point x="237" y="-33" type="line"/>
      <point x="237" y="49" type="line"/>
      <point x="188" y="59"/>
      <point x="112" y="111"/>
      <point x="85.5" y="150.0" type="qcurve" smooth="yes" name="inserted"/>
      <point x="59" y="189"/>
      <point x="32" y="289"/>
      <point x="32" y="348" type="qcurve" smooth="yes"/>
      <point x="32" y="469"/>
      <point x="147" y="628"/>
      <point x="254" y="647" type="qcurve"/>
      <point x="254" y="733" type="line"/>
      <point x="370" y="733" type="line"/>
      <point x="370" y="648" type="line"/>
      <point x="415" y="640"/>
      <point x="502" y="597"/>
      <point x="556" y="559" type="qcurve"/>
      <point x="492" y="462" type="line"/>
      <point x="436" y="502"/>
      <point x="355" y="537"/>
      <point x="314" y="537" type="qcurve" smooth="yes"/>
      <point x="234" y="537"/>
      <point x="148" y="433"/>
      <point x="148" y="349" type="qcurve" smooth="yes"/>
      <point x="148" y="307"/>
      <point x="166" y="238"/>
      <point x="184.5" y="212.5" type="qcurve" smooth="yes" name="inserted"/>
      <point x="203" y="187"/>
      <point x="258" y="159"/>
      <point x="295" y="159" type="qcurve" smooth="yes"/>
      <point x="341" y="159"/>
      <point x="427" y="204"/>
      <point x="483" y="252" type="qcurve"/>
      <point x="526" y="198" type="line"/>
    </contour>
  </outline>
</glyph>
<glyph name="sterling" format="1">
  <advance width="505"/>
  <unicode hex="00A3"/>
  <outline>
    <contour>
      <point x="67" y="1" type="line"/>
      <point x="56" y="0"/>
      <point x="14" y="0"/>
      <point x="-3" y="0" type="qcurve"/>
      <point x="-3" y="117" type="line"/>
      <point x="58" y="117" type="line"/>
      <point x="91" y="122"/>
      <point x="121" y="184"/>
      <point x="121" y="230" type="qcurve" smooth="yes"/>
      <point x="121" y="246"/>
      <point x="118" y="280"/>
      <point x="116" y="300" type="qcurve"/>
      <point x="27" y="300" type="line"/>
      <point x="27" y="415" type="line"/>
      <point x="97" y="415" type="line"/>
      <point x="95" y="426"/>
      <point x="95" y="445"/>
      <point x="95" y="455" type="qcurve" smooth="yes"/>
      <point x="95" y="503"/>
      <point x="116" y="583"/>
      <point x="137.5" y="612.0" type="qcurve" smooth="yes" name="inserted"/>
      <point x="159" y="641"/>
      <point x="227" y="673"/>
      <point x="275" y="673" type="qcurve" smooth="yes"/>
      <point x="319" y="673"/>
      <point x="398" y="637"/>
      <point x="449" y="599" type="qcurve"/>
      <point x="389" y="500" type="line"/>
      <point x="347" y="531"/>
      <point x="295" y="558"/>
      <point x="272" y="558" type="qcurve" smooth="yes"/>
      <point x="238" y="558"/>
      <point x="210" y="503"/>
      <point x="210" y="460" type="qcurve" smooth="yes"/>
      <point x="210" y="449"/>
      <point x="212" y="427"/>
      <point x="214" y="415" type="qcurve"/>
      <point x="387" y="415" type="line"/>
      <point x="387" y="300" type="line"/>
      <point x="232" y="300" type="line"/>
      <point x="233.5" y="283.5" name="inserted"/>
      <point x="235.0" y="251.0"/>
      <point x="235" y="235" type="qcurve" smooth="yes"/>
      <point x="235.0" y="201.5" name="inserted"/>
      <point x="226.0" y="142.5"/>
      <point x="217" y="117" type="qcurve"/>
      <point x="425" y="117" type="line"/>
      <point x="425" y="1" type="line"/>
    </contour>
  </outline>
</glyph>
<glyph name="yen" format="1">
  <advance width="509"/>
  <unicode hex="00A5"/>
  <outline>
    <contour>
      <point x="287" y="187" type="line"/>
      <point x="287" y="0" type="line"/>
      <point x="169" y="0" type="line"/>
      <point x="169" y="187" type="line"/>
      <point x="-2" y="187" type="line"/>
      <point x="-2" y="400" type="line"/>
      <point x="115" y="400" type="line"/>
      <point x="94" y="435"/>
      <point x="46" y="513"/>
      <point x="22.5" y="551.5" type="qcurve" smooth="yes" name="inserted"/>
      <point x="-1" y="590"/>
      <point x="-44" y="660"/>
      <point x="-60" y="687" type="qcurve"/>
      <point x="73" y="687" type="line"/>
      <point x="229" y="433" type="line"/>
      <point x="393" y="687" type="line"/>
      <point x="530" y="687" type="line"/>
      <point x="344" y="400" type="line"/>
      <point x="461" y="400" type="line"/>
      <point x="461" y="303" type="line"/>
      <point x="463" y="303" type="line"/>
      <point x="463" y="187" type="line"/>
    </contour>
  </outline>
</glyph>
<glyph name="brokenbar" format="1">
  <advance width="256"/>
  <unicode hex="00A6"/>
  <outline>
    <contour>
      <point x="69" y="349" type="line"/>
      <point x="69" y="751" type="line"/>
      <point x="185" y="751" type="line"/>
      <point x="185" y="349" type="line"/>
    </contour>
    <contour>
      <point x="69" y="-245" type="line"/>
      <point x="69" y="157" type="line"/>
      <point x="185" y="157" type="line"/>
      <point x="185" y="-245" type="line"/>
    </contour>
  </outline>
</glyph>
<glyph name="section" format="1">
  <advance width="489"/>
  <unicode hex="00A7"/>
  <outline>
    <contour>
      <point x="231" y="265" type="line"/>
      <point x="248" y="260"/>
      <point x="286" y="245"/>
      <point x="301" y="238" type="qcurve"/>
      <point x="302" y="240"/>
      <point x="301" y="242"/>
      <point x="301" y="244" type="qcurve" smooth="yes"/>
      <point x="301" y="254"/>
      <point x="286" y="271"/>
      <point x="273.5" y="277.5" type="qcurve" smooth="yes" name="inserted"/>
      <point x="261" y="284"/>
      <point x="229" y="296"/>
      <point x="212" y="302" type="qcurve" smooth="yes"/>
      <point x="196.0" y="307.0" name="inserted"/>
      <point x="163.0" y="322.0"/>
      <point x="146" y="332" type="qcurve"/>
      <point x="146" y="307"/>
      <point x="197" y="277"/>
      <point x="231" y="264" type="qcurve"/>
    </contour>
    <contour>
      <point x="191" y="-60" type="qcurve" smooth="yes"/>
      <point x="139" y="-60"/>
      <point x="41" y="-19"/>
      <point x="-22" y="29" type="qcurve"/>
      <point x="49" y="118" type="line"/>
      <point x="97" y="85"/>
      <point x="163" y="55"/>
      <point x="195" y="55" type="qcurve" smooth="yes"/>
      <point x="229" y="55"/>
      <point x="276" y="77"/>
      <point x="276" y="100" type="qcurve" smooth="yes"/>
      <point x="276" y="110"/>
      <point x="261" y="127"/>
      <point x="248.5" y="133.5" type="qcurve" smooth="yes" name="inserted"/>
      <point x="236" y="140"/>
      <point x="204" y="152"/>
      <point x="187" y="158" type="qcurve" smooth="yes"/>
      <point x="154" y="170"/>
      <point x="97" y="200"/>
      <point x="76.0" y="220.5" type="qcurve" smooth="yes" name="inserted"/>
      <point x="55" y="241"/>
      <point x="31" y="296"/>
      <point x="31" y="333" type="qcurve" smooth="yes"/>
      <point x="31" y="362"/>
      <point x="50" y="410"/>
      <point x="64" y="429" type="qcurve"/>
      <point x="60.5" y="439.5" name="inserted"/>
      <point x="57.0" y="463.5"/>
      <point x="57" y="477" type="qcurve" smooth="yes"/>
      <point x="57" y="515"/>
      <point x="84" y="573"/>
      <point x="108.0" y="593.0" type="qcurve" smooth="yes" name="inserted"/>
      <point x="132" y="613"/>
      <point x="198" y="633"/>
      <point x="236" y="633" type="qcurve" smooth="yes"/>
      <point x="279" y="633"/>
      <point x="365" y="596"/>
      <point x="419" y="564" type="qcurve"/>
      <point x="367" y="462" type="line"/>
      <point x="322" y="489"/>
      <point x="259" y="518"/>
      <point x="234" y="518" type="qcurve" smooth="yes"/>
      <point x="207" y="518"/>
      <point x="171" y="497"/>
      <point x="171" y="476" type="qcurve" smooth="yes"/>
      <point x="171" y="463"/>
      <point x="185" y="443"/>
      <point x="197.0" y="435.0" type="qcurve" smooth="yes" name="inserted"/>
      <point x="209" y="427"/>
      <point x="240" y="414"/>
      <point x="257" y="408" type="qcurve"/>
      <point x="256" y="409" type="line"/>
      <point x="288" y="398"/>
      <point x="346" y="372"/>
      <point x="367.5" y="353.0" type="qcurve" smooth="yes" name="inserted"/>
      <point x="389" y="334"/>
      <point x="415" y="281"/>
      <point x="416" y="244" type="qcurve" smooth="yes"/>
      <point x="416" y="216"/>
      <point x="398" y="165"/>
      <point x="383" y="147" type="qcurve"/>
      <point x="387" y="136"/>
      <point x="391" y="114"/>
      <point x="391" y="100" type="qcurve" smooth="yes"/>
      <point x="391" y="59"/>
      <point x="360" y="-2"/>
      <point x="333.0" y="-21.5" type="qcurve" smooth="yes" name="inserted"/>
      <point x="306" y="-41"/>
      <point x="233" y="-60"/>
    </contour>
  </outline>
</glyph>
<glyph name="dieresis" format="1">
  <advance width="318"/>
  <unicode hex="00A8"/>
  <outline>
    <contour>
      <point x="35" y="473" type="line"/>
      <point x="35" y="654" type="line"/>
      <point x="151" y="654" type="line"/>
      <point x="151" y="473" type="line"/>
    </contour>
    <contour>
      <point x="247" y="473" type="line"/>
      <point x="131" y="473" type="line"/>
      <point x="131" y="654" type="line"/>
      <point x="247" y="654" type="line"/>
    </contour>
  </outline>
</glyph>
<glyph name="copyright" format="1">
  <advance width="706"/>
  <unicode hex="00A9"/>
  <outline>
    <contour>
      <point x="16" y="304" type="qcurve" smooth="yes"/>
      <point x="16" y="374"/>
      <point x="61" y="490"/>
      <point x="101.5" y="532.0" type="qcurve" smooth="yes" name="inserted"/>
      <point x="142" y="574"/>
      <point x="256" y="620"/>
      <point x="325" y="620" type="qcurve" smooth="yes"/>
      <point x="393" y="620"/>
      <point x="504" y="573"/>
      <point x="543.5" y="531.5" type="qcurve" smooth="yes" name="inserted"/>
      <point x="583" y="490"/>
      <point x="626" y="375"/>
      <point x="626" y="306" type="qcurve" smooth="yes"/>
      <point x="626" y="238"/>
      <point x="583" y="124"/>
      <point x="543.5" y="82.5" type="qcurve" smooth="yes" name="inserted"/>
      <point x="504" y="41"/>
      <point x="393" y="-5"/>
      <point x="326" y="-5" type="qcurve" smooth="yes"/>
      <point x="257" y="-5"/>
      <point x="143" y="40"/>
      <point x="102.0" y="81.0" type="qcurve" smooth="yes" name="inserted"/>
      <point x="61" y="122"/>
      <point x="16" y="235"/>
    </contour>
    <contour>
      <point x="131" y="305" type="qcurve" smooth="yes"/>
      <point x="131" y="262"/>
      <point x="160" y="191"/>
      <point x="186.5" y="165.5" type="qcurve" smooth="yes" name="inserted"/>
      <point x="213" y="140"/>
      <point x="286" y="112"/>
      <point x="330" y="112" type="qcurve" smooth="yes"/>
      <point x="370" y="112"/>
      <point x="437" y="141"/>
      <point x="461.0" y="166.5" type="qcurve" smooth="yes" name="inserted"/>
      <point x="485" y="192"/>
      <point x="511" y="262"/>
      <point x="511" y="304" type="qcurve" smooth="yes"/>
      <point x="511" y="347"/>
      <point x="484" y="421"/>
      <point x="459.5" y="448.0" type="qcurve" smooth="yes" name="inserted"/>
      <point x="435" y="475"/>
      <point x="366" y="505"/>
      <point x="324" y="505" type="qcurve" smooth="yes"/>
      <point x="281" y="505"/>
      <point x="210" y="475"/>
      <point x="184.5" y="448.5" type="qcurve" smooth="yes" name="inserted"/>
      <point x="159" y="422"/>
      <point x="131" y="349"/>
    </contour>
    <contour>
      <point x="147" y="304" type="qcurve" smooth="yes"/>
      <point x="147" y="346"/>
      <point x="174" y="416"/>
      <point x="199.0" y="441.5" type="qcurve" smooth="yes" name="inserted"/>
      <point x="224" y="467"/>
      <point x="294" y="495"/>
      <point x="336" y="495" type="qcurve" smooth="yes"/>
      <point x="369" y="495"/>
      <point x="440" y="461"/>
      <point x="485" y="429" type="qcurve"/>
      <point x="421" y="332" type="line"/>
      <point x="390" y="355"/>
      <point x="348" y="380"/>
      <point x="334" y="380" type="qcurve" smooth="yes"/>
      <point x="302" y="380"/>
      <point x="263" y="338"/>
      <point x="263" y="304" type="qcurve" smooth="yes"/>
      <point x="263" y="271"/>
      <point x="297" y="226"/>
      <point x="327" y="226" type="qcurve" smooth="yes"/>
      <point x="341" y="226"/>
      <point x="382" y="245"/>
      <point x="412" y="265" type="qcurve"/>
      <point x="484" y="176" type="line"/>
      <point x="433" y="141"/>
      <point x="358" y="111"/>
      <point x="325" y="111" type="qcurve" smooth="yes"/>
      <point x="284" y="111"/>
      <point x="218" y="140"/>
      <point x="195.0" y="166.0" type="qcurve" smooth="yes" name="inserted"/>
      <point x="172" y="192"/>
      <point x="147" y="262"/>
    </contour>
  </outline>
</glyph>
<glyph name="guillemotleft" format="1">
  <advance width="432"/>
  <unicode hex="00AB"/>
  <outline>
    <contour>
      <point x="3" y="239" type="line"/>
      <point x="3" y="309" type="line"/>
      <point x="240" y="475" type="line"/>
      <point x="240" y="338" type="line"/>
      <point x="151" y="275" type="line"/>
      <point x="248" y="208" type="line"/>
      <point x="248" y="72" type="line"/>
    </contour>
    <contour>
      <point x="146" y="239" type="line"/>
      <point x="146" y="309" type="line"/>
      <point x="384" y="475" type="line"/>
      <point x="384" y="338" type="line"/>
      <point x="295" y="275" type="line"/>
      <point x="392" y="208" type="line"/>
      <point x="392" y="72" type="line"/>
    </contour>
  </outline>
</glyph>
<glyph name="uni00AD" format="1">
  <advance width="472"/>
  <unicode hex="00AD"/>
  <outline>
    <contour>
      <point x="47" y="213" type="line"/>
      <point x="47" y="329" type="line"/>
      <point x="382" y="329" type="line"/>
      <point x="382" y="213" type="line"/>
    </contour>
  </outline>
</glyph>
<glyph name="registered" format="1">
  <advance width="532"/>
  <unicode hex="00AE"/>
  <outline>
    <contour>
      <point x="11" y="431" type="qcurve" smooth="yes"/>
      <point x="11" y="482"/>
      <point x="46" y="565"/>
      <point x="76.5" y="594.5" type="qcurve" smooth="yes" name="inserted"/>
      <point x="107" y="624"/>
      <point x="193" y="657"/>
      <point x="244" y="657" type="qcurve" smooth="yes"/>
      <point x="295" y="657"/>
      <point x="381" y="626"/>
      <point x="412.5" y="597.5" type="qcurve" smooth="yes" name="inserted"/>
      <point x="444" y="569"/>
      <point x="480" y="487"/>
      <point x="480" y="437" type="qcurve" smooth="yes"/>
      <point x="480" y="384"/>
      <point x="445" y="295"/>
      <point x="413.5" y="263.5" type="qcurve" smooth="yes" name="inserted"/>
      <point x="382" y="232"/>
      <point x="293" y="197"/>
      <point x="240" y="197" type="qcurve" smooth="yes"/>
      <point x="189" y="197"/>
      <point x="104" y="232"/>
      <point x="74.0" y="263.0" type="qcurve" smooth="yes" name="inserted"/>
      <point x="44" y="294"/>
      <point x="11" y="380"/>
    </contour>
    <contour>
      <point x="126" y="432" type="qcurve" smooth="yes"/>
      <point x="126" y="482"/>
      <point x="191" y="542"/>
      <point x="242" y="542" type="qcurve" smooth="yes"/>
      <point x="296" y="542"/>
      <point x="365" y="484"/>
      <point x="365" y="435" type="qcurve" smooth="yes"/>
      <point x="365" y="381"/>
      <point x="298" y="313"/>
      <point x="244" y="313" type="qcurve" smooth="yes"/>
      <point x="191" y="313"/>
      <point x="126" y="379"/>
    </contour>
    <contour>
      <point x="249" y="471" type="qcurve" smooth="yes"/>
      <point x="249.0" y="473.5" name="inserted"/>
      <point x="245.0" y="477.5"/>
      <point x="241" y="479" type="qcurve"/>
      <point x="241" y="516" type="line"/>
      <point x="206" y="481" type="line"/>
      <point x="192" y="481" type="line"/>
      <point x="199" y="473" type="line"/>
      <point x="192" y="467" type="line"/>
      <point x="206" y="467" type="line"/>
      <point x="241" y="432" type="line"/>
      <point x="241" y="467" type="line"/>
      <point x="245.0" y="468.0" name="inserted"/>
      <point x="249.0" y="470.0"/>
    </contour>
    <contour>
      <point x="287" y="278" type="line"/>
      <point x="427" y="278" type="line"/>
      <point x="422" y="286"/>
      <point x="402" y="315"/>
      <point x="389.5" y="332.5" type="qcurve" smooth="yes" name="inserted"/>
      <point x="377" y="350"/>
      <point x="351" y="387"/>
      <point x="339" y="404" type="qcurve"/>
      <point x="353" y="417"/>
      <point x="365" y="450"/>
      <point x="365" y="473" type="qcurve" smooth="yes"/>
      <point x="365" y="502"/>
      <point x="343" y="544"/>
      <point x="324.0" y="557.0" type="qcurve" smooth="yes" name="inserted"/>
      <point x="305" y="570"/>
      <point x="255" y="582"/>
      <point x="227" y="582" type="qcurve" smooth="yes"/>
      <point x="125" y="582" type="line"/>
      <point x="125" y="278" type="line"/>
      <point x="241" y="278" type="line"/>
      <point x="241" y="343" type="line"/>
    </contour>
  </outline>
</glyph>
<glyph name="plusminus" format="1">
  <advance width="691"/>
  <unicode hex="00B1"/>
  <outline>
    <contour>
      <point x="369" y="327" type="line"/>
      <point x="369" y="88" type="line"/>
      <point x="253" y="88" type="line"/>
      <point x="253" y="327" type="line"/>
      <point x="20" y="327" type="line"/>
      <point x="20" y="443" type="line"/>
      <point x="253" y="443" type="line"/>
      <point x="253" y="651" type="line"/>
      <point x="369" y="651" type="line"/>
      <point x="369" y="443" type="line"/>
      <point x="593" y="443" type="line"/>
      <point x="593" y="327" type="line"/>
    </contour>
    <contour>
      <point x="20" y="-11" type="line"/>
      <point x="20" y="105" type="line"/>
      <point x="591" y="105" type="line"/>
      <point x="591" y="-11" type="line"/>
    </contour>
  </outline>
</glyph>
<glyph name="acute" format="1">
  <advance width="223"/>
  <unicode hex="00B4"/>
  <outline>
    <contour>
      <point x="53" y="506" type="line"/>
      <point x="-37" y="577" type="line"/>
      <point x="151" y="806" type="line"/>
      <point x="241" y="739" type="line"/>
    </contour>
  </outline>
</glyph>
<glyph name="cedilla" format="1">
  <advance width="286"/>
  <unicode hex="00B8"/>
  <outline>
    <contour>
      <point x="134" y="-162" type="qcurve" smooth="yes"/>
      <point x="107" y="-162"/>
      <point x="46" y="-136"/>
      <point x="6" y="-113" type="qcurve"/>
      <point x="44" y="-38" type="line"/>
      <point x="30" y="-31" type="line"/>
      <point x="114" y="124" type="line"/>
      <point x="218" y="73" type="line"/>
      <point x="204" y="47" type="line"/>
      <point x="230" y="33"/>
      <point x="258" y="-18"/>
      <point x="258" y="-51" type="qcurve" smooth="yes"/>
      <point x="258" y="-105"/>
      <point x="187" y="-162"/>
    </contour>
  </outline>
</glyph>
<glyph name="guillemotright" format="1">
  <advance width="441"/>
  <unicode hex="00BB"/>
  <outline>
    <contour>
      <point x="11" y="207" type="line"/>
      <point x="100" y="270" type="line"/>
      <point x="3" y="337" type="line"/>
      <point x="3" y="474" type="line"/>
      <point x="248" y="306" type="line"/>
      <point x="248" y="237" type="line"/>
      <point x="11" y="70" type="line"/>
    </contour>
    <contour>
      <point x="155" y="207" type="line"/>
      <point x="244" y="270" type="line"/>
      <point x="146" y="337" type="line"/>
      <point x="146" y="474" type="line"/>
      <point x="392" y="306" type="line"/>
      <point x="392" y="237" type="line"/>
      <point x="155" y="70" type="line"/>
    </contour>
  </outline>
</glyph>
<glyph name="questiondown" format="1">
  <advance width="394"/>
  <unicode hex="00BF"/>
  <outline>
    <contour>
      <point x="286" y="532" type="line"/>
      <point x="286" y="328" type="line"/>
      <point x="170" y="328" type="line"/>
      <point x="170" y="532" type="line"/>
    </contour>
    <contour>
      <point x="221" y="-144" type="qcurve" smooth="yes"/>
      <point x="175" y="-144"/>
      <point x="99" y="-115"/>
      <point x="72.0" y="-88.5" type="qcurve" smooth="yes" name="inserted"/>
      <point x="45" y="-62"/>
      <point x="15" y="13"/>
      <point x="15" y="59" type="qcurve" smooth="yes"/>
      <point x="15" y="140"/>
      <point x="98" y="251"/>
      <point x="170" y="269" type="qcurve"/>
      <point x="170" y="352" type="line"/>
      <point x="286" y="352" type="line"/>
      <point x="286" y="162" type="line"/>
      <point x="216" y="162"/>
      <point x="128" y="107"/>
      <point x="128" y="60" type="qcurve" smooth="yes"/>
      <point x="128" y="19"/>
      <point x="180" y="-30"/>
      <point x="223" y="-30" type="qcurve" smooth="yes"/>
      <point x="234" y="-30"/>
      <point x="280" y="-16"/>
      <point x="316" y="-2" type="qcurve"/>
      <point x="353" y="-113" type="line"/>
      <point x="309" y="-128"/>
      <point x="246" y="-144"/>
    </contour>
  </outline>
</glyph>
<glyph name="Acircumflex" format="1">
  <advance width="641"/>
  <unicode hex="00C2"/>
  <outline>
    <contour>
      <point x="309" y="776" type="line"/>
      <point x="242" y="678" type="line"/>
      <point x="105" y="678" type="line"/>
      <point x="273" y="924" type="line"/>
      <point x="343" y="924" type="line"/>
      <point x="509" y="686" type="line"/>
      <point x="372" y="686" type="line"/>
    </contour>
    <contour>
      <point x="307" y="482" type="line"/>
      <point x="294" y="450"/>
      <point x="268" y="386"/>
      <point x="249" y="340" type="qcurve"/>
      <point x="361" y="340" type="line"/>
    </contour>
    <contour>
      <point x="405" y="224" type="line"/>
      <point x="200" y="224" type="line"/>
      <point x="177" y="170"/>
      <point x="128" y="49"/>
      <point x="107" y="0" type="qcurve"/>
      <point x="-18" y="0" type="line"/>
      <point x="269" y="687" type="line"/>
      <point x="353" y="687" type="line"/>
      <point x="610" y="1" type="line"/>
      <point x="488" y="1" type="line"/>
    </contour>
  </outline>
</glyph>
<glyph name="Atilde" format="1">
  <advance width="654"/>
  <unicode hex="00C3"/>
  <outline>
    <contour>
      <point x="494" y="855" type="line"/>
      <point x="494" y="816"/>
      <point x="480" y="749"/>
      <point x="466.0" y="724.5" type="qcurve" smooth="yes" name="inserted"/>
      <point x="452" y="700"/>
      <point x="408" y="672"/>
      <point x="378" y="672" type="qcurve" smooth="yes"/>
      <point x="342" y="673"/>
      <point x="300" y="697"/>
      <point x="277" y="717" type="qcurve"/>
      <point x="272" y="720" type="line"/>
      <point x="259" y="732" type="line"/>
      <point x="261" y="730" type="line"/>
      <point x="258" y="732"/>
      <point x="254" y="736"/>
      <point x="252" y="738" type="qcurve" smooth="yes"/>
      <point x="251.0" y="739.0" name="inserted"/>
      <point x="249.0" y="740.5"/>
      <point x="248" y="741" type="qcurve"/>
      <point x="244" y="741"/>
      <point x="241" y="702"/>
      <point x="241" y="671" type="qcurve"/>
      <point x="126" y="671" type="line"/>
      <point x="126" y="752"/>
      <point x="189" y="855"/>
      <point x="249" y="855" type="qcurve" smooth="yes"/>
      <point x="283" y="855"/>
      <point x="323" y="829"/>
      <point x="343" y="811" type="qcurve"/>
      <point x="350" y="804" type="line"/>
      <point x="347" y="807" type="line"/>
      <point x="358" y="799"/>
      <point x="374" y="787"/>
      <point x="380" y="787" type="qcurve"/>
      <point x="379" y="787"/>
      <point x="378" y="826"/>
      <point x="378" y="855" type="qcurve"/>
    </contour>
    <contour>
      <point x="307" y="482" type="line"/>
      <point x="294" y="450"/>
      <point x="268" y="386"/>
      <point x="249" y="340" type="qcurve"/>
      <point x="361" y="340" type="line"/>
    </contour>
    <contour>
      <point x="405" y="224" type="line"/>
      <point x="200" y="224" type="line"/>
      <point x="177" y="170"/>
      <point x="128" y="49"/>
      <point x="107" y="0" type="qcurve"/>
      <point x="-18" y="0" type="line"/>
      <point x="269" y="687" type="line"/>
      <point x="353" y="687" type="line"/>
      <point x="610" y="1" type="line"/>
      <point x="488" y="1" type="line"/>
    </contour>
  </outline>
</glyph>
<glyph name="Adieresis" format="1">
  <advance width="657"/>
  <unicode hex="00C4"/>
  <outline>
    <contour>
      <point x="201" y="672" type="line"/>
      <point x="201" y="853" type="line"/>
      <point x="317" y="853" type="line"/>
      <point x="317" y="672" type="line"/>
    </contour>
    <contour>
      <point x="413" y="672" type="line"/>
      <point x="297" y="672" type="line"/>
      <point x="297" y="853" type="line"/>
      <point x="413" y="853" type="line"/>
    </contour>
    <contour>
      <point x="307" y="482" type="line"/>
      <point x="294" y="450"/>
      <point x="268" y="386"/>
      <point x="249" y="340" type="qcurve"/>
      <point x="361" y="340" type="line"/>
    </contour>
    <contour>
      <point x="405" y="224" type="line"/>
      <point x="200" y="224" type="line"/>
      <point x="177" y="170"/>
      <point x="128" y="49"/>
      <point x="107" y="0" type="qcurve"/>
      <point x="-18" y="0" type="line"/>
      <point x="269" y="687" type="line"/>
      <point x="353" y="687" type="line"/>
      <point x="610" y="1" type="line"/>
      <point x="488" y="1" type="line"/>
    </contour>
  </outline>
</glyph>
<glyph name="Aring" format="1">
  <advance width="649"/>
  <unicode hex="00C5"/>
  <outline>
    <contour>
      <point x="197" y="757" type="qcurve" smooth="yes"/>
      <point x="197" y="811"/>
      <point x="263" y="876"/>
      <point x="316" y="876" type="qcurve" smooth="yes"/>
      <point x="368" y="876"/>
      <point x="434" y="811"/>
      <point x="434" y="757" type="qcurve" smooth="yes"/>
      <point x="434" y="703"/>
      <point x="368" y="637"/>
      <point x="316" y="637" type="qcurve" smooth="yes"/>
      <point x="263" y="637"/>
      <point x="197" y="703"/>
    </contour>
    <contour>
      <point x="312" y="757" type="qcurve" smooth="yes"/>
      <point x="312.0" y="755.0" name="inserted"/>
      <point x="314.5" y="753.0"/>
      <point x="317" y="753" type="qcurve" smooth="yes"/>
      <point x="318.0" y="753.0" name="inserted"/>
      <point x="319.0" y="754.5"/>
      <point x="319" y="756" type="qcurve" smooth="yes"/>
      <point x="319.0" y="758.5" name="inserted"/>
      <point x="316.5" y="761.0"/>
      <point x="314" y="761" type="qcurve" smooth="yes"/>
      <point x="313.0" y="761.0" name="inserted"/>
      <point x="312.0" y="759.0"/>
    </contour>
    <contour>
      <point x="307" y="482" type="line"/>
      <point x="294" y="450"/>
      <point x="268" y="386"/>
      <point x="249" y="340" type="qcurve"/>
      <point x="361" y="340" type="line"/>
    </contour>
    <contour>
      <point x="405" y="224" type="line"/>
      <point x="200" y="224" type="line"/>
      <point x="177" y="170"/>
      <point x="128" y="49"/>
      <point x="107" y="0" type="qcurve"/>
      <point x="-18" y="0" type="line"/>
      <point x="269" y="687" type="line"/>
      <point x="353" y="687" type="line"/>
      <point x="610" y="1" type="line"/>
      <point x="488" y="1" type="line"/>
    </contour>
  </outline>
</glyph>
<glyph name="AE" format="1">
  <advance width="850"/>
  <unicode hex="00C6"/>
  <outline>
    <contour>
      <point x="303" y="402" type="line"/>
      <point x="274" y="340" type="line"/>
      <point x="303" y="340" type="line"/>
    </contour>
    <contour>
      <point x="303" y="224" type="line"/>
      <point x="219" y="224" type="line"/>
      <point x="114" y="0" type="line"/>
      <point x="-15" y="0" type="line"/>
      <point x="312" y="687" type="line"/>
      <point x="732" y="687" type="line"/>
      <point x="732" y="572" type="line"/>
      <point x="419" y="572" type="line"/>
      <point x="419" y="411" type="line"/>
      <point x="681" y="411" type="line"/>
      <point x="681" y="295" type="line"/>
      <point x="419" y="295" type="line"/>
      <point x="419" y="116" type="line"/>
      <point x="760" y="116" type="line"/>
      <point x="760" y="0" type="line"/>
      <point x="303" y="0" type="line"/>
    </contour>
  </outline>
</glyph>
<glyph name="Egrave" format="1">
  <advance width="557"/>
  <unicode hex="00C8"/>
  <outline>
    <contour>
      <point x="111" y="880" type="line"/>
      <point x="208" y="939" type="line"/>
      <point x="389" y="713" type="line"/>
      <point x="300" y="642" type="line"/>
    </contour>
    <contour>
      <point x="47" y="687" type="line"/>
      <point x="476" y="687" type="line"/>
      <point x="476" y="572" type="line"/>
      <point x="163" y="572" type="line"/>
      <point x="163" y="411" type="line"/>
      <point x="425" y="411" type="line"/>
      <point x="425" y="295" type="line"/>
      <point x="163" y="295" type="line"/>
      <point x="163" y="116" type="line"/>
      <point x="504" y="116" type="line"/>
      <point x="504" y="0" type="line"/>
      <point x="47" y="0" type="line"/>
    </contour>
  </outline>
</glyph>
<glyph name="Eacute" format="1">
  <advance width="569"/>
  <unicode hex="00C9"/>
  <outline>
    <contour>
      <point x="185" y="652" type="line"/>
      <point x="95" y="723" type="line"/>
      <point x="283" y="953" type="line"/>
      <point x="373" y="885" type="line"/>
    </contour>
    <contour>
      <point x="47" y="687" type="line"/>
      <point x="476" y="687" type="line"/>
      <point x="476" y="572" type="line"/>
      <point x="163" y="572" type="line"/>
      <point x="163" y="411" type="line"/>
      <point x="425" y="411" type="line"/>
      <point x="425" y="295" type="line"/>
      <point x="163" y="295" type="line"/>
      <point x="163" y="116" type="line"/>
      <point x="504" y="116" type="line"/>
      <point x="504" y="0" type="line"/>
      <point x="47" y="0" type="line"/>
    </contour>
  </outline>
</glyph>
<glyph name="Ecircumflex" format="1">
  <advance width="555"/>
  <unicode hex="00CA"/>
  <outline>
    <contour>
      <point x="319" y="686" type="line"/>
      <point x="456" y="686" type="line"/>
      <point x="290" y="924" type="line"/>
      <point x="220" y="924" type="line"/>
      <point x="52" y="678" type="line"/>
      <point x="189" y="678" type="line"/>
      <point x="256" y="776" type="line"/>
    </contour>
    <contour>
      <point x="47" y="687" type="line"/>
      <point x="476" y="687" type="line"/>
      <point x="476" y="572" type="line"/>
      <point x="163" y="572" type="line"/>
      <point x="163" y="411" type="line"/>
      <point x="425" y="411" type="line"/>
      <point x="425" y="295" type="line"/>
      <point x="163" y="295" type="line"/>
      <point x="163" y="116" type="line"/>
      <point x="504" y="116" type="line"/>
      <point x="504" y="0" type="line"/>
      <point x="47" y="0" type="line"/>
    </contour>
  </outline>
</glyph>
<glyph name="Edieresis" format="1">
  <advance width="582"/>
  <unicode hex="00CB"/>
  <outline>
    <contour>
      <point x="150" y="672" type="line"/>
      <point x="150" y="853" type="line"/>
      <point x="266" y="853" type="line"/>
      <point x="266" y="672" type="line"/>
    </contour>
    <contour>
      <point x="362" y="672" type="line"/>
      <point x="246" y="672" type="line"/>
      <point x="246" y="853" type="line"/>
      <point x="362" y="853" type="line"/>
    </contour>
    <contour>
      <point x="47" y="687" type="line"/>
      <point x="476" y="687" type="line"/>
      <point x="476" y="572" type="line"/>
      <point x="163" y="572" type="line"/>
      <point x="163" y="411" type="line"/>
      <point x="425" y="411" type="line"/>
      <point x="425" y="295" type="line"/>
      <point x="163" y="295" type="line"/>
      <point x="163" y="116" type="line"/>
      <point x="504" y="116" type="line"/>
      <point x="504" y="0" type="line"/>
      <point x="47" y="0" type="line"/>
    </contour>
  </outline>
</glyph>
<glyph name="Iacute" format="1">
  <advance width="281"/>
  <unicode hex="00CD"/>
  <outline>
    <contour>
      <point x="95" y="652" type="line"/>
      <point x="5" y="723" type="line"/>
      <point x="193" y="953" type="line"/>
      <point x="283" y="885" type="line"/>
    </contour>
    <contour>
      <point x="72" y="0" type="line"/>
      <point x="72" y="687" type="line"/>
      <point x="188" y="687" type="line"/>
      <point x="188" y="0" type="line"/>
    </contour>
  </outline>
</glyph>
<glyph name="Icircumflex" format="1">
  <advance width="336"/>
  <unicode hex="00CE"/>
  <outline>
    <contour>
      <point x="163" y="776" type="line"/>
      <point x="96" y="678" type="line"/>
      <point x="-41" y="678" type="line"/>
      <point x="127" y="924" type="line"/>
      <point x="197" y="924" type="line"/>
      <point x="363" y="686" type="line"/>
      <point x="226" y="686" type="line"/>
    </contour>
    <contour>
      <point x="100" y="0" type="line"/>
      <point x="100" y="687" type="line"/>
      <point x="216" y="687" type="line"/>
      <point x="216" y="0" type="line"/>
    </contour>
  </outline>
</glyph>
<glyph name="Idieresis" format="1">
  <advance width="310"/>
  <unicode hex="00CF"/>
  <outline>
    <contour>
      <point x="35" y="672" type="line"/>
      <point x="35" y="853" type="line"/>
      <point x="151" y="853" type="line"/>
      <point x="151" y="672" type="line"/>
    </contour>
    <contour>
      <point x="247" y="672" type="line"/>
      <point x="131" y="672" type="line"/>
      <point x="131" y="853" type="line"/>
      <point x="247" y="853" type="line"/>
    </contour>
    <contour>
      <point x="83" y="0" type="line"/>
      <point x="83" y="687" type="line"/>
      <point x="199" y="687" type="line"/>
      <point x="199" y="0" type="line"/>
    </contour>
  </outline>
</glyph>
<glyph name="Ntilde" format="1">
  <advance width="794"/>
  <unicode hex="00D1"/>
  <outline>
    <contour>
      <point x="529" y="847" type="line"/>
      <point x="529" y="808"/>
      <point x="515" y="741"/>
      <point x="501.0" y="716.5" type="qcurve" smooth="yes" name="inserted"/>
      <point x="487" y="692"/>
      <point x="443" y="664"/>
      <point x="413" y="664" type="qcurve" smooth="yes"/>
      <point x="377" y="665"/>
      <point x="336" y="688"/>
      <point x="313" y="708" type="qcurve" smooth="yes"/>
      <point x="308" y="712" type="line"/>
      <point x="295" y="724" type="line"/>
      <point x="297" y="722" type="line"/>
      <point x="293.0" y="725.0" name="inserted"/>
      <point x="288.0" y="729.0"/>
      <point x="287" y="730" type="qcurve" smooth="yes"/>
      <point x="284" y="733" type="line"/>
      <point x="280" y="733"/>
      <point x="276" y="694"/>
      <point x="276" y="663" type="qcurve"/>
      <point x="162" y="663" type="line"/>
      <point x="162" y="744"/>
      <point x="224" y="847"/>
      <point x="284" y="847" type="qcurve" smooth="yes"/>
      <point x="318" y="847"/>
      <point x="358" y="821"/>
      <point x="378" y="802" type="qcurve"/>
      <point x="386" y="796" type="line"/>
      <point x="383" y="799" type="line"/>
      <point x="394" y="791"/>
      <point x="410" y="779"/>
      <point x="416" y="779" type="qcurve"/>
      <point x="415" y="779"/>
      <point x="414" y="818"/>
      <point x="414" y="847" type="qcurve"/>
    </contour>
    <contour>
      <point x="204" y="466" type="line"/>
      <point x="204" y="0" type="line"/>
      <point x="88" y="0" type="line"/>
      <point x="88" y="687" type="line"/>
      <point x="182" y="687" type="line"/>
      <point x="528" y="221" type="line"/>
      <point x="528" y="687" type="line"/>
      <point x="644" y="687" type="line"/>
      <point x="644" y="0" type="line"/>
      <point x="550" y="0" type="line"/>
    </contour>
  </outline>
</glyph>
<glyph name="Ograve" format="1">
  <advance width="800"/>
  <unicode hex="00D2"/>
  <outline>
    <contour>
      <point x="243" y="898" type="line"/>
      <point x="340" y="957" type="line"/>
      <point x="520" y="731" type="line"/>
      <point x="432" y="660" type="line"/>
    </contour>
    <contour>
      <point x="367" y="-5" type="qcurve" smooth="yes"/>
      <point x="295" y="-5"/>
      <point x="185" y="47"/>
      <point x="147.5" y="93.5" type="qcurve" smooth="yes" name="inserted"/>
      <point x="110" y="140"/>
      <point x="72" y="266"/>
      <point x="73" y="340" type="qcurve" smooth="yes"/>
      <point x="71" y="415"/>
      <point x="109" y="544"/>
      <point x="146.5" y="591.5" type="qcurve" smooth="yes" name="inserted"/>
      <point x="184" y="639"/>
      <point x="295" y="692"/>
      <point x="367" y="692" type="qcurve" smooth="yes"/>
      <point x="438" y="692"/>
      <point x="547" y="639"/>
      <point x="584.5" y="592.5" type="qcurve" smooth="yes" name="inserted"/>
      <point x="622" y="546"/>
      <point x="660" y="419"/>
      <point x="660" y="346" type="qcurve" smooth="yes"/>
      <point x="660" y="272"/>
      <point x="622" y="143"/>
      <point x="585.0" y="96.0" type="qcurve" smooth="yes" name="inserted"/>
      <point x="548" y="49"/>
      <point x="439" y="-5"/>
    </contour>
    <contour>
      <point x="188" y="343" type="qcurve" smooth="yes"/>
      <point x="188" y="293"/>
      <point x="212" y="208"/>
      <point x="235.0" y="177.0" type="qcurve" smooth="yes" name="inserted"/>
      <point x="258" y="146"/>
      <point x="325" y="110"/>
      <point x="369" y="110" type="qcurve" smooth="yes"/>
      <point x="412" y="110"/>
      <point x="478" y="147"/>
      <point x="500.5" y="178.5" type="qcurve" smooth="yes" name="inserted"/>
      <point x="523" y="210"/>
      <point x="545" y="296"/>
      <point x="545" y="345" type="qcurve" smooth="yes"/>
      <point x="545" y="394"/>
      <point x="522" y="480"/>
      <point x="499.0" y="511.0" type="qcurve" smooth="yes" name="inserted"/>
      <point x="476" y="542"/>
      <point x="408" y="577"/>
      <point x="364" y="577" type="qcurve" smooth="yes"/>
      <point x="320" y="577"/>
      <point x="255" y="541"/>
      <point x="232.5" y="509.5" type="qcurve" smooth="yes" name="inserted"/>
      <point x="210" y="478"/>
      <point x="188" y="392"/>
    </contour>
  </outline>
</glyph>
<glyph name="Otilde" format="1">
  <advance width="800"/>
  <unicode hex="00D5"/>
  <outline>
    <contour>
      <point x="547" y="885" type="line"/>
      <point x="547" y="846"/>
      <point x="533" y="778"/>
      <point x="519.0" y="753.5" type="qcurve" smooth="yes" name="inserted"/>
      <point x="505" y="729"/>
      <point x="461" y="701"/>
      <point x="431" y="701" type="qcurve"/>
      <point x="395" y="703"/>
      <point x="354" y="726"/>
      <point x="331" y="746" type="qcurve"/>
      <point x="326" y="749" type="line"/>
      <point x="313" y="762" type="line"/>
      <point x="315" y="759" type="line"/>
      <point x="312" y="761"/>
      <point x="307" y="766"/>
      <point x="305" y="768" type="qcurve"/>
      <point x="303.5" y="769.0" name="inserted"/>
      <point x="301.5" y="770.5"/>
      <point x="301" y="771" type="qcurve"/>
      <point x="298" y="771"/>
      <point x="294" y="731"/>
      <point x="294" y="700" type="qcurve"/>
      <point x="180" y="700" type="line"/>
      <point x="180" y="740"/>
      <point x="196" y="808"/>
      <point x="211.0" y="833.0" type="qcurve" smooth="yes" name="inserted"/>
      <point x="226" y="858"/>
      <point x="272" y="885"/>
      <point x="302" y="885" type="qcurve" smooth="yes"/>
      <point x="336" y="885"/>
      <point x="376" y="858"/>
      <point x="396" y="840" type="qcurve" smooth="yes"/>
      <point x="404" y="833" type="line"/>
      <point x="401" y="837" type="line"/>
      <point x="412" y="828"/>
      <point x="428" y="816"/>
      <point x="434" y="816" type="qcurve"/>
      <point x="433" y="816"/>
      <point x="432" y="856"/>
      <point x="432" y="885" type="qcurve"/>
    </contour>
    <contour>
      <point x="367" y="-5" type="qcurve" smooth="yes"/>
      <point x="295" y="-5"/>
      <point x="185" y="47"/>
      <point x="147.5" y="93.5" type="qcurve" smooth="yes" name="inserted"/>
      <point x="110" y="140"/>
      <point x="72" y="266"/>
      <point x="73" y="340" type="qcurve" smooth="yes"/>
      <point x="71" y="415"/>
      <point x="109" y="544"/>
      <point x="146.5" y="591.5" type="qcurve" smooth="yes" name="inserted"/>
      <point x="184" y="639"/>
      <point x="295" y="692"/>
      <point x="367" y="692" type="qcurve" smooth="yes"/>
      <point x="438" y="692"/>
      <point x="547" y="639"/>
      <point x="584.5" y="592.5" type="qcurve" smooth="yes" name="inserted"/>
      <point x="622" y="546"/>
      <point x="660" y="419"/>
      <point x="660" y="346" type="qcurve" smooth="yes"/>
      <point x="660" y="272"/>
      <point x="622" y="143"/>
      <point x="585.0" y="96.0" type="qcurve" smooth="yes" name="inserted"/>
      <point x="548" y="49"/>
      <point x="439" y="-5"/>
    </contour>
    <contour>
      <point x="188" y="343" type="qcurve" smooth="yes"/>
      <point x="188" y="293"/>
      <point x="212" y="208"/>
      <point x="235.0" y="177.0" type="qcurve" smooth="yes" name="inserted"/>
      <point x="258" y="146"/>
      <point x="325" y="110"/>
      <point x="369" y="110" type="qcurve" smooth="yes"/>
      <point x="412" y="110"/>
      <point x="478" y="147"/>
      <point x="500.5" y="178.5" type="qcurve" smooth="yes" name="inserted"/>
      <point x="523" y="210"/>
      <point x="545" y="296"/>
      <point x="545" y="345" type="qcurve" smooth="yes"/>
      <point x="545" y="394"/>
      <point x="522" y="480"/>
      <point x="499.0" y="511.0" type="qcurve" smooth="yes" name="inserted"/>
      <point x="476" y="542"/>
      <point x="408" y="577"/>
      <point x="364" y="577" type="qcurve" smooth="yes"/>
      <point x="320" y="577"/>
      <point x="255" y="541"/>
      <point x="232.5" y="509.5" type="qcurve" smooth="yes" name="inserted"/>
      <point x="210" y="478"/>
      <point x="188" y="392"/>
    </contour>
  </outline>
</glyph>
<glyph name="multiply" format="1">
  <advance width="400"/>
  <unicode hex="00D7"/>
  <outline>
    <contour>
      <point x="182" y="216" type="line"/>
      <point x="75" y="109" type="line"/>
      <point x="-6" y="190" type="line"/>
      <point x="102" y="298" type="line"/>
      <point x="-13" y="411" type="line"/>
      <point x="68" y="493" type="line"/>
      <point x="182" y="379" type="line"/>
      <point x="294" y="491" type="line"/>
      <point x="376" y="410" type="line"/>
      <point x="264" y="298" type="line"/>
      <point x="373" y="188" type="line"/>
      <point x="292" y="107" type="line"/>
    </contour>
  </outline>
</glyph>
<glyph name="Oslash" format="1">
  <advance width="800"/>
  <unicode hex="00D8"/>
  <outline>
    <contour>
      <point x="188" y="343" type="qcurve" smooth="yes"/>
      <point x="188" y="297"/>
      <point x="208" y="217"/>
      <point x="227" y="186" type="qcurve"/>
      <point x="251" y="237"/>
      <point x="295" y="330"/>
      <point x="316.5" y="376.5" type="qcurve" smooth="yes" name="inserted"/>
      <point x="338" y="423"/>
      <point x="384" y="519"/>
      <point x="409" y="573" type="qcurve"/>
      <point x="399" y="575"/>
      <point x="375" y="577"/>
      <point x="364" y="577" type="qcurve" smooth="yes"/>
      <point x="320" y="577"/>
      <point x="255" y="541"/>
      <point x="232.5" y="509.5" type="qcurve" smooth="yes" name="inserted"/>
      <point x="210" y="478"/>
      <point x="188" y="392"/>
    </contour>
    <contour>
      <point x="369" y="110" type="qcurve" smooth="yes"/>
      <point x="412" y="110"/>
      <point x="478" y="147"/>
      <point x="500.5" y="178.5" type="qcurve" smooth="yes" name="inserted"/>
      <point x="523" y="210"/>
      <point x="545" y="296"/>
      <point x="545" y="345" type="qcurve" smooth="yes"/>
      <point x="546" y="396"/>
      <point x="526" y="476"/>
      <point x="503" y="508" type="qcurve"/>
      <point x="320" y="116" type="line"/>
      <point x="332.0" y="113.0" name="inserted"/>
      <point x="356.5" y="110.0"/>
    </contour>
    <contour>
      <point x="367" y="-5" type="qcurve" smooth="yes"/>
      <point x="341" y="-5"/>
      <point x="292" y="3"/>
      <point x="270" y="10" type="qcurve"/>
      <point x="241" y="-56" type="line"/>
      <point x="116" y="-56" type="line"/>
      <point x="173" y="68" type="line"/>
      <point x="122" y="115"/>
      <point x="71" y="256"/>
      <point x="73" y="340" type="qcurve"/>
      <point x="71" y="415"/>
      <point x="109" y="544"/>
      <point x="146.5" y="591.5" type="qcurve" smooth="yes" name="inserted"/>
      <point x="184" y="639"/>
      <point x="295" y="692"/>
      <point x="367" y="692" type="qcurve" smooth="yes"/>
      <point x="391" y="692"/>
      <point x="437" y="686"/>
      <point x="457" y="679" type="qcurve"/>
      <point x="508" y="787" type="line"/>
      <point x="635" y="787" type="line"/>
      <point x="556" y="621" type="line"/>
      <point x="608" y="573"/>
      <point x="660" y="432"/>
      <point x="660" y="346" type="qcurve" smooth="yes"/>
      <point x="660" y="272"/>
      <point x="622" y="143"/>
      <point x="585.0" y="96.0" type="qcurve" smooth="yes" name="inserted"/>
      <point x="548" y="49"/>
      <point x="439" y="-5"/>
    </contour>
  </outline>
</glyph>
<glyph name="Uacute" format="1">
  <advance width="763"/>
  <unicode hex="00DA"/>
  <outline>
    <contour>
      <point x="297" y="660" type="line"/>
      <point x="208" y="731" type="line"/>
      <point x="396" y="961" type="line"/>
      <point x="486" y="893" type="line"/>
    </contour>
    <contour>
      <point x="80" y="687" type="line"/>
      <point x="196" y="687" type="line"/>
      <point x="196" y="282" type="line" smooth="yes"/>
      <point x="196" y="205"/>
      <point x="275" y="111"/>
      <point x="347" y="111" type="qcurve" smooth="yes"/>
      <point x="415" y="111"/>
      <point x="488" y="197"/>
      <point x="488" y="269" type="qcurve" smooth="yes"/>
      <point x="488" y="687" type="line"/>
      <point x="604" y="687" type="line"/>
      <point x="604" y="272" type="line" smooth="yes"/>
      <point x="604" y="209"/>
      <point x="569" y="107"/>
      <point x="536.0" y="71.0" type="qcurve" smooth="yes" name="inserted"/>
      <point x="503" y="35"/>
      <point x="406" y="-5"/>
      <point x="344" y="-5" type="qcurve" smooth="yes"/>
      <point x="281" y="-5"/>
      <point x="183" y="36"/>
      <point x="149.5" y="73.0" type="qcurve" smooth="yes" name="inserted"/>
      <point x="116" y="110"/>
      <point x="80" y="215"/>
      <point x="80" y="278" type="qcurve" smooth="yes"/>
    </contour>
  </outline>
</glyph>
<glyph name="Ucircumflex" format="1">
  <advance width="763"/>
  <unicode hex="00DB"/>
  <outline>
    <contour>
      <point x="348" y="740" type="line"/>
      <point x="281" y="642" type="line"/>
      <point x="144" y="642" type="line"/>
      <point x="312" y="888" type="line"/>
      <point x="382" y="888" type="line"/>
      <point x="548" y="651" type="line"/>
      <point x="411" y="651" type="line"/>
    </contour>
    <contour>
      <point x="80" y="687" type="line"/>
      <point x="196" y="687" type="line"/>
      <point x="196" y="282" type="line" smooth="yes"/>
      <point x="196" y="205"/>
      <point x="275" y="111"/>
      <point x="347" y="111" type="qcurve" smooth="yes"/>
      <point x="415" y="111"/>
      <point x="488" y="197"/>
      <point x="488" y="269" type="qcurve" smooth="yes"/>
      <point x="488" y="687" type="line"/>
      <point x="604" y="687" type="line"/>
      <point x="604" y="272" type="line" smooth="yes"/>
      <point x="604" y="209"/>
      <point x="569" y="107"/>
      <point x="536.0" y="71.0" type="qcurve" smooth="yes" name="inserted"/>
      <point x="503" y="35"/>
      <point x="406" y="-5"/>
      <point x="344" y="-5" type="qcurve" smooth="yes"/>
      <point x="281" y="-5"/>
      <point x="183" y="36"/>
      <point x="149.5" y="73.0" type="qcurve" smooth="yes" name="inserted"/>
      <point x="116" y="110"/>
      <point x="80" y="215"/>
      <point x="80" y="278" type="qcurve" smooth="yes"/>
    </contour>
  </outline>
</glyph>
<glyph name="Thorn" format="1">
  <advance width="477"/>
  <unicode hex="00DE"/>
  <outline>
    <contour>
      <point x="198" y="344" type="qcurve" smooth="yes"/>
      <point x="248" y="344"/>
      <point x="308" y="401"/>
      <point x="308" y="451" type="qcurve" smooth="yes"/>
      <point x="308" y="508"/>
      <point x="234" y="572"/>
      <point x="175" y="572" type="qcurve" smooth="yes"/>
      <point x="127" y="572" type="line"/>
      <point x="127" y="360" type="line"/>
      <point x="146" y="352"/>
      <point x="178" y="344"/>
    </contour>
    <contour>
      <point x="197" y="229" type="qcurve" smooth="yes"/>
      <point x="177" y="229"/>
      <point x="144" y="233"/>
      <point x="127" y="238" type="qcurve"/>
      <point x="127" y="0" type="line"/>
      <point x="11" y="0" type="line"/>
      <point x="11" y="687" type="line"/>
      <point x="177" y="687" type="line" smooth="yes"/>
      <point x="231" y="687"/>
      <point x="322" y="654"/>
      <point x="355.0" y="623.5" type="qcurve" smooth="yes" name="inserted"/>
      <point x="388" y="593"/>
      <point x="424" y="506"/>
      <point x="424" y="452" type="qcurve" smooth="yes"/>
      <point x="424" y="402"/>
      <point x="391" y="320"/>
      <point x="361.5" y="290.5" type="qcurve" smooth="yes" name="inserted"/>
      <point x="332" y="261"/>
      <point x="248" y="229"/>
    </contour>
  </outline>
</glyph>
<glyph name="aring" format="1">
  <advance width="533"/>
  <unicode hex="00E5"/>
  <outline>
    <contour>
      <point x="237" y="560" type="line" smooth="yes"/>
      <point x="237.0" y="558.0" name="inserted"/>
      <point x="239.5" y="556.0"/>
      <point x="242" y="556" type="qcurve" smooth="yes"/>
      <point x="242.5" y="556.0" name="inserted"/>
      <point x="243.0" y="557.0"/>
      <point x="243" y="558" type="qcurve" smooth="yes"/>
      <point x="243.0" y="560.5" name="inserted"/>
      <point x="240.5" y="563.0"/>
      <point x="238" y="563" type="qcurve"/>
      <point x="237" y="562" type="line"/>
    </contour>
    <contour>
      <point x="213" y="106" type="qcurve" smooth="yes"/>
      <point x="250" y="106"/>
      <point x="305" y="151"/>
      <point x="332" y="184" type="qcurve"/>
      <point x="332" y="240" type="line"/>
      <point x="310" y="239"/>
      <point x="269" y="237"/>
      <point x="243" y="235" type="qcurve" smooth="yes"/>
      <point x="199" y="230"/>
      <point x="139" y="200"/>
      <point x="139" y="168" type="qcurve" smooth="yes"/>
      <point x="139" y="139"/>
      <point x="181" y="106"/>
    </contour>
    <contour>
      <point x="349" y="241" type="qcurve" smooth="yes"/>
      <point x="357" y="241"/>
      <point x="373" y="242"/>
      <point x="381" y="242" type="qcurve"/>
      <point x="332" y="291" type="line"/>
      <point x="332" y="240" type="line"/>
      <point x="337" y="240"/>
      <point x="344" y="241"/>
    </contour>
    <contour>
      <point x="332" y="27" type="line"/>
      <point x="306" y="10"/>
      <point x="247" y="-8"/>
      <point x="210" y="-8" type="qcurve" smooth="yes"/>
      <point x="169" y="-8"/>
      <point x="100" y="16"/>
      <point x="75.5" y="38.5" type="qcurve" smooth="yes" name="inserted"/>
      <point x="51" y="61"/>
      <point x="23" y="126"/>
      <point x="23" y="167" type="qcurve" smooth="yes"/>
      <point x="23" y="212"/>
      <point x="56" y="277"/>
      <point x="85.0" y="299.0" type="qcurve" smooth="yes" name="inserted"/>
      <point x="114" y="321"/>
      <point x="191" y="345"/>
      <point x="236" y="348" type="qcurve"/>
      <point x="235" y="348" type="line"/>
      <point x="261" y="350"/>
      <point x="307" y="352"/>
      <point x="330" y="353" type="qcurve"/>
      <point x="322" y="387"/>
      <point x="270" y="427"/>
      <point x="232" y="427" type="qcurve" smooth="yes"/>
      <point x="204" y="427"/>
      <point x="142" y="388"/>
      <point x="101" y="350" type="qcurve"/>
      <point x="30" y="438" type="line"/>
      <point x="62" y="470"/>
      <point x="111" y="510"/>
      <point x="127" y="518" type="qcurve"/>
      <point x="124" y="528"/>
      <point x="122" y="548"/>
      <point x="122" y="559" type="qcurve" smooth="yes"/>
      <point x="122" y="613"/>
      <point x="188" y="678"/>
      <point x="240" y="678" type="qcurve" smooth="yes"/>
      <point x="292" y="678"/>
      <point x="358" y="613"/>
      <point x="358" y="559" type="qcurve" smooth="yes"/>
      <point x="358" y="548"/>
      <point x="355" y="523"/>
      <point x="351" y="513" type="qcurve"/>
      <point x="397" y="487"/>
      <point x="448" y="395"/>
      <point x="448" y="332" type="qcurve" smooth="yes"/>
      <point x="448" y="0" type="line"/>
      <point x="332" y="0" type="line"/>
    </contour>
  </outline>
</glyph>
<glyph name="ccedilla" format="1">
  <advance width="545"/>
  <unicode hex="00E7"/>
  <outline>
    <contour>
      <point x="254" y="-162" type="qcurve" smooth="yes"/>
      <point x="228" y="-162"/>
      <point x="166" y="-136"/>
      <point x="126" y="-113" type="qcurve"/>
      <point x="164" y="-38" type="line"/>
      <point x="157" y="-35" type="line"/>
      <point x="177" y="20" type="line"/>
      <point x="115" y="55"/>
      <point x="58" y="188"/>
      <point x="58" y="267" type="qcurve" smooth="yes"/>
      <point x="58" y="323"/>
      <point x="88" y="422"/>
      <point x="117.5" y="459.0" type="qcurve" smooth="yes" name="inserted"/>
      <point x="147" y="496"/>
      <point x="235" y="539"/>
      <point x="294" y="539" type="qcurve" smooth="yes"/>
      <point x="338.0" y="539.0" name="inserted"/>
      <point x="430.5" y="493.5"/>
      <point x="479" y="448" type="qcurve"/>
      <point x="407" y="358" type="line"/>
      <point x="372.5" y="391.0" name="inserted"/>
      <point x="316.0" y="424.0"/>
      <point x="294" y="424" type="qcurve" smooth="yes"/>
      <point x="263" y="424"/>
      <point x="218" y="399"/>
      <point x="203.0" y="377.0" type="qcurve" smooth="yes" name="inserted"/>
      <point x="188" y="355"/>
      <point x="174" y="298"/>
      <point x="174" y="267" type="qcurve" smooth="yes"/>
      <point x="174" y="235"/>
      <point x="187" y="178"/>
      <point x="201.5" y="156.5" type="qcurve" smooth="yes" name="inserted"/>
      <point x="216" y="135"/>
      <point x="260" y="110"/>
      <point x="290" y="110" type="qcurve" smooth="yes"/>
      <point x="313" y="110"/>
      <point x="374" y="154"/>
      <point x="405" y="195" type="qcurve"/>
      <point x="488" y="113" type="line"/>
      <point x="459.5" y="76.0" name="inserted"/>
      <point x="397.0" y="24.5"/>
      <point x="363" y="10" type="qcurve"/>
      <point x="371.0" y="-3.5" name="inserted"/>
      <point x="379.0" y="-34.0"/>
      <point x="379" y="-51" type="qcurve" smooth="yes"/>
      <point x="379" y="-105"/>
      <point x="308" y="-162"/>
    </contour>
  </outline>
</glyph>
<glyph name="egrave" format="1">
  <advance width="581"/>
  <unicode hex="00E8"/>
  <outline>
    <contour>
      <point x="144" y="744" type="line"/>
      <point x="241" y="803" type="line"/>
      <point x="421" y="577" type="line"/>
      <point x="333" y="506" type="line"/>
    </contour>
    <contour>
      <point x="270" y="426" type="qcurve" smooth="yes"/>
      <point x="232" y="426"/>
      <point x="186" y="376"/>
      <point x="176" y="337" type="qcurve"/>
      <point x="362" y="337" type="line"/>
      <point x="355" y="377"/>
      <point x="308" y="426"/>
    </contour>
    <contour>
      <point x="366" y="298" type="qcurve" smooth="yes"/>
      <point x="366" y="288" type="line"/>
      <point x="415" y="337" type="line"/>
      <point x="362" y="337" type="line"/>
      <point x="364.0" y="329.0" name="inserted"/>
      <point x="366.0" y="309.5"/>
    </contour>
    <contour>
      <point x="465" y="67" type="line"/>
      <point x="427" y="29"/>
      <point x="346" y="-8"/>
      <point x="291" y="-8" type="qcurve" smooth="yes"/>
      <point x="232" y="-8"/>
      <point x="143" y="36"/>
      <point x="113.0" y="74.5" type="qcurve" smooth="yes" name="inserted"/>
      <point x="83" y="113"/>
      <point x="52" y="218"/>
      <point x="52" y="278" type="qcurve" smooth="yes"/>
      <point x="52" y="334"/>
      <point x="80" y="431"/>
      <point x="107.5" y="466.5" type="qcurve" smooth="yes" name="inserted"/>
      <point x="135" y="502"/>
      <point x="218" y="542"/>
      <point x="273" y="542" type="qcurve" smooth="yes"/>
      <point x="325" y="542"/>
      <point x="403" y="504"/>
      <point x="429.0" y="470.5" type="qcurve" smooth="yes" name="inserted"/>
      <point x="455" y="437"/>
      <point x="481" y="346"/>
      <point x="481" y="293" type="qcurve" smooth="yes"/>
      <point x="481" y="224" type="line"/>
      <point x="175" y="224" type="line"/>
      <point x="186" y="174"/>
      <point x="247" y="109"/>
      <point x="295" y="109" type="qcurve" smooth="yes"/>
      <point x="322" y="109"/>
      <point x="384" y="148"/>
      <point x="423" y="186" type="qcurve"/>
      <point x="469" y="131" type="line"/>
    </contour>
  </outline>
</glyph>
<glyph name="ntilde" format="1">
  <advance width="618"/>
  <unicode hex="00F1"/>
  <outline>
    <contour>
      <point x="465" y="731" type="line"/>
      <point x="465" y="691"/>
      <point x="451" y="624"/>
      <point x="437.0" y="599.5" type="qcurve" smooth="yes" name="inserted"/>
      <point x="423" y="575"/>
      <point x="379" y="547"/>
      <point x="349" y="547" type="qcurve"/>
      <point x="313" y="549"/>
      <point x="272" y="572"/>
      <point x="249" y="592" type="qcurve"/>
      <point x="244" y="595" type="line"/>
      <point x="231" y="607" type="line"/>
      <point x="232" y="605" type="line"/>
      <point x="229" y="607"/>
      <point x="225" y="611"/>
      <point x="223" y="613" type="qcurve" smooth="yes"/>
      <point x="222.0" y="614.0" name="inserted"/>
      <point x="220.0" y="615.5"/>
      <point x="219" y="616" type="qcurve"/>
      <point x="215" y="616"/>
      <point x="212" y="577"/>
      <point x="212" y="546" type="qcurve"/>
      <point x="98" y="546" type="line"/>
      <point x="98" y="586"/>
      <point x="114" y="654"/>
      <point x="129.0" y="679.0" type="qcurve" smooth="yes" name="inserted"/>
      <point x="144" y="704"/>
      <point x="190" y="731"/>
      <point x="220" y="731" type="qcurve" smooth="yes"/>
      <point x="254" y="731"/>
      <point x="294" y="704"/>
      <point x="314" y="686" type="qcurve"/>
      <point x="321" y="679" type="line"/>
      <point x="319" y="682" type="line"/>
      <point x="330" y="674"/>
      <point x="345" y="662"/>
      <point x="351" y="662" type="qcurve"/>
      <point x="350.5" y="666.5" name="inserted"/>
      <point x="350.0" y="676.5"/>
      <point x="350" y="682" type="qcurve" smooth="yes"/>
      <point x="350" y="731" type="line"/>
    </contour>
    <contour>
      <point x="302" y="424" type="qcurve" smooth="yes"/>
      <point x="264" y="424"/>
      <point x="210" y="392"/>
      <point x="192" y="366" type="qcurve"/>
      <point x="192" y="0" type="line"/>
      <point x="76" y="0" type="line"/>
      <point x="76" y="533" type="line"/>
      <point x="192" y="533" type="line"/>
      <point x="192" y="515" type="line"/>
      <point x="216" y="527"/>
      <point x="273" y="541"/>
      <point x="305" y="541" type="qcurve" smooth="yes"/>
      <point x="403" y="541"/>
      <point x="496" y="428"/>
      <point x="496" y="330" type="qcurve" smooth="yes"/>
      <point x="496" y="0" type="line"/>
      <point x="380" y="0" type="line"/>
      <point x="380" y="326" type="line" smooth="yes"/>
      <point x="380" y="372"/>
      <point x="342" y="424"/>
    </contour>
  </outline>
</glyph>
<glyph name="oacute" format="1">
  <advance width="644"/>
  <unicode hex="00F3"/>
  <outline>
    <contour>
      <point x="244" y="506" type="line"/>
      <point x="154" y="577" type="line"/>
      <point x="342" y="806" type="line"/>
      <point x="432" y="739" type="line"/>
    </contour>
    <contour>
      <point x="51" y="269" type="qcurve" smooth="yes"/>
      <point x="51" y="326"/>
      <point x="82" y="425"/>
      <point x="111.5" y="461.0" type="qcurve" smooth="yes" name="inserted"/>
      <point x="141" y="497"/>
      <point x="228" y="538"/>
      <point x="284" y="538" type="qcurve" smooth="yes"/>
      <point x="340" y="538"/>
      <point x="428" y="497"/>
      <point x="458.0" y="461.0" type="qcurve" smooth="yes" name="inserted"/>
      <point x="488" y="425"/>
      <point x="520" y="326"/>
      <point x="520" y="269" type="qcurve" smooth="yes"/>
      <point x="520" y="211"/>
      <point x="489" y="111"/>
      <point x="459.0" y="74.0" type="qcurve" smooth="yes" name="inserted"/>
      <point x="429" y="37"/>
      <point x="341" y="-5"/>
      <point x="284" y="-5" type="qcurve" smooth="yes"/>
      <point x="227" y="-5"/>
      <point x="140" y="37"/>
      <point x="110.5" y="74.0" type="qcurve" smooth="yes" name="inserted"/>
      <point x="81" y="111"/>
      <point x="51" y="211"/>
    </contour>
    <contour>
      <point x="166" y="270" type="qcurve" smooth="yes"/>
      <point x="166" y="237"/>
      <point x="182" y="179"/>
      <point x="197.5" y="157.5" type="qcurve" smooth="yes" name="inserted"/>
      <point x="213" y="136"/>
      <point x="258" y="112"/>
      <point x="288" y="112" type="qcurve" smooth="yes"/>
      <point x="316" y="112"/>
      <point x="360" y="136"/>
      <point x="375.0" y="157.0" type="qcurve" smooth="yes" name="inserted"/>
      <point x="390" y="178"/>
      <point x="405" y="235"/>
      <point x="405" y="268" type="qcurve" smooth="yes"/>
      <point x="405" y="301"/>
      <point x="388" y="358"/>
      <point x="372.5" y="378.5" type="qcurve" smooth="yes" name="inserted"/>
      <point x="357" y="399"/>
      <point x="311" y="423"/>
      <point x="282" y="423" type="qcurve" smooth="yes"/>
      <point x="254" y="423"/>
      <point x="211" y="399"/>
      <point x="196.0" y="378.5" type="qcurve" smooth="yes" name="inserted"/>
      <point x="181" y="358"/>
      <point x="166" y="302"/>
    </contour>
  </outline>
</glyph>
<glyph name="otilde" format="1">
  <advance width="644"/>
  <unicode hex="00F5"/>
  <outline>
    <contour>
      <point x="475" y="731" type="line"/>
      <point x="475" y="691"/>
      <point x="461" y="624"/>
      <point x="447.0" y="599.5" type="qcurve" smooth="yes" name="inserted"/>
      <point x="433" y="575"/>
      <point x="389" y="547"/>
      <point x="359" y="547" type="qcurve"/>
      <point x="323" y="549"/>
      <point x="282" y="572"/>
      <point x="259" y="592" type="qcurve"/>
      <point x="254" y="595" type="line"/>
      <point x="241" y="607" type="line"/>
      <point x="243" y="605" type="line"/>
      <point x="239.0" y="608.0" name="inserted"/>
      <point x="234.0" y="612.0"/>
      <point x="233" y="613" type="qcurve" smooth="yes"/>
      <point x="230" y="616" type="line"/>
      <point x="226" y="616"/>
      <point x="222" y="577"/>
      <point x="222" y="546" type="qcurve"/>
      <point x="108" y="546" type="line"/>
      <point x="108" y="586"/>
      <point x="124" y="654"/>
      <point x="139.0" y="679.0" type="qcurve" smooth="yes" name="inserted"/>
      <point x="154" y="704"/>
      <point x="200" y="731"/>
      <point x="230" y="731" type="qcurve" smooth="yes"/>
      <point x="264" y="731"/>
      <point x="304" y="704"/>
      <point x="324" y="686" type="qcurve" smooth="yes"/>
      <point x="332" y="679" type="line"/>
      <point x="329" y="682" type="line"/>
      <point x="340" y="674"/>
      <point x="356" y="662"/>
      <point x="362" y="662" type="qcurve"/>
      <point x="361" y="662"/>
      <point x="360" y="702"/>
      <point x="360" y="731" type="qcurve"/>
    </contour>
    <contour>
      <point x="51" y="269" type="qcurve" smooth="yes"/>
      <point x="51" y="326"/>
      <point x="82" y="425"/>
      <point x="111.5" y="461.0" type="qcurve" smooth="yes" name="inserted"/>
      <point x="141" y="497"/>
      <point x="228" y="538"/>
      <point x="284" y="538" type="qcurve" smooth="yes"/>
      <point x="340" y="538"/>
      <point x="428" y="497"/>
      <point x="458.0" y="461.0" type="qcurve" smooth="yes" name="inserted"/>
      <point x="488" y="425"/>
      <point x="520" y="326"/>
      <point x="520" y="269" type="qcurve" smooth="yes"/>
      <point x="520" y="211"/>
      <point x="489" y="111"/>
      <point x="459.0" y="74.0" type="qcurve" smooth="yes" name="inserted"/>
      <point x="429" y="37"/>
      <point x="341" y="-5"/>
      <point x="284" y="-5" type="qcurve" smooth="yes"/>
      <point x="227" y="-5"/>
      <point x="140" y="37"/>
      <point x="110.5" y="74.0" type="qcurve" smooth="yes" name="inserted"/>
      <point x="81" y="111"/>
      <point x="51" y="211"/>
    </contour>
    <contour>
      <point x="166" y="270" type="qcurve" smooth="yes"/>
      <point x="166" y="237"/>
      <point x="182" y="179"/>
      <point x="197.5" y="157.5" type="qcurve" smooth="yes" name="inserted"/>
      <point x="213" y="136"/>
      <point x="258" y="112"/>
      <point x="288" y="112" type="qcurve" smooth="yes"/>
      <point x="316" y="112"/>
      <point x="360" y="136"/>
      <point x="375.0" y="157.0" type="qcurve" smooth="yes" name="inserted"/>
      <point x="390" y="178"/>
      <point x="405" y="235"/>
      <point x="405" y="268" type="qcurve" smooth="yes"/>
      <point x="405" y="301"/>
      <point x="388" y="358"/>
      <point x="372.5" y="378.5" type="qcurve" smooth="yes" name="inserted"/>
      <point x="357" y="399"/>
      <point x="311" y="423"/>
      <point x="282" y="423" type="qcurve" smooth="yes"/>
      <point x="254" y="423"/>
      <point x="211" y="399"/>
      <point x="196.0" y="378.5" type="qcurve" smooth="yes" name="inserted"/>
      <point x="181" y="358"/>
      <point x="166" y="302"/>
    </contour>
  </outline>
</glyph>
<glyph name="divide" format="1">
  <advance width="533"/>
  <unicode hex="00F7"/>
  <outline>
    <contour>
      <point x="172" y="457" type="line"/>
      <point x="307" y="457" type="line"/>
      <point x="307" y="322" type="line"/>
      <point x="172" y="322" type="line"/>
    </contour>
    <contour>
      <point x="8" y="198" type="line"/>
      <point x="8" y="314" type="line"/>
      <point x="478" y="314" type="line"/>
      <point x="478" y="198" type="line"/>
    </contour>
    <contour>
      <point x="307" y="185" type="line"/>
      <point x="307" y="50" type="line"/>
      <point x="172" y="50" type="line"/>
      <point x="172" y="185" type="line"/>
    </contour>
  </outline>
</glyph>
<glyph name="ugrave" format="1">
  <advance width="618"/>
  <unicode hex="00F9"/>
  <outline>
    <contour>
      <point x="160" y="744" type="line"/>
      <point x="257" y="803" type="line"/>
      <point x="438" y="577" type="line"/>
      <point x="349" y="506" type="line"/>
    </contour>
    <contour>
      <point x="374" y="7" type="line"/>
      <point x="352.5" y="-1.5" name="inserted"/>
      <point x="305.5" y="-10.0"/>
      <point x="280" y="-10" type="qcurve" smooth="yes"/>
      <point x="233" y="-10"/>
      <point x="157" y="21"/>
      <point x="130.5" y="49.0" type="qcurve" smooth="yes" name="inserted"/>
      <point x="104" y="77"/>
      <point x="76" y="156"/>
      <point x="76" y="203" type="qcurve" smooth="yes"/>
      <point x="76" y="533" type="line"/>
      <point x="192" y="533" type="line"/>
      <point x="192" y="201" type="line" smooth="yes"/>
      <point x="192" y="158"/>
      <point x="241" y="107"/>
      <point x="283" y="107" type="qcurve" smooth="yes"/>
      <point x="312" y="107"/>
      <point x="360" y="129"/>
      <point x="374" y="150" type="qcurve"/>
      <point x="374" y="533" type="line"/>
      <point x="490" y="533" type="line"/>
      <point x="490" y="0" type="line"/>
      <point x="374" y="0" type="line"/>
    </contour>
  </outline>
</glyph>
<glyph name="udieresis" format="1">
  <advance width="618"/>
  <unicode hex="00FC"/>
  <outline>
    <contour>
      <point x="172" y="473" type="line"/>
      <point x="172" y="654" type="line"/>
      <point x="288" y="654" type="line"/>
      <point x="288" y="473" type="line"/>
    </contour>
    <contour>
      <point x="384" y="473" type="line"/>
      <point x="268" y="473" type="line"/>
      <point x="268" y="654" type="line"/>
      <point x="384" y="654" type="line"/>
    </contour>
    <contour>
      <point x="374" y="7" type="line"/>
      <point x="352.5" y="-1.5" name="inserted"/>
      <point x="305.5" y="-10.0"/>
      <point x="280" y="-10" type="qcurve" smooth="yes"/>
      <point x="233" y="-10"/>
      <point x="157" y="21"/>
      <point x="130.5" y="49.0" type="qcurve" smooth="yes" name="inserted"/>
      <point x="104" y="77"/>
      <point x="76" y="156"/>
      <point x="76" y="203" type="qcurve" smooth="yes"/>
      <point x="76" y="533" type="line"/>
      <point x="192" y="533" type="line"/>
      <point x="192" y="201" type="line" smooth="yes"/>
      <point x="192" y="158"/>
      <point x="241" y="107"/>
      <point x="283" y="107" type="qcurve" smooth="yes"/>
      <point x="312" y="107"/>
      <point x="360" y="129"/>
      <point x="374" y="150" type="qcurve"/>
      <point x="374" y="533" type="line"/>
      <point x="490" y="533" type="line"/>
      <point x="490" y="0" type="line"/>
      <point x="374" y="0" type="line"/>
    </contour>
  </outline>
</glyph>
<glyph name="yacute" format="1">
  <advance width="490"/>
  <unicode hex="00FD"/>
  <outline>
    <contour>
      <point x="176" y="506" type="line"/>
      <point x="86" y="577" type="line"/>
      <point x="274" y="806" type="line"/>
      <point x="364" y="739" type="line"/>
    </contour>
    <contour>
      <point x="-12" y="-245" type="line"/>
      <point x="163" y="111" type="line"/>
      <point x="142" y="158"/>
      <point x="92" y="268"/>
      <point x="66.5" y="324.5" type="qcurve" smooth="yes" name="inserted"/>
      <point x="41" y="381"/>
      <point x="-8" y="489"/>
      <point x="-27" y="533" type="qcurve"/>
      <point x="101" y="533" type="line"/>
      <point x="228" y="247" type="line"/>
      <point x="263" y="319"/>
      <point x="337" y="467"/>
      <point x="369" y="533" type="qcurve"/>
      <point x="497" y="533" type="line"/>
      <point x="118" y="-245" type="line"/>
    </contour>
  </outline>
</glyph>
<glyph name="ydieresis" format="1">
  <advance width="490"/>
  <unicode hex="00FF"/>
  <outline>
    <contour>
      <point x="115" y="473" type="line"/>
      <point x="115" y="654" type="line"/>
      <point x="231" y="654" type="line"/>
      <point x="231" y="473" type="line"/>
    </contour>
    <contour>
      <point x="327" y="473" type="line"/>
      <point x="211" y="473" type="line"/>
      <point x="211" y="654" type="line"/>
      <point x="327" y="654" type="line"/>
    </contour>
    <contour>
      <point x="-12" y="-245" type="line"/>
      <point x="163" y="111" type="line"/>
      <point x="142" y="158"/>
      <point x="92" y="268"/>
      <point x="66.5" y="324.5" type="qcurve" smooth="yes" name="inserted"/>
      <point x="41" y="381"/>
      <point x="-8" y="489"/>
      <point x="-27" y="533" type="qcurve"/>
      <point x="101" y="533" type="line"/>
      <point x="228" y="247" type="line"/>
      <point x="263" y="319"/>
      <point x="337" y="467"/>
      <point x="369" y="533" type="qcurve"/>
      <point x="497" y="533" type="line"/>
      <point x="118" y="-245" type="line"/>
    </contour>
  </outline>
</glyph>
<glyph name="abreve" format="1">
  <advance width="533"/>
  <unicode hex="0103"/>
  <outline>
    <contour>
      <point x="213" y="106" type="qcurve" smooth="yes"/>
      <point x="250" y="106"/>
      <point x="305" y="151"/>
      <point x="332" y="184" type="qcurve"/>
      <point x="332" y="240" type="line"/>
      <point x="310" y="239"/>
      <point x="269" y="237"/>
      <point x="243" y="235" type="qcurve" smooth="yes"/>
      <point x="199" y="230"/>
      <point x="139" y="200"/>
      <point x="139" y="168" type="qcurve" smooth="yes"/>
      <point x="139" y="139"/>
      <point x="181" y="106"/>
    </contour>
    <contour>
      <point x="349" y="241" type="qcurve" smooth="yes"/>
      <point x="357" y="241"/>
      <point x="373" y="242"/>
      <point x="381" y="242" type="qcurve"/>
      <point x="332" y="291" type="line"/>
      <point x="332" y="240" type="line"/>
      <point x="337" y="240"/>
      <point x="344" y="241"/>
    </contour>
    <contour>
      <point x="332" y="27" type="line"/>
      <point x="306" y="10"/>
      <point x="247" y="-8"/>
      <point x="210" y="-8" type="qcurve" smooth="yes"/>
      <point x="169" y="-8"/>
      <point x="100" y="16"/>
      <point x="75.5" y="38.5" type="qcurve" smooth="yes" name="inserted"/>
      <point x="51" y="61"/>
      <point x="23" y="126"/>
      <point x="23" y="167" type="qcurve" smooth="yes"/>
      <point x="23" y="212"/>
      <point x="56" y="277"/>
      <point x="85.0" y="299.0" type="qcurve" smooth="yes" name="inserted"/>
      <point x="114" y="321"/>
      <point x="191" y="345"/>
      <point x="236" y="348" type="qcurve"/>
      <point x="235" y="348" type="line"/>
      <point x="261" y="350"/>
      <point x="307" y="352"/>
      <point x="330" y="353" type="qcurve"/>
      <point x="322" y="387"/>
      <point x="270" y="427"/>
      <point x="232" y="427" type="qcurve" smooth="yes"/>
      <point x="204" y="427"/>
      <point x="142" y="388"/>
      <point x="101" y="350" type="qcurve"/>
      <point x="29" y="440" type="line"/>
      <point x="83" y="492"/>
      <point x="180" y="542"/>
      <point x="234" y="542" type="qcurve" smooth="yes"/>
      <point x="282" y="542"/>
      <point x="361" y="512"/>
      <point x="389.0" y="485.0" type="qcurve" smooth="yes" name="inserted"/>
      <point x="417" y="458"/>
      <point x="448" y="380"/>
      <point x="448" y="332" type="qcurve" smooth="yes"/>
      <point x="448" y="0" type="line"/>
      <point x="332" y="0" type="line"/>
    </contour>
  </outline>
</glyph>
<glyph name="cacute" format="1">
  <advance width="545"/>
  <unicode hex="0107"/>
  <outline>
    <contour>
      <point x="201" y="506" type="line"/>
      <point x="112" y="577" type="line"/>
      <point x="300" y="806" type="line"/>
      <point x="390" y="739" type="line"/>
    </contour>
    <contour>
      <point x="58" y="267" type="qcurve" smooth="yes"/>
      <point x="58" y="323"/>
      <point x="88" y="422"/>
      <point x="117.5" y="459.0" type="qcurve" smooth="yes" name="inserted"/>
      <point x="147" y="496"/>
      <point x="235" y="539"/>
      <point x="294" y="539" type="qcurve" smooth="yes"/>
      <point x="338.0" y="539.0" name="inserted"/>
      <point x="430.5" y="493.5"/>
      <point x="479" y="448" type="qcurve"/>
      <point x="407" y="358" type="line"/>
      <point x="372.5" y="391.0" name="inserted"/>
      <point x="316.0" y="424.0"/>
      <point x="294" y="424" type="qcurve" smooth="yes"/>
      <point x="263" y="424"/>
      <point x="218" y="399"/>
      <point x="203.0" y="377.0" type="qcurve" smooth="yes" name="inserted"/>
      <point x="188" y="355"/>
      <point x="174" y="298"/>
      <point x="174" y="267" type="qcurve" smooth="yes"/>
      <point x="174" y="235"/>
      <point x="187" y="178"/>
      <point x="201.5" y="156.5" type="qcurve" smooth="yes" name="inserted"/>
      <point x="216" y="135"/>
      <point x="260" y="110"/>
      <point x="290" y="110" type="qcurve" smooth="yes"/>
      <point x="313" y="110"/>
      <point x="374" y="154"/>
      <point x="405" y="195" type="qcurve"/>
      <point x="488" y="113" type="line"/>
      <point x="444" y="56"/>
      <point x="340" y="-7"/>
      <point x="288" y="-7" type="qcurve" smooth="yes"/>
      <point x="229" y="-7"/>
      <point x="142" y="38"/>
      <point x="113.5" y="75.5" type="qcurve" smooth="yes" name="inserted"/>
      <point x="85" y="113"/>
      <point x="58" y="212"/>
    </contour>
  </outline>
</glyph>
<glyph name="Ccircumflex" format="1">
  <advance width="727"/>
  <unicode hex="0108"/>
  <outline>
    <contour>
      <point x="335" y="740" type="line"/>
      <point x="268" y="642" type="line"/>
      <point x="131" y="642" type="line"/>
      <point x="299" y="888" type="line"/>
      <point x="369" y="888" type="line"/>
      <point x="535" y="651" type="line"/>
      <point x="398" y="651" type="line"/>
    </contour>
    <contour>
      <point x="72" y="330" type="qcurve" smooth="yes"/>
      <point x="72" y="410"/>
      <point x="112" y="544"/>
      <point x="151.0" y="592.0" type="qcurve" smooth="yes" name="inserted"/>
      <point x="190" y="640"/>
      <point x="306" y="694"/>
      <point x="383" y="694" type="qcurve" smooth="yes"/>
      <point x="417" y="694"/>
      <point x="480" y="683"/>
      <point x="511.5" y="670.5" type="qcurve" smooth="yes" name="inserted"/>
      <point x="543" y="658"/>
      <point x="611" y="620"/>
      <point x="649" y="593" type="qcurve"/>
      <point x="584" y="497" type="line"/>
      <point x="523" y="542"/>
      <point x="431" y="579"/>
      <point x="382" y="579" type="qcurve" smooth="yes"/>
      <point x="334" y="579"/>
      <point x="261" y="542"/>
      <point x="236.5" y="509.0" type="qcurve" smooth="yes" name="inserted"/>
      <point x="212" y="476"/>
      <point x="188" y="385"/>
      <point x="188" y="331" type="qcurve" smooth="yes"/>
      <point x="188" y="282"/>
      <point x="211" y="200"/>
      <point x="233.5" y="170.5" type="qcurve" smooth="yes" name="inserted"/>
      <point x="256" y="141"/>
      <point x="324" y="108"/>
      <point x="368" y="108" type="qcurve" smooth="yes"/>
      <point x="420" y="108"/>
      <point x="517" y="156"/>
      <point x="576" y="213" type="qcurve"/>
      <point x="649" y="122" type="line"/>
      <point x="611" y="87"/>
      <point x="542" y="39"/>
      <point x="508.0" y="23.0" type="qcurve" smooth="yes" name="inserted"/>
      <point x="474" y="7"/>
      <point x="405" y="-7"/>
      <point x="366" y="-7" type="qcurve" smooth="yes"/>
      <point x="294" y="-7"/>
      <point x="184" y="43"/>
      <point x="147.0" y="87.5" type="qcurve" smooth="yes" name="inserted"/>
      <point x="110" y="132"/>
      <point x="72" y="256"/>
    </contour>
  </outline>
</glyph>
<glyph name="ccircumflex" format="1">
  <advance width="545"/>
  <unicode hex="0109"/>
  <outline>
    <contour>
      <point x="251" y="586" type="line"/>
      <point x="185" y="488" type="line"/>
      <point x="47" y="488" type="line"/>
      <point x="216" y="734" type="line"/>
      <point x="285" y="734" type="line"/>
      <point x="451" y="496" type="line"/>
      <point x="314" y="496" type="line"/>
    </contour>
    <contour>
      <point x="57" y="267" type="qcurve" smooth="yes"/>
      <point x="57" y="323"/>
      <point x="87" y="422"/>
      <point x="116.5" y="459.0" type="qcurve" smooth="yes" name="inserted"/>
      <point x="146" y="496"/>
      <point x="235" y="539"/>
      <point x="294" y="539" type="qcurve" smooth="yes"/>
      <point x="337.5" y="539.0" name="inserted"/>
      <point x="429.5" y="493.5"/>
      <point x="478" y="448" type="qcurve"/>
      <point x="407" y="358" type="line"/>
      <point x="371.5" y="391.0" name="inserted"/>
      <point x="315.0" y="424.0"/>
      <point x="294" y="424" type="qcurve" smooth="yes"/>
      <point x="263" y="424"/>
      <point x="217" y="399"/>
      <point x="202.0" y="377.0" type="qcurve" smooth="yes" name="inserted"/>
      <point x="187" y="355"/>
      <point x="173" y="298"/>
      <point x="173" y="267" type="qcurve" smooth="yes"/>
      <point x="173" y="235"/>
      <point x="186" y="178"/>
      <point x="200.5" y="156.5" type="qcurve" smooth="yes" name="inserted"/>
      <point x="215" y="135"/>
      <point x="259" y="110"/>
      <point x="289" y="110" type="qcurve" smooth="yes"/>
      <point x="313" y="110"/>
      <point x="373" y="154"/>
      <point x="405" y="195" type="qcurve"/>
      <point x="487" y="113" type="line"/>
      <point x="443" y="56"/>
      <point x="340" y="-7"/>
      <point x="287" y="-7" type="qcurve" smooth="yes"/>
      <point x="228" y="-7"/>
      <point x="141" y="38"/>
      <point x="112.5" y="75.5" type="qcurve" smooth="yes" name="inserted"/>
      <point x="84" y="113"/>
      <point x="57" y="212"/>
    </contour>
  </outline>
</glyph>
<glyph name="Dcroat" format="1">
  <advance width="724"/>
  <unicode hex="0110"/>
  <outline>
    <contour>
      <point x="196" y="282" type="line"/>
      <point x="196" y="116" type="line"/>
      <point x="296" y="116" type="line" smooth="yes"/>
      <point x="342" y="116"/>
      <point x="416" y="147"/>
      <point x="441.0" y="175.0" type="qcurve" smooth="yes" name="inserted"/>
      <point x="466" y="203"/>
      <point x="493" y="283"/>
      <point x="493" y="331" type="qcurve" smooth="yes"/>
      <point x="493" y="385"/>
      <point x="465" y="473"/>
      <point x="438.5" y="504.5" type="qcurve" smooth="yes" name="inserted"/>
      <point x="412" y="536"/>
      <point x="334" y="571"/>
      <point x="283" y="571" type="qcurve" smooth="yes"/>
      <point x="196" y="571" type="line"/>
      <point x="196" y="398" type="line"/>
      <point x="352" y="398" type="line"/>
      <point x="352" y="282" type="line"/>
    </contour>
    <contour>
      <point x="80" y="282" type="line"/>
      <point x="17" y="282" type="line"/>
      <point x="17" y="398" type="line"/>
      <point x="80" y="398" type="line"/>
      <point x="80" y="687" type="line"/>
      <point x="284" y="687" type="line" smooth="yes"/>
      <point x="362" y="687"/>
      <point x="483" y="636"/>
      <point x="524.5" y="589.0" type="qcurve" smooth="yes" name="inserted"/>
      <point x="566" y="542"/>
      <point x="609" y="411"/>
      <point x="609" y="332" type="qcurve" smooth="yes"/>
      <point x="609" y="257"/>
      <point x="567" y="134"/>
      <point x="526.5" y="90.5" type="qcurve" smooth="yes" name="inserted"/>
      <point x="486" y="47"/>
      <point x="369" y="0"/>
      <point x="294" y="0" type="qcurve" smooth="yes"/>
      <point x="80" y="0" type="line"/>
    </contour>
  </outline>
</glyph>
<glyph name="gcircumflex" format="1">
  <advance width="568"/>
  <unicode hex="011D"/>
  <outline>
    <contour>
      <point x="262" y="586" type="line"/>
      <point x="195" y="488" type="line"/>
      <point x="58" y="488" type="line"/>
      <point x="226" y="734" type="line"/>
      <point x="295" y="734" type="line"/>
      <point x="462" y="496" type="line"/>
      <point x="325" y="496" type="line"/>
    </contour>
    <contour>
      <point x="170" y="346" type="qcurve" smooth="yes"/>
      <point x="170" y="311"/>
      <point x="216" y="273"/>
      <point x="254" y="273" type="qcurve" smooth="yes"/>
      <point x="292" y="273"/>
      <point x="339" y="312"/>
      <point x="339" y="349" type="qcurve" smooth="yes"/>
      <point x="339" y="384"/>
      <point x="294" y="424"/>
      <point x="256" y="424" type="qcurve" smooth="yes"/>
      <point x="217" y="424"/>
      <point x="170" y="383"/>
    </contour>
    <contour>
      <point x="502" y="-38" type="qcurve" smooth="yes"/>
      <point x="503" y="-94"/>
      <point x="461" y="-171"/>
      <point x="424.5" y="-195.0" type="qcurve" smooth="yes" name="inserted"/>
      <point x="388" y="-219"/>
      <point x="287" y="-240"/>
      <point x="229" y="-239" type="qcurve" smooth="yes"/>
      <point x="182" y="-239"/>
      <point x="104" y="-213"/>
      <point x="76.5" y="-188.0" type="qcurve" smooth="yes" name="inserted"/>
      <point x="49" y="-163"/>
      <point x="19" y="-91"/>
      <point x="19" y="-45" type="qcurve" smooth="yes"/>
      <point x="19.0" y="-2.5" name="inserted"/>
      <point x="45.0" y="65.5"/>
      <point x="71" y="91" type="qcurve"/>
      <point x="64.0" y="104.0" name="inserted"/>
      <point x="57.0" y="135.0"/>
      <point x="57" y="153" type="qcurve" smooth="yes"/>
      <point x="57" y="178"/>
      <point x="72" y="223"/>
      <point x="83" y="240" type="qcurve"/>
      <point x="69.0" y="262.5" name="inserted"/>
      <point x="55.0" y="315.0"/>
      <point x="55" y="345" type="qcurve" smooth="yes"/>
      <point x="55" y="437"/>
      <point x="165" y="538"/>
      <point x="256" y="538" type="qcurve" smooth="yes"/>
      <point x="295" y="538"/>
      <point x="364" y="515"/>
      <point x="390" y="494" type="qcurve"/>
      <point x="529" y="494" type="line"/>
      <point x="529" y="379" type="line"/>
      <point x="452" y="379" type="line"/>
      <point x="453" y="373"/>
      <point x="454" y="356"/>
      <point x="454" y="349" type="qcurve" smooth="yes"/>
      <point x="454" y="258"/>
      <point x="344" y="158"/>
      <point x="253" y="158" type="qcurve" smooth="yes"/>
      <point x="231" y="158"/>
      <point x="191" y="165"/>
      <point x="173" y="171" type="qcurve"/>
      <point x="172.0" y="167.0" name="inserted"/>
      <point x="171.0" y="160.5"/>
      <point x="171" y="158" type="qcurve" smooth="yes"/>
      <point x="171" y="144"/>
      <point x="189" y="131"/>
      <point x="204" y="130" type="qcurve" smooth="yes"/>
      <point x="219" y="129"/>
      <point x="243" y="128"/>
      <point x="256" y="128" type="qcurve" smooth="yes"/>
      <point x="311" y="127" type="line" smooth="yes"/>
      <point x="352" y="125"/>
      <point x="422" y="104"/>
      <point x="447.5" y="84.0" type="qcurve" smooth="yes" name="inserted"/>
      <point x="473" y="64"/>
      <point x="502" y="4"/>
    </contour>
    <contour>
      <point x="237" y="-124" type="qcurve" smooth="yes"/>
      <point x="269" y="-124"/>
      <point x="324" y="-115"/>
      <point x="344.5" y="-105.5" type="qcurve" smooth="yes" name="inserted"/>
      <point x="365" y="-96"/>
      <point x="388" y="-64"/>
      <point x="388" y="-40" type="qcurve" smooth="yes"/>
      <point x="388" y="-13"/>
      <point x="340" y="12"/>
      <point x="303" y="14" type="qcurve"/>
      <point x="291" y="14"/>
      <point x="267" y="16"/>
      <point x="255" y="16" type="qcurve" smooth="yes"/>
      <point x="244" y="16"/>
      <point x="217" y="16"/>
      <point x="203" y="17" type="qcurve" smooth="yes"/>
      <point x="193" y="18"/>
      <point x="172" y="21"/>
      <point x="163" y="23" type="qcurve"/>
      <point x="148.5" y="11.5" name="inserted"/>
      <point x="134.0" y="-20.5"/>
      <point x="134" y="-41" type="qcurve" smooth="yes"/>
      <point x="134" y="-82"/>
      <point x="190" y="-124"/>
    </contour>
  </outline>
</glyph>
<glyph name="Gbreve" format="1">
  <advance width="836"/>
  <unicode hex="011E"/>
  <outline>
    <contour>
      <point x="654" y="69" type="line"/>
      <point x="622" y="51"/>
      <point x="563" y="22"/>
      <point x="533.0" y="12.5" type="qcurve" smooth="yes" name="inserted"/>
      <point x="503" y="3"/>
      <point x="438" y="-7"/>
      <point x="400" y="-7" type="qcurve" smooth="yes"/>
      <point x="322" y="-7"/>
      <point x="201" y="44"/>
      <point x="159.0" y="90.5" type="qcurve" smooth="yes" name="inserted"/>
      <point x="117" y="137"/>
      <point x="74" y="267"/>
      <point x="74" y="347" type="qcurve" smooth="yes"/>
      <point x="74" y="425"/>
      <point x="116" y="553"/>
      <point x="156.0" y="598.5" type="qcurve" smooth="yes" name="inserted"/>
      <point x="196" y="644"/>
      <point x="314" y="694"/>
      <point x="391" y="694" type="qcurve" smooth="yes"/>
      <point x="428" y="694"/>
      <point x="497" y="683"/>
      <point x="532.0" y="671.5" type="qcurve" smooth="yes" name="inserted"/>
      <point x="567" y="660"/>
      <point x="640" y="623"/>
      <point x="682" y="597" type="qcurve"/>
      <point x="629" y="494" type="line"/>
      <point x="592" y="517"/>
      <point x="530" y="549"/>
      <point x="502.0" y="559.0" type="qcurve" smooth="yes" name="inserted"/>
      <point x="474" y="569"/>
      <point x="420" y="578"/>
      <point x="392" y="578" type="qcurve" smooth="yes"/>
      <point x="344" y="578"/>
      <point x="269" y="545"/>
      <point x="243.5" y="515.0" type="qcurve" smooth="yes" name="inserted"/>
      <point x="218" y="485"/>
      <point x="191" y="400"/>
      <point x="191" y="349" type="qcurve" smooth="yes"/>
      <point x="191" y="295"/>
      <point x="219" y="206"/>
      <point x="246.0" y="174.5" type="qcurve" smooth="yes" name="inserted"/>
      <point x="273" y="143"/>
      <point x="351" y="109"/>
      <point x="402" y="109" type="qcurve" smooth="yes"/>
      <point x="450" y="109"/>
      <point x="525" y="128"/>
      <point x="564" y="148" type="qcurve"/>
      <point x="564" y="242" type="line"/>
      <point x="395" y="242" type="line"/>
      <point x="395" y="358" type="line"/>
      <point x="679" y="358" type="line"/>
      <point x="679" y="112" type="line"/>
    </contour>
  </outline>
</glyph>
<glyph name="Hcircumflex" format="1">
  <advance width="800"/>
  <unicode hex="0124"/>
  <outline>
    <contour>
      <point x="366" y="740" type="line"/>
      <point x="299" y="642" type="line"/>
      <point x="162" y="642" type="line"/>
      <point x="330" y="888" type="line"/>
      <point x="399" y="888" type="line"/>
      <point x="566" y="651" type="line"/>
      <point x="429" y="651" type="line"/>
    </contour>
    <contour>
      <point x="515" y="286" type="line"/>
      <point x="218" y="286" type="line"/>
      <point x="218" y="0" type="line"/>
      <point x="102" y="0" type="line"/>
      <point x="102" y="687" type="line"/>
      <point x="218" y="687" type="line"/>
      <point x="218" y="402" type="line"/>
      <point x="515" y="402" type="line"/>
      <point x="515" y="687" type="line"/>
      <point x="630" y="687" type="line"/>
      <point x="630" y="0" type="line"/>
      <point x="515" y="0" type="line"/>
    </contour>
  </outline>
</glyph>
<glyph name="Itilde" format="1">
  <advance width="290"/>
  <unicode hex="0128"/>
  <outline>
    <contour>
      <point x="315" y="885" type="line"/>
      <point x="315" y="846"/>
      <point x="301" y="778"/>
      <point x="287.0" y="753.5" type="qcurve" smooth="yes" name="inserted"/>
      <point x="273" y="729"/>
      <point x="229" y="701"/>
      <point x="199" y="701" type="qcurve"/>
      <point x="163" y="703"/>
      <point x="122" y="726"/>
      <point x="99" y="746" type="qcurve"/>
      <point x="94" y="749" type="line"/>
      <point x="81" y="762" type="line"/>
      <point x="83" y="759" type="line"/>
      <point x="80" y="761"/>
      <point x="75" y="766"/>
      <point x="73" y="768" type="qcurve" smooth="yes"/>
      <point x="70" y="771" type="line"/>
      <point x="65" y="771"/>
      <point x="61" y="731"/>
      <point x="61" y="700" type="qcurve"/>
      <point x="-53" y="700" type="line"/>
      <point x="-53" y="740"/>
      <point x="-37" y="808"/>
      <point x="-21.5" y="833.0" type="qcurve" smooth="yes" name="inserted"/>
      <point x="-6" y="858"/>
      <point x="40" y="885"/>
      <point x="70" y="885" type="qcurve" smooth="yes"/>
      <point x="104" y="885"/>
      <point x="144" y="858"/>
      <point x="164" y="840" type="qcurve" smooth="yes"/>
      <point x="172" y="833" type="line"/>
      <point x="169" y="837" type="line"/>
      <point x="180" y="828"/>
      <point x="196" y="816"/>
      <point x="202" y="816" type="qcurve"/>
      <point x="201" y="816"/>
      <point x="200" y="856"/>
      <point x="200" y="885" type="qcurve"/>
    </contour>
    <contour>
      <point x="70" y="0" type="line"/>
      <point x="70" y="687" type="line"/>
      <point x="186" y="687" type="line"/>
      <point x="186" y="0" type="line"/>
    </contour>
  </outline>
</glyph>
<glyph name="IJ" format="1">
  <advance width="726"/>
  <unicode hex="0132"/>
  <outline>
    <contour>
      <point x="92" y="0" type="line"/>
      <point x="92" y="687" type="line"/>
      <point x="208" y="687" type="line"/>
      <point x="208" y="0" type="line"/>
    </contour>
    <contour>
      <point x="348" y="-7" type="line"/>
      <point x="375" y="-33"/>
      <point x="409" y="-58"/>
      <point x="420" y="-58" type="qcurve" smooth="yes"/>
      <point x="454" y="-58"/>
      <point x="483" y="4"/>
      <point x="483" y="49" type="qcurve" smooth="yes"/>
      <point x="483" y="687" type="line"/>
      <point x="599" y="687" type="line"/>
      <point x="599" y="49" type="line" smooth="yes"/>
      <point x="599" y="1"/>
      <point x="578" y="-80"/>
      <point x="555.5" y="-109.5" type="qcurve" smooth="yes" name="inserted"/>
      <point x="533" y="-139"/>
      <point x="465" y="-173"/>
      <point x="419" y="-173" type="qcurve" smooth="yes"/>
      <point x="381" y="-173"/>
      <point x="309" y="-132"/>
      <point x="263" y="-87" type="qcurve"/>
    </contour>
  </outline>
</glyph>
<glyph name="Jcircumflex" format="1">
  <advance width="436"/>
  <unicode hex="0134"/>
  <outline>
    <contour>
      <point x="200" y="740" type="line"/>
      <point x="133" y="642" type="line"/>
      <point x="-4" y="642" type="line"/>
      <point x="165" y="888" type="line"/>
      <point x="234" y="888" type="line"/>
      <point x="400" y="651" type="line"/>
      <point x="263" y="651" type="line"/>
    </contour>
    <contour>
      <point x="97" y="-7" type="line"/>
      <point x="124" y="-33"/>
      <point x="158" y="-58"/>
      <point x="169" y="-58" type="qcurve" smooth="yes"/>
      <point x="202" y="-58"/>
      <point x="231" y="4"/>
      <point x="231" y="49" type="qcurve" smooth="yes"/>
      <point x="231" y="687" type="line"/>
      <point x="347" y="687" type="line"/>
      <point x="347" y="49" type="line" smooth="yes"/>
      <point x="347" y="1"/>
      <point x="326" y="-80"/>
      <point x="303.5" y="-109.5" type="qcurve" smooth="yes" name="inserted"/>
      <point x="281" y="-139"/>
      <point x="213" y="-173"/>
      <point x="167" y="-173" type="qcurve" smooth="yes"/>
      <point x="129" y="-173"/>
      <point x="57" y="-132"/>
      <point x="12" y="-87" type="qcurve"/>
    </contour>
  </outline>
</glyph>
<glyph name="Lacute" format="1">
  <advance width="618"/>
  <unicode hex="0139"/>
  <outline>
    <contour>
      <point x="235" y="660" type="line"/>
      <point x="145" y="731" type="line"/>
      <point x="334" y="961" type="line"/>
      <point x="423" y="893" type="line"/>
    </contour>
    <contour>
      <point x="79" y="687" type="line"/>
      <point x="195" y="687" type="line"/>
      <point x="195" y="116" type="line"/>
      <point x="529" y="116" type="line"/>
      <point x="529" y="0" type="line"/>
      <point x="79" y="0" type="line"/>
    </contour>
  </outline>
</glyph>
<glyph name="Nacute" format="1">
  <advance width="800"/>
  <unicode hex="0143"/>
  <outline>
    <contour>
      <point x="315" y="660" type="line"/>
      <point x="226" y="731" type="line"/>
      <point x="414" y="961" type="line"/>
      <point x="504" y="893" type="line"/>
    </contour>
    <contour>
      <point x="204" y="466" type="line"/>
      <point x="204" y="0" type="line"/>
      <point x="88" y="0" type="line"/>
      <point x="88" y="687" type="line"/>
      <point x="182" y="687" type="line"/>
      <point x="528" y="221" type="line"/>
      <point x="528" y="687" type="line"/>
      <point x="644" y="687" type="line"/>
      <point x="644" y="0" type="line"/>
      <point x="550" y="0" type="line"/>
    </contour>
  </outline>
</glyph>
<glyph name="nacute" format="1">
  <advance width="618"/>
  <unicode hex="0144"/>
  <outline>
    <contour>
      <point x="233" y="506" type="line"/>
      <point x="143" y="577" type="line"/>
      <point x="332" y="806" type="line"/>
      <point x="422" y="739" type="line"/>
    </contour>
    <contour>
      <point x="302" y="424" type="qcurve" smooth="yes"/>
      <point x="264" y="424"/>
      <point x="210" y="392"/>
      <point x="192" y="366" type="qcurve"/>
      <point x="192" y="0" type="line"/>
      <point x="76" y="0" type="line"/>
      <point x="76" y="533" type="line"/>
      <point x="192" y="533" type="line"/>
      <point x="192" y="515" type="line"/>
      <point x="216" y="527"/>
      <point x="273" y="541"/>
      <point x="305" y="541" type="qcurve" smooth="yes"/>
      <point x="403" y="541"/>
      <point x="496" y="428"/>
      <point x="496" y="330" type="qcurve" smooth="yes"/>
      <point x="496" y="0" type="line"/>
      <point x="380" y="0" type="line"/>
      <point x="380" y="326" type="line" smooth="yes"/>
      <point x="380" y="372"/>
      <point x="342" y="424"/>
    </contour>
  </outline>
</glyph>
